<svg width="157" height="43" viewBox="0 0 157 43" fill="none" xmlns="http://www.w3.org/2000/svg">
<g clip-path="url(#clip0_6_32)">
<path d="M41.5106 30.8098C38.7659 34.7348 36.0368 38.6317 33.3216 42.5381C33.0961 42.8624 32.8644 43.0028 32.4548 43C29.5702 42.98 26.6854 42.9889 23.8007 42.9837C23.5646 42.9832 23.3185 42.9826 23.0947 42.9201C22.4705 42.7457 22.0293 42.1565 21.9998 41.5079C21.9944 41.3902 21.9974 41.2721 21.9974 41.1542C21.998 35.9513 22.0014 30.7485 21.9935 25.5456C21.9929 25.1742 22.0797 24.8663 22.2968 24.5608C23.4778 22.8988 24.6393 21.2231 25.8152 19.5573C26.6003 18.4451 27.6398 17.7227 29.0232 17.5297C30.2304 17.3612 31.3233 17.6481 32.3218 18.3173C32.9866 18.7628 33.6412 19.2232 34.2998 19.6778C36.4343 21.1508 38.5708 22.6209 40.7017 24.0989C41.742 24.8205 42.3376 25.8159 42.5459 27.0576C42.7242 28.1206 42.5322 29.1082 42.0084 30.0393C41.8641 30.296 41.6902 30.5363 41.5106 30.8098Z" fill="#F5A3D4"/>
<path d="M0.66518 24.5625C0.71328 24.4671 0.74081 24.3966 0.784895 24.3383C0.938433 24.1353 0.915318 23.952 0.789623 23.7325C0.328563 22.9269 0.0630771 22.0607 0.0143965 21.1303C-0.0631533 19.6481 0.294695 18.2905 1.22378 17.1155C1.54 16.7156 1.65998 16.3449 1.56909 15.8221C1.07742 12.9941 2.75595 10.1789 5.49049 9.17017C5.65702 9.10874 5.82398 9.04859 6.03397 8.97212C6.02116 8.83063 6.0188 8.68773 5.99408 8.54873C5.65202 6.62733 6.24145 5.02854 7.81097 3.87238C8.95311 3.03099 10.1757 2.29039 11.399 1.56554C12.6037 0.851663 13.9139 0.367323 15.2971 0.102796C16.141 -0.058591 16.9813 -0.0378487 17.8085 0.222255C18.6141 0.475548 19.2092 0.970724 19.6037 1.71251C20.1621 2.76226 20.4478 3.87897 20.4539 5.06401C20.4671 7.62892 20.4816 10.1939 20.4834 12.7588C20.4881 19.2009 20.4864 25.6429 20.4866 32.085C20.4867 33.6628 20.458 35.2408 20.2073 36.8021C20.0956 37.4978 19.9354 38.1896 19.7422 38.8677C19.5248 39.6304 19.1005 40.2889 18.5418 40.8591C15.5612 43.9009 10.6385 43.6117 8.05888 40.2318C7.77933 39.8656 7.44825 39.6146 7.03431 39.4173C4.75216 38.3298 3.38509 36.555 3.02184 34.055C2.97124 33.7068 2.97534 33.3489 2.97739 32.9956C2.97909 32.7063 2.8841 32.5076 2.63266 32.3327C1.23922 31.3634 0.387954 30.0353 0.0956028 28.3758C-0.135931 27.0615 0.0527681 25.7941 0.66518 24.5625ZM13.2329 6.76745C13.0902 6.5617 12.9474 6.35613 12.8051 6.1502C12.0864 5.11019 10.868 4.73279 9.65819 5.17551C8.54764 5.58188 7.85853 6.71252 7.98927 7.91379C8.06646 8.62352 8.21621 8.76447 8.92143 8.9202C11.3617 9.45916 12.923 10.9474 13.6423 13.3022C13.8268 13.9064 13.9272 14.5362 13.8107 15.178C13.7594 15.4609 13.6117 15.6667 13.3657 15.8049C12.6994 16.1792 11.9225 15.7995 11.8198 15.0476C11.778 14.741 11.7738 14.4282 11.7149 14.1254C11.3837 12.4241 9.97951 11.1309 8.20322 10.8765C6.52439 10.6361 4.77813 11.523 4.00513 13.0385C3.56268 13.906 3.40892 14.8218 3.68177 15.7803C3.75031 16.0211 3.80688 16.2651 3.87533 16.5059C3.98554 16.8936 3.91625 17.2301 3.62015 17.5203C3.41949 17.7171 3.22138 17.9193 3.04638 18.1382C2.11426 19.3042 1.77426 20.6114 2.29145 22.0306C2.83408 23.5195 3.87779 24.4971 5.51039 24.7535C5.83224 24.8041 6.16372 24.8141 6.47682 24.8955C6.96653 25.0229 7.27932 25.4693 7.23755 25.9093C7.18459 26.4673 6.82352 26.8259 6.25827 26.871C6.081 26.8851 5.90073 26.8923 5.72399 26.8775C4.69929 26.7917 3.74937 26.4803 2.87986 25.9326C2.74778 25.8494 2.61173 25.7723 2.45779 25.6806C2.39675 25.8071 2.35249 25.8819 2.32317 25.962C1.64446 27.8196 2.43544 29.9038 4.18294 30.8648C4.31274 30.9362 4.4487 30.9972 4.57516 31.0738C5.01257 31.3388 5.2113 31.7171 5.12666 32.23C5.08838 32.4621 5.04202 32.6952 5.03207 32.9292C4.93894 35.1242 6.25158 37.0125 8.38786 37.7198C8.83946 37.8694 9.1572 38.1079 9.39917 38.5147C10.3302 40.0801 11.752 40.8497 13.5605 40.9057C15.8694 40.9772 18.0905 39.0568 18.3475 36.7922C18.3972 36.3542 18.4201 35.9109 18.4204 35.47C18.4253 28.0105 18.4248 20.551 18.4253 13.0915C18.4253 12.9589 18.4283 12.826 18.4219 12.6936C18.3739 11.7073 17.6923 10.9755 16.7087 10.8513C16.5614 10.8327 16.411 10.8264 16.2674 10.7923C15.6605 10.6481 15.3313 10.0333 15.5424 9.45137C15.6994 9.01865 16.0682 8.77336 16.5868 8.77942C17.0814 8.78521 17.5601 8.88198 18.0197 9.06858C18.1363 9.1159 18.26 9.14602 18.4255 9.1983C18.4255 8.44691 18.426 7.75519 18.4253 7.06347C18.4244 6.04627 18.4371 5.02881 18.4174 4.01192C18.395 2.86261 17.6356 2.10203 16.477 2.08841C16.0525 2.08341 15.6136 2.14086 15.2045 2.25285C14.5763 2.42485 13.9644 2.65881 13.3531 2.88637C13.0802 2.988 12.8255 3.13798 12.5078 3.29273C12.6977 3.40498 12.8343 3.48804 12.9731 3.5673C13.7807 4.02851 14.4028 4.66959 14.8269 5.48962C15.0939 6.00593 14.9769 6.51221 14.5564 6.83998C14.22 7.10217 13.6826 7.15887 13.2329 6.76745Z" fill="#F5A3D4"/>
<path d="M22.037 16.2395C22.2917 15.6664 22.5288 15.1267 22.776 14.5915C23.413 13.2127 24.0379 11.8281 24.6982 10.4604C25.5843 8.62472 27.0868 7.74388 29.1271 7.76502C29.7898 7.77188 30.4082 7.98355 31.0084 8.25767C33.3284 9.31724 35.6526 10.368 37.974 11.4246C38.7163 11.7624 39.4659 12.0867 40.1929 12.4546C42.3938 13.5683 43.3291 16.0129 42.381 18.2705C41.8277 19.5879 41.1837 20.8679 40.5791 22.1642C40.5612 22.2024 40.5286 22.2338 40.4745 22.3065C40.3275 22.2108 40.1808 22.1196 40.0386 22.022C37.998 20.6214 35.9585 19.2192 33.9175 17.8192C33.5753 17.5845 33.2262 17.3597 32.8824 17.1274C30.3161 15.3928 26.6673 16.0595 24.8421 18.6241C24.0024 19.8038 23.1834 20.9979 22.3536 22.1845C22.2647 22.3115 22.1664 22.432 21.9982 22.5296C21.9982 22.4335 21.9983 22.3374 21.9982 22.2414C21.9965 20.3992 21.9941 18.557 21.9945 16.7148C21.9945 16.5681 22.0138 16.4215 22.037 16.2395Z" fill="#F5A3D4" fill-opacity="0.8"/>
<path d="M60.6012 13.5379C62.0859 14.6553 62.514 16.1446 62.2453 17.8692C62.1076 18.7529 61.5775 19.4289 60.9025 19.9974C60.7913 20.091 60.6758 20.1796 60.5412 20.2875C60.6959 20.3876 60.8311 20.4748 60.966 20.5625C62.2168 21.3752 62.8505 22.5214 62.8855 24.0049C62.9139 25.213 62.6365 26.316 61.8028 27.2328C61.0098 28.105 59.9783 28.5329 58.8358 28.7115C58.3538 28.7868 57.8598 28.812 57.371 28.8148C55.3933 28.826 53.4155 28.8199 51.4378 28.8194C51.3492 28.8193 51.2605 28.8115 51.1745 28.8074C51.0882 28.4952 51.0664 13.0877 51.153 12.5386C51.2476 12.5315 51.3479 12.5174 51.4482 12.5174C53.2921 12.5171 55.136 12.5151 56.9799 12.521C57.8333 12.5237 58.6707 12.6489 59.4652 12.964C59.8485 13.116 60.2061 13.3319 60.6012 13.5379ZM54.9758 25.9889C55.7033 25.9888 56.431 25.9972 57.1584 25.9842C57.438 25.9792 57.7232 25.9528 57.9947 25.8892C58.9294 25.6702 59.5185 24.993 59.577 24.1037C59.644 23.0862 59.1822 22.3576 58.2432 21.9948C57.7929 21.8208 57.3217 21.7746 56.8449 21.7712C56.1174 21.766 55.3898 21.7686 54.6623 21.7706C54.5465 21.7709 54.4307 21.7855 54.2993 21.7945C54.2993 23.1941 54.2993 24.5706 54.2993 25.9889C54.5081 25.9889 54.6976 25.9889 54.9758 25.9889ZM54.2783 17.6183C54.2783 18.1149 54.2783 18.6114 54.2783 19.0839C54.3499 19.1202 54.3755 19.1445 54.4011 19.1446C55.2622 19.147 56.1242 19.1693 56.984 19.1363C57.3157 19.1236 57.6564 19.0188 57.9682 18.8947C58.3962 18.7244 58.6949 18.3984 58.8694 17.9666C59.375 16.7152 58.7734 15.5119 57.4583 15.1843C57.1595 15.1098 56.8435 15.0826 56.5343 15.0745C55.8962 15.0579 55.2574 15.0687 54.619 15.0683C54.5197 15.0682 54.4205 15.0683 54.2783 15.0683C54.2783 15.919 54.2783 16.7244 54.2783 17.6183Z" fill="#F5A3D4"/>
<path d="M144.971 12.5131C145.445 12.5131 145.875 12.5131 146.328 12.5131C146.328 17.958 146.328 23.3728 146.328 28.8161C145.42 28.8161 144.53 28.8166 143.64 28.8152C143.569 28.8152 143.498 28.8024 143.407 28.7935C143.365 28.304 143.324 27.831 143.276 27.272C143.146 27.4345 143.076 27.5239 143.005 27.6116C142.251 28.5332 141.274 29.0192 140.08 29.0828C139.193 29.13 138.33 29.0324 137.511 28.67C136.231 28.1038 135.374 27.1311 134.903 25.8506C134.207 23.9583 134.191 22.0322 134.899 20.1435C135.525 18.4733 136.722 17.3809 138.516 17.0012C139.251 16.8456 139.992 16.8283 140.729 16.9791C141.602 17.1577 142.329 17.5904 142.911 18.26C142.994 18.3549 143.073 18.4526 143.233 18.5211C143.233 16.5287 143.233 14.5364 143.233 12.5131C143.83 12.5131 144.378 12.5131 144.971 12.5131ZM137.712 22.2057C137.539 23.2125 137.649 24.1693 138.218 25.0462C139.293 26.7043 141.915 26.7438 142.853 24.7859C143.412 23.6171 143.415 22.4152 142.874 21.2431C142.444 20.3121 141.682 19.7928 140.635 19.7453C139.605 19.6986 138.767 20.0833 138.22 20.9594C137.998 21.3146 137.887 21.7382 137.712 22.2057Z" fill="#262626"/>
<path d="M99.9475 23.3656C99.4349 21.4042 99.4313 19.4841 100.073 17.587C101.135 14.4468 103.934 12.3909 107.271 12.2431C109.474 12.1455 111.441 12.725 113.131 14.1484C113.934 14.8246 114.566 15.6371 115.02 16.5814C115.07 16.6849 115.11 16.7933 115.163 16.9212C114.173 17.2852 113.202 17.6422 112.203 18.0094C112.119 17.8675 112.039 17.7327 111.959 17.5974C111.258 16.409 110.252 15.5989 108.895 15.2814C106.62 14.7494 104.437 15.7872 103.474 17.9C102.636 19.7402 102.633 21.632 103.495 23.4614C104.645 25.9032 107.174 26.6325 109.271 25.975C110.458 25.6028 111.309 24.7978 111.938 23.7503C112.036 23.5865 112.123 23.4156 112.24 23.2016C113.221 23.553 114.202 23.904 115.179 24.2539C114.471 26.8828 111.2 29.0405 107.938 29.0978C103.699 29.1724 100.859 26.5025 99.9475 23.3656Z" fill="#262626"/>
<path d="M28.2841 0.557739C29.5272 0.737348 30.7327 0.902274 31.9358 1.08224C32.7276 1.20068 33.5262 1.29794 34.304 1.47927C36.6729 2.03163 38.0971 4.17646 37.7321 6.57379C37.5926 7.49006 37.4706 8.40894 37.3384 9.32636C37.3262 9.41092 37.2974 9.49314 37.2619 9.6333C37.0132 9.53064 36.7842 9.44458 36.5624 9.34316C34.917 8.59107 33.2723 7.8376 31.6289 7.081C30.7984 6.6986 29.9361 6.42297 29.0138 6.43699C26.574 6.4741 24.7398 7.54039 23.6019 9.69331C23.12 10.6051 22.7195 11.5591 22.2813 12.4936C22.219 12.6265 22.153 12.7577 22.0187 12.8906C22.012 12.7602 21.9995 12.6297 21.9994 12.4993C21.9984 9.00761 21.9981 5.5159 21.9988 2.02425C21.9991 0.825937 22.6499 0.12612 23.871 0.0763635C24.4315 0.0534977 24.9995 0.0989194 25.558 0.164686C26.4564 0.270568 27.3499 0.418996 28.2841 0.557739Z" fill="#F5A3D4" fill-opacity="0.6"/>
<path d="M81.6177 25.889C81.6175 26.8744 81.6175 27.8154 81.6175 28.7881C80.6248 28.7881 79.6814 28.7881 78.6722 28.7881C78.6722 28.4129 78.6722 28.0275 78.6722 27.584C78.5657 27.6557 78.5214 27.6704 78.5019 27.7008C77.9749 28.5198 77.1837 28.9247 76.2471 29.0441C75.2823 29.167 74.3182 29.1259 73.38 28.8266C71.7865 28.3182 70.9412 27.1765 70.9622 25.5209C70.967 25.141 71.008 24.7523 71.1011 24.3848C71.3401 23.441 71.9468 22.7804 72.819 22.3537C73.5366 22.0026 74.3032 21.8308 75.0977 21.8101C76.0637 21.7848 77.0305 21.7914 77.9969 21.7845C78.1427 21.7835 78.2884 21.7844 78.4307 21.7844C78.5276 20.7026 77.6894 19.6907 76.6556 19.6025C75.5177 19.5055 74.624 19.9192 73.9668 20.9048C73.0727 20.6012 72.1796 20.2981 71.253 19.9835C71.3049 19.8568 71.3373 19.749 71.3904 19.6525C72.2826 18.0316 73.65 17.1271 75.5091 16.9331C76.3622 16.8441 77.2066 16.8678 78.034 17.067C79.9852 17.5368 81.1263 18.7973 81.5082 20.7278C81.6188 21.2873 81.6508 21.8687 81.656 22.4406C81.6665 23.5751 81.6332 24.71 81.6177 25.889ZM75.0649 24.2867C74.9442 24.3422 74.8167 24.3866 74.7042 24.4553C74.3015 24.701 74.0999 25.0677 74.1424 25.5314C74.1834 25.9787 74.4834 26.2595 74.8964 26.3663C75.2644 26.4615 75.6548 26.5146 76.035 26.5128C77.1887 26.5074 78.2243 25.6883 78.5158 24.5845C78.5556 24.4337 78.5639 24.2747 78.591 24.0913C77.816 24.0913 77.089 24.0716 76.3638 24.099C75.9518 24.1145 75.5428 24.2071 75.0649 24.2867Z" fill="#F5A3D4"/>
<path d="M119.556 16.9626C120.562 16.8207 121.527 16.8411 122.472 17.0841C124.382 17.5747 125.482 18.8331 125.861 20.7215C125.965 21.238 126.009 21.7748 126.008 22.302C126.003 24.3949 125.969 26.4877 125.946 28.5805C125.945 28.6379 125.939 28.6952 125.934 28.7841C124.982 28.7841 124.038 28.7841 123.034 28.7841C123.034 28.4163 123.034 28.0292 123.034 27.5945C122.931 27.6445 122.882 27.652 122.865 27.6794C122.323 28.5322 121.5 28.9362 120.531 29.0488C119.596 29.1575 118.661 29.1147 117.752 28.8262C116.192 28.3316 115.364 27.2829 115.324 25.6683C115.312 25.204 115.375 24.7238 115.492 24.2736C115.725 23.3793 116.333 22.7679 117.154 22.3581C117.799 22.0358 118.49 21.8526 119.207 21.8247C120.247 21.7843 121.288 21.7907 122.329 21.7778C122.489 21.7759 122.648 21.7775 122.806 21.7775C122.803 20.4219 121.884 19.5316 120.592 19.5834C119.721 19.6183 119.017 19.9655 118.493 20.6595C118.448 20.7184 118.404 20.7779 118.359 20.8356C118.35 20.8461 118.333 20.8494 118.267 20.8824C117.414 20.5917 116.521 20.288 115.581 19.9679C116.005 19.1044 116.536 18.3813 117.305 17.8448C117.973 17.3798 118.712 17.0919 119.556 16.9626ZM118.49 25.5453C118.562 25.9672 118.827 26.2254 119.219 26.357C120.654 26.839 122.125 26.3032 122.757 24.9121C122.871 24.6598 122.971 24.3964 122.909 24.0965C122.105 24.0965 121.307 24.0798 120.51 24.1042C120.159 24.115 119.802 24.1796 119.462 24.2723C118.859 24.437 118.5 24.8274 118.49 25.5453Z" fill="#262626"/>
<path d="M98.8185 26.6851C98.8185 27.4048 98.8185 28.0804 98.8185 28.7855C97.7747 28.7855 96.7596 28.7855 95.7008 28.7855C95.7008 28.6207 95.7009 28.4626 95.7008 28.3045C95.7002 26.4478 95.7072 24.5909 95.6931 22.7343C95.69 22.3248 95.6432 21.9097 95.5623 21.5079C95.2766 20.0876 94.2449 19.6355 92.9888 19.8281C91.8748 19.9989 91.215 20.7718 91.0792 22.0096C91.0487 22.2872 91.045 22.5686 91.0445 22.8482C91.0416 24.6755 91.043 26.5028 91.043 28.3302C91.043 28.475 91.0429 28.6198 91.0429 28.7892C90.0025 28.7892 88.9987 28.7892 87.9631 28.7892C87.9631 24.9319 87.9631 21.0681 87.9631 17.1844C88.9206 17.1844 89.864 17.1844 90.8381 17.1844C90.887 17.6655 90.9338 18.1267 90.9888 18.6686C91.0987 18.5389 91.1621 18.4669 91.2224 18.3924C92.1685 17.2232 93.4208 16.793 94.8938 16.9024C95.1155 16.9189 95.3376 16.949 95.5556 16.9923C97.169 17.3136 98.1242 18.3198 98.5524 19.8564C98.7432 20.5411 98.814 21.2455 98.8161 21.9547C98.8207 23.5167 98.8181 25.0788 98.8185 26.6851Z" fill="#F5A3D4"/>
<path d="M154.518 28.7211C152.742 29.2971 151.03 29.2521 149.375 28.4386C148.402 27.9601 147.667 27.2316 147.217 26.2009C148.094 25.7997 148.953 25.4062 149.845 24.9983C149.944 25.1142 150.046 25.2347 150.149 25.3539C150.949 26.2771 151.957 26.5349 153.125 26.2519C153.28 26.2144 153.438 26.146 153.567 26.0542C153.959 25.7759 153.956 25.189 153.554 24.929C153.358 24.8029 153.129 24.7165 152.904 24.6505C152.364 24.4921 151.814 24.3647 151.272 24.2096C150.361 23.9487 149.548 23.5214 148.843 22.8745C147.227 21.3923 147.669 18.3263 149.779 17.3823C150.726 16.9587 151.719 16.8356 152.737 16.8928C153.713 16.9476 154.641 17.1952 155.477 17.7193C156.146 18.138 156.686 18.6654 156.967 19.4795C156.119 19.8665 155.279 20.2494 154.447 20.6286C153.809 19.7472 152.932 19.5373 151.951 19.6318C151.588 19.6668 151.269 19.8381 151.11 20.2054C150.939 20.5988 151.022 20.9049 151.398 21.1048C151.617 21.2218 151.859 21.3088 152.101 21.373C152.717 21.5368 153.343 21.6657 153.957 21.8346C155.654 22.301 156.694 23.377 156.96 25.122C157.137 26.2841 156.72 27.2481 155.81 27.9747C155.434 28.2745 154.973 28.4692 154.518 28.7211Z" fill="#262626"/>
<path d="M127.316 20.5816C127.316 19.4326 127.316 18.3278 127.316 17.2283C127.644 17.1384 129.789 17.1171 130.419 17.1976C130.419 17.8316 130.419 18.4716 130.419 19.1115C131.518 17.8263 132.877 17.1608 134.579 17.1175C134.579 18.1336 134.579 19.0999 134.579 20.0829C134.109 20.1321 133.647 20.1425 133.204 20.2372C132.715 20.3417 132.218 20.4724 131.768 20.6825C130.87 21.1016 130.414 21.8151 130.426 22.8323C130.448 24.6597 130.432 26.4876 130.432 28.3153C130.432 28.4616 130.432 28.608 130.432 28.7855C129.402 28.7855 128.385 28.7855 127.316 28.7855C127.316 26.0686 127.316 23.3473 127.316 20.5816Z" fill="#262626"/>
<path d="M67.4601 18.6753C68.4712 17.6375 69.6852 17.1592 71.1271 17.1235C71.1271 18.1287 71.1271 19.0943 71.1271 20.0864C70.6852 20.133 70.2461 20.1683 69.8104 20.228C69.2635 20.3029 68.7342 20.4467 68.2466 20.7123C67.4074 21.1694 66.9665 21.8473 66.977 22.8245C66.9969 24.6656 66.9827 26.5071 66.9827 28.3484C66.9826 28.4918 66.9827 28.6352 66.9827 28.7987C65.9362 28.7987 64.9311 28.7987 63.896 28.7987C63.896 24.9327 63.896 21.0695 63.896 17.183C64.9179 17.183 65.9215 17.183 66.9701 17.183C66.9701 17.8338 66.9701 18.4715 66.9701 19.1092C66.9961 19.1199 67.0221 19.1305 67.0481 19.1412C67.1782 18.9935 67.3083 18.8458 67.4601 18.6753Z" fill="#F5A3D4"/>
<path d="M83.9365 17.16C84.7068 17.16 85.4332 17.16 86.151 17.16C86.2491 17.4901 86.2778 28.1599 86.1868 28.7945C85.1868 28.7945 84.1826 28.7945 83.1464 28.7945C83.1464 24.938 83.1464 21.0751 83.1464 17.16C83.3958 17.16 83.6442 17.16 83.9365 17.16Z" fill="#F5A3D4"/>
<path d="M86.2352 12.6575C86.6206 13.3529 86.5073 14.3122 85.8074 14.8856C85.0821 15.48 84.0703 15.427 83.3899 14.7414C82.7293 14.0757 82.6948 13.0767 83.3085 12.3841C83.9657 11.6423 84.9962 11.5183 85.7418 12.1088C85.924 12.253 86.061 12.4533 86.2352 12.6575Z" fill="#F5A3D4"/>
<path d="M7.71276 16.685C8.46091 18.0351 9.60903 18.7442 11.1033 18.8563C12.2297 18.9408 13.2443 18.5937 14.0971 17.8354C14.1966 17.747 14.2862 17.646 14.3931 17.5676C14.7945 17.2729 15.3611 17.2873 15.7153 17.5934C16.0677 17.898 16.1635 18.4593 15.9113 18.8878C15.816 19.0496 15.678 19.1936 15.5364 19.3203C14.7261 20.0454 13.7911 20.5432 12.7207 20.7674C12.4072 20.8331 12.2455 20.9706 12.1729 21.2929C12.0447 21.8625 11.7339 22.3458 11.3518 22.7917C10.5862 23.6853 9.6756 24.3325 8.48049 24.5093C8.18854 24.5525 7.88798 24.575 7.59394 24.5594C7.02003 24.529 6.66878 24.1505 6.64754 23.5855C6.62742 23.0494 6.98492 22.618 7.52611 22.5349C7.77527 22.4966 8.03135 22.4924 8.27596 22.4367C9.16247 22.2347 9.75114 21.6888 10.1362 20.8327C9.95318 20.7765 9.81745 20.7294 9.6789 20.693C7.11976 20.0204 5.21961 17.6367 5.17186 15.0216C5.16767 14.7911 5.19453 14.543 5.27949 14.3317C5.43584 13.943 5.92081 13.7138 6.34859 13.7734C6.76927 13.8319 7.11516 14.149 7.20065 14.5668C7.23006 14.7105 7.24501 14.8587 7.25116 15.0054C7.27566 15.5891 7.42643 16.138 7.71276 16.685Z" fill="#F5A3D4"/>
<path d="M12.5364 31.9042C13.689 32.8678 14.4513 34.0348 14.7173 35.4858C14.7937 35.9029 14.7799 36.3358 14.8181 36.7604C14.866 37.2939 14.3124 37.6851 13.8958 37.719C13.3906 37.7602 12.9153 37.425 12.8097 36.9269C12.7642 36.7118 12.7587 36.4882 12.7368 36.2683C12.5526 34.4183 11.1284 32.9415 9.28181 32.6893C9.04652 32.6572 8.80946 32.638 8.57355 32.61C8.00732 32.5426 7.62627 32.1196 7.62917 31.5641C7.63193 31.0212 8.03646 30.6115 8.61308 30.5676C9.10471 30.5302 9.10471 30.5302 9.14844 30.0651C9.38617 27.5359 11.6195 25.1929 14.1548 24.8249C14.521 24.7718 14.8938 24.7448 15.2639 24.741C15.8674 24.7347 16.3011 25.1392 16.3289 25.7C16.3564 26.2548 15.9068 26.7154 15.3074 26.7744C14.9101 26.8135 14.5043 26.8433 14.1227 26.9493C12.4475 27.4146 11.2584 28.9327 11.1687 30.65C11.1525 30.9608 11.2568 31.1326 11.5335 31.2741C11.8746 31.4484 12.1866 31.6789 12.5364 31.9042Z" fill="#F5A3D4"/>
</g>
<defs>
<clipPath id="clip0_6_32">
<rect width="157" height="43" fill="white"/>
</clipPath>
</defs>
</svg>
