<?xml version="1.0" encoding="utf-8"?>
<svg viewBox="29.044 -559.101 1080.884 1034.898" xmlns="http://www.w3.org/2000/svg">
  <path fill="#FF9EA3" opacity="1.000000" stroke="none" d="M 681.54 -91.706 C 697.105 -104.117 714.376 -111.312 733.849 -113.783 C 761.307 -117.268 785.7 -109.908 808.064 -94.315 C 836.115 -74.756 864.204 -55.252 892.282 -35.731 C 926.355 -12.042 960.674 11.302 994.427 35.44 C 1018.137 52.396 1031.64 75.966 1035.618 104.951 C 1039.529 133.442 1031.657 158.648 1015.295 181.856 C 994.444 211.433 973.989 241.289 953.382 271.037 C 909.996 333.671 866.613 396.307 823.277 458.975 C 821.62 461.371 819.847 462.426 816.787 462.422 C 747.3 462.324 677.813 462.373 608.327 462.328 C 590.612 462.317 574.58 446.14 574.576 428.351 C 574.555 305.374 574.552 182.398 574.659 59.421 C 574.661 56.966 575.505 54.128 576.893 52.115 C 605.072 11.256 633.221 -29.627 661.824 -70.19 C 667.323 -77.988 674.712 -84.454 681.54 -91.706 Z" transform="matrix(1, 0, 0, 1, 2.2737367544323206e-13, 0)"/>
  <path fill="#FF9EA3" opacity="1.000000" stroke="none" d="M 540.565 186.346 C 540.564 202.344 540.821 217.847 540.495 233.337 C 540.131 250.583 539.671 267.848 538.477 285.05 C 536.555 312.731 532.809 340.129 524.728 366.845 C 518.18 388.492 506.396 406.358 489.456 421.276 C 476.218 432.934 461.838 442.529 445.608 449.371 C 422.368 459.168 398.003 463.505 373.029 461.087 C 324.948 456.432 286.126 434.565 258.247 394.83 C 253.616 388.23 247.91 385.408 241.19 382.519 C 221.387 374.007 204.159 361.724 189.464 345.883 C 167.725 322.45 153.942 295.117 149.639 263.393 C 148.15 252.416 148.16 241.225 147.71 230.124 C 147.6 227.388 146.936 225.789 144.468 224.149 C 119.217 207.37 100.798 184.871 90.23 156.449 C 82.746 136.321 80.014 115.459 82.309 93.84 C 84.465 73.528 90.607 54.748 100.885 37.259 C 102.484 34.538 102.476 32.609 100.951 30.017 C 86.776 5.917 80.131 -20.167 81.653 -48.063 C 83.275 -77.777 93.191 -104.636 112.361 -127.511 C 117.498 -133.64 119.205 -139.182 117.41 -146.762 C 113.295 -164.141 114.009 -181.589 117.17 -199.112 C 120.684 -218.591 128.402 -236.186 139.68 -252.277 C 157.967 -278.369 182.479 -296.066 212.874 -305.482 C 216.828 -306.708 217.779 -308.082 216.789 -312.153 C 209.635 -341.555 214.253 -369.214 230.269 -394.794 C 239.494 -409.528 252.05 -420.895 266.988 -429.943 C 279.318 -437.411 291.087 -445.817 302.998 -453.962 C 329.735 -472.247 358.062 -487.496 388.728 -498.032 C 411.613 -505.894 435.214 -511.901 459.51 -509.367 C 485.468 -506.661 507.758 -496.445 520.696 -471.531 C 532.228 -449.325 539.144 -426.024 539.575 -400.912 C 539.875 -383.461 540.515 -366.011 540.522 -348.561 C 540.593 -170.425 540.565 7.711 540.565 186.346 M 264.095 -316.786 C 265.76 -314.748 267.077 -311.478 269.153 -310.89 C 276.767 -308.734 284.763 -307.931 292.382 -305.787 C 322.91 -297.199 347.099 -279.405 365.823 -254.024 C 378.982 -236.187 387.314 -216.194 390.352 -194.295 C 391.666 -184.828 392.807 -174.715 390.848 -165.578 C 388.567 -154.942 378.31 -148.797 366.77 -149.613 C 356.631 -150.33 348.314 -157.651 346.524 -168.383 C 345.383 -175.227 345.656 -182.32 344.364 -189.124 C 337.075 -227.53 306.459 -258.354 267.257 -263.773 C 242.453 -267.202 219.603 -262.413 199.339 -247.55 C 174.073 -229.017 161.206 -203.465 160.955 -172.467 C 160.864 -161.173 164.802 -149.732 167.715 -138.571 C 169.505 -131.712 171.002 -125.033 166.656 -119.052 C 162.602 -113.475 157.627 -108.54 152.845 -103.525 C 137.128 -87.041 129.6 -66.987 127.703 -44.728 C 126.496 -30.578 129.669 -16.722 135.612 -4.111 C 151.842 30.33 179.113 49.454 217.542 51.367 C 225.639 51.77 232.565 53.825 237.958 59.992 C 243.568 66.407 245.029 73.848 242.306 81.802 C 239.52 89.941 234.324 95.907 225.308 97.392 C 209.646 99.971 194.696 96.194 179.846 91.988 C 165.491 87.923 152.442 81.085 140.238 72.585 C 137.449 70.643 135.685 70.583 134.335 74.356 C 128.604 90.373 125.899 106.418 129.395 123.563 C 135.784 154.892 152.611 177.796 181.562 191.471 C 192.557 196.664 198.839 207.32 196.298 218.549 C 192.833 233.862 192.911 249.136 196.787 264.269 C 206.087 300.582 227.74 326.464 262.598 340.858 C 267.95 343.068 273.681 344.385 278.962 346.734 C 287.166 350.384 290.026 358.802 294.573 365.625 C 315.658 397.267 345.706 413.264 383.128 415.144 C 401.23 416.053 418.68 411.514 434.874 403.068 C 458.26 390.87 474.987 372.558 485.769 348.432 C 493.388 331.386 494.409 313.379 494.444 295.333 C 494.65 189.516 494.512 83.699 494.499 -22.119 C 494.491 -88.109 494.508 -154.099 494.489 -220.089 C 494.485 -234.326 489.371 -246.339 478.476 -255.671 C 469.522 -263.341 458.508 -264.746 447.349 -265.651 C 438.766 -266.346 429.296 -276.348 428.518 -284.917 C 427.029 -301.331 438.473 -312.331 454.48 -311.588 C 466.537 -311.028 478.104 -308.304 489.115 -303.332 C 493.981 -301.135 494.431 -301.363 494.436 -306.709 C 494.467 -342.37 494.513 -378.031 494.456 -413.692 C 494.448 -418.496 494.36 -423.386 493.495 -428.087 C 490.293 -445.49 477.479 -459.292 460.094 -462.282 C 447.35 -464.474 434.085 -463.163 421.575 -459.341 C 407.803 -455.133 394.231 -450.199 380.776 -445.048 C 374.442 -442.623 368.586 -438.952 361.791 -435.476 C 364.026 -434 365.054 -433.156 366.215 -432.58 C 385.68 -422.919 400.711 -408.553 411.698 -389.867 C 416.844 -381.113 419.508 -371.78 413.952 -362.572 C 403.845 -345.819 382.088 -346.761 372.795 -363.984 C 356.787 -393.65 329.788 -401.444 303.537 -394.928 C 271.478 -386.97 250.759 -350.37 264.095 -316.786 Z" transform="matrix(1, 0, 0, 1, 2.2737367544323206e-13, 0)"/>
  <path opacity="1.000000" stroke="none" d="M 656.839 -305.388 C 674.1 -321.163 693.62 -331.033 716.801 -333.847 C 736.548 -336.244 755.127 -333.061 773.004 -324.873 C 821.661 -302.588 870.285 -280.231 918.916 -257.889 C 940.061 -248.174 961.494 -239.027 982.256 -228.551 C 1012.23 -213.429 1030.745 -189.023 1037.592 -155.961 C 1042.32 -133.133 1038.578 -111.462 1028.943 -90.559 C 1016.489 -63.54 1004.015 -36.53 991.534 -9.523 C 990.845 -8.033 990.014 -6.61 989.15 -4.968 C 970.5 -17.835 952.034 -30.517 933.629 -43.288 C 910.033 -59.66 886.535 -76.173 862.904 -92.493 C 846.241 -104 829.702 -115.721 812.601 -126.547 C 796.392 -136.809 778.304 -141.85 759.138 -143.802 C 727.359 -147.039 698.611 -139.046 672.138 -121.866 C 657.895 -112.623 646.259 -100.632 636.621 -86.682 C 617.183 -58.547 597.751 -30.408 578.298 -2.283 C 577.378 -0.952 576.289 0.263 574.565 2.429 C 574.565 -0.292 574.565 -2.023 574.565 -3.754 C 574.565 -47.585 574.761 -91.419 574.374 -135.248 C 574.309 -142.625 577.386 -148.441 580.163 -154.511 C 598.693 -195.019 617.474 -235.412 636.104 -275.874 C 641.174 -286.887 648.334 -296.382 656.839 -305.388 Z" style="fill: rgb(255, 158, 163); fill-opacity: 0.8;" transform="matrix(1, 0, 0, 1, 2.2737367544323206e-13, 0)"/>
  <path opacity="1.000000" stroke="none" d="M 683.991 -501.996 C 699.832 -499.719 715.258 -497.638 730.665 -495.426 C 745.901 -493.239 761.128 -490.982 776.341 -488.645 C 801.858 -484.726 827.884 -482.737 852.75 -476.29 C 893.165 -465.812 917.235 -437.928 926.558 -397.321 C 930.008 -382.294 928.394 -367.355 926.019 -352.358 C 923.3 -335.192 921.033 -317.954 918.556 -300.749 C 918.156 -297.971 917.684 -295.202 917.137 -291.748 C 913.233 -293.415 909.486 -294.905 905.83 -296.592 C 874.284 -311.145 842.825 -325.889 811.191 -340.247 C 794.28 -347.922 777.857 -356.899 759.538 -361.106 C 730.451 -367.786 702.267 -365.062 675.009 -352.879 C 641.825 -338.047 619.198 -313.243 605.026 -279.995 C 596.948 -261.041 587.82 -242.534 579.164 -223.826 C 577.912 -221.121 576.651 -218.42 574.948 -214.755 C 574.769 -216.769 574.578 -217.92 574.578 -219.072 C 574.553 -302.888 574.527 -386.704 574.545 -470.521 C 574.549 -487.527 588.049 -503.295 604.623 -506.769 C 621.54 -510.316 638.283 -508.687 655.074 -506.305 C 664.578 -504.957 674.071 -503.527 683.991 -501.996 Z" style="fill: rgb(255, 158, 163); fill-opacity: 0.6;" transform="matrix(1, 0, 0, 1, 2.2737367544323206e-13, 0)"/>
  <path fill="#FF9EA3" opacity="1.000000" stroke="none" d="M 317.934 23.738 C 303.404 35.296 286.994 41.838 269.238 44.797 C 262.515 45.918 255.303 46.302 248.643 45.137 C 235.917 42.912 229.391 32.673 230.541 18.979 C 231.4 8.749 241.564 -0.274 252.96 -0.638 C 277.783 -1.433 295.738 -12.907 307.159 -34.907 C 308.883 -38.227 308.169 -39.905 304.67 -40.585 C 287.302 -43.957 271.552 -51.234 257.134 -61.214 C 238.241 -74.291 223.333 -91.203 212.756 -111.567 C 201.86 -132.548 196.226 -154.951 197.581 -178.785 C 198.288 -191.227 212.533 -201.248 225.056 -198.3 C 235.784 -195.774 243.295 -187.227 243.481 -176.395 C 243.73 -161.903 246.527 -148.051 252.964 -135.075 C 264.62 -111.579 282.992 -95.681 307.978 -87.639 C 326.709 -81.611 345.514 -81.885 364.294 -87.635 C 378.586 -92.011 391.075 -99.743 401.255 -110.341 C 409.47 -118.894 425.513 -120.889 435.134 -110.756 C 444.536 -100.854 442.578 -85.313 433.381 -76.491 C 412.555 -56.515 388.196 -44.155 360.116 -38.785 C 356.336 -38.063 356.22 -35.401 355.679 -33.107 C 352.897 -21.305 348.136 -10.237 340.865 -0.753 C 334.164 7.989 325.835 15.483 317.934 23.738 Z" transform="matrix(1, 0, 0, 1, 2.2737367544323206e-13, 0)"/>
  <path fill="#FF9EA3" opacity="1.000000" stroke="none" d="M 367.628 316.364 C 366.152 277.289 339.878 242.751 302.461 231.9 C 293.338 229.254 283.621 228.168 274.099 227.516 C 261.777 226.673 252.379 216.91 252.423 203.594 C 252.462 191.753 262.486 181.475 274.18 181.286 C 285.692 181.1 285.625 181.094 286.515 170.514 C 287.985 153.03 293.807 136.884 302.09 121.583 C 313.208 101.044 328.541 84.247 348.108 71.51 C 365.587 60.132 384.664 52.72 405.494 50.385 C 411.909 49.666 418.404 49.452 424.866 49.394 C 437.358 49.281 447.508 59.721 447.503 72.379 C 447.499 84.448 436.722 95.261 424.61 95.35 C 384.815 95.641 352.813 118.433 338.054 154.039 C 333.751 164.42 331.805 175.615 331.472 187.019 C 331.346 191.353 332.861 193.697 336.691 195.487 C 351.31 202.316 364.111 211.734 375.236 223.417 C 395.255 244.443 408.069 269.181 412.368 297.926 C 413.734 307.058 413.554 316.485 413.379 325.763 C 413.258 332.185 404.079 340.646 397.074 342.311 C 381.012 346.128 366.691 334.502 367.628 316.364 Z" transform="matrix(1, 0, 0, 1, 2.2737367544323206e-13, 0)"/>
</svg>