<svg width="225" height="215" viewBox="0 0 225 215" fill="none" xmlns="http://www.w3.org/2000/svg">
<path d="M135.825 97.1012C139.066 94.5228 142.661 93.0281 146.714 92.5147C152.43 91.7907 157.508 93.3197 162.163 96.5592C168.002 100.623 173.849 104.675 179.694 108.73C186.787 113.651 193.931 118.501 200.957 123.516C205.893 127.038 208.703 131.935 209.531 137.957C210.346 143.876 208.707 149.112 205.301 153.934C200.961 160.078 196.703 166.281 192.413 172.461C183.382 185.473 174.351 198.486 165.33 211.505C164.985 212.003 164.616 212.222 163.979 212.221C149.514 212.201 135.05 212.211 120.585 212.202C116.898 212.199 113.56 208.839 113.56 205.143C113.555 179.595 113.555 154.046 113.577 128.498C113.577 127.988 113.753 127.398 114.042 126.98C119.908 118.492 125.767 109.998 131.721 101.571C132.866 99.9511 134.404 98.6078 135.825 97.1012Z" fill="#F5A3D4"/>
<path d="M106.48 154.867C106.48 158.19 106.533 161.411 106.465 164.629C106.389 168.212 106.294 171.799 106.045 175.372C105.645 181.123 104.865 186.815 103.183 192.365C101.82 196.862 99.367 200.574 95.8407 203.673C93.0851 206.095 90.0917 208.089 86.7132 209.51C81.8755 211.545 76.8036 212.446 71.6049 211.944C61.5963 210.977 53.515 206.434 47.7116 198.179C46.7476 196.808 45.5598 196.222 44.1609 195.622C40.0387 193.853 36.4525 191.301 33.3935 188.01C28.8683 183.142 25.9991 177.464 25.1034 170.873C24.7935 168.593 24.7955 166.268 24.7019 163.962C24.679 163.393 24.5408 163.061 24.027 162.72C18.7707 159.234 14.9365 154.56 12.7367 148.656C11.1788 144.474 10.6101 140.14 11.0878 135.649C11.5366 131.429 12.8151 127.527 14.9546 123.894C15.2875 123.329 15.2858 122.928 14.9684 122.389C12.0177 117.383 10.6344 111.964 10.9513 106.168C11.2889 99.9951 13.353 94.4152 17.3435 89.6629C18.4129 88.3896 18.7682 87.2382 18.3945 85.6635C17.5379 82.053 17.6866 78.4282 18.3446 74.7878C19.0761 70.741 20.6827 67.0857 23.0303 63.7428C26.837 58.3222 31.9395 54.6456 38.2666 52.6894C39.0897 52.4347 39.2876 52.1493 39.0816 51.3035C37.5924 45.1953 38.5537 39.4491 41.8876 34.1349C43.8079 31.0739 46.4216 28.7124 49.5311 26.8327C52.0978 25.2812 54.5476 23.5348 57.0271 21.8427C62.5927 18.044 68.4894 14.876 74.8729 12.6872C79.6367 11.0538 84.5496 9.80589 89.6071 10.3323C95.0106 10.8945 99.6505 13.0169 102.344 18.1928C104.744 22.8061 106.184 27.6468 106.274 32.8639C106.336 36.4893 106.469 40.1145 106.471 43.7398C106.486 80.7475 106.48 117.755 106.48 154.867ZM48.9289 50.341C49.2755 50.7644 49.5497 51.4438 49.9818 51.5659C51.5668 52.0138 53.2312 52.1806 54.8172 52.6261C61.172 54.4102 66.2073 58.1069 70.1049 63.3798C72.8441 67.0855 74.5785 71.239 75.2109 75.7885C75.4845 77.7553 75.722 79.8563 75.3142 81.7545C74.8394 83.9641 72.7042 85.2407 70.302 85.0712C68.1915 84.9222 66.4602 83.4013 66.0876 81.1717C65.8501 79.7499 65.9069 78.2763 65.6379 76.8628C64.1206 68.884 57.7475 62.4803 49.5871 61.3545C44.4238 60.6421 39.6673 61.637 35.4491 64.7248C30.1897 68.575 27.5112 73.8835 27.459 80.3233C27.44 82.6696 28.2598 85.0465 28.8662 87.3652C29.2388 88.7901 29.5504 90.1777 28.6457 91.4202C27.8018 92.5789 26.7662 93.6041 25.7708 94.646C22.4991 98.0705 20.932 102.237 20.5372 106.861C20.2859 109.801 20.9464 112.679 22.1835 115.299C25.562 122.454 31.2388 126.427 39.2383 126.825C40.9238 126.909 42.3655 127.335 43.4882 128.617C44.656 129.949 44.9601 131.495 44.3933 133.148C43.8133 134.839 42.7317 136.078 40.8549 136.386C37.5946 136.922 34.4826 136.138 31.3914 135.264C28.4032 134.419 25.6869 132.999 23.1465 131.233C22.5659 130.829 22.1987 130.817 21.9177 131.601C20.7247 134.928 20.1616 138.262 20.8894 141.823C22.2193 148.332 25.7221 153.09 31.7486 155.931C34.0374 157.01 35.345 159.224 34.8161 161.557C34.0948 164.738 34.111 167.911 34.9179 171.055C36.8538 178.599 41.3611 183.976 48.6173 186.967C49.7314 187.426 50.9244 187.699 52.0237 188.187C53.7314 188.946 54.3268 190.694 55.2733 192.112C59.6624 198.685 65.9173 202.009 73.7072 202.399C77.4753 202.588 81.1078 201.645 84.4788 199.891C89.3469 197.357 92.8288 193.552 95.0732 188.54C96.6592 184.999 96.8718 181.258 96.879 177.509C96.9219 155.525 96.8932 133.542 96.8905 111.558C96.8888 97.8487 96.8924 84.1392 96.8884 70.4298C96.8876 67.4721 95.823 64.9764 93.5551 63.0377C91.6912 61.4442 89.3985 61.1523 87.0756 60.9643C85.2889 60.8199 83.3176 58.742 83.1557 56.9618C82.8457 53.5518 85.228 51.2665 88.56 51.4209C91.0698 51.5372 93.4777 52.1032 95.7697 53.1361C96.7827 53.5925 96.8763 53.5451 96.8774 52.4345C96.8838 45.0259 96.8934 37.6174 96.8815 30.2088C96.8799 29.2108 96.8616 28.1949 96.6815 27.2182C96.015 23.6028 93.3476 20.7354 89.7286 20.1142C87.0758 19.6588 84.3145 19.9312 81.7104 20.7252C78.8436 21.5994 76.0184 22.6245 73.2176 23.6946C71.8991 24.1984 70.6801 24.961 69.2656 25.6832C69.7308 25.9898 69.9448 26.1652 70.1865 26.2848C74.2384 28.2919 77.3673 31.2764 79.6544 35.1584C80.7256 36.9771 81.2801 38.916 80.1236 40.829C78.0197 44.3094 73.4907 44.1137 71.5562 40.5356C68.224 34.3725 62.6038 32.7533 57.1393 34.107C50.4658 35.7603 46.1529 43.3639 48.9289 50.341Z" fill="#F5A3D4"/>
<path d="M130.684 52.7088C134.277 49.4315 138.34 47.381 143.166 46.7964C147.276 46.2984 151.144 46.9597 154.865 48.6608C164.993 53.2905 175.115 57.9351 185.238 62.5767C189.64 64.595 194.102 66.4953 198.423 68.6716C204.663 71.8132 208.517 76.8836 209.942 83.7522C210.926 88.4947 210.148 92.9969 208.142 97.3395C205.549 102.953 202.953 108.564 200.355 114.175C200.211 114.484 200.038 114.78 199.858 115.121C195.976 112.448 192.132 109.813 188.301 107.16C183.389 103.759 178.498 100.328 173.579 96.9377C170.11 94.5471 166.667 92.1121 163.108 89.863C159.733 87.731 155.968 86.6838 151.978 86.2782C145.363 85.6058 139.379 87.2663 133.868 90.8354C130.903 92.7557 128.481 95.2468 126.475 98.1449C122.429 103.99 118.384 109.836 114.334 115.679C114.143 115.955 113.916 116.208 113.557 116.658C113.557 116.092 113.557 115.733 113.557 115.373C113.557 106.267 113.598 97.1608 113.517 88.0553C113.504 86.5228 114.144 85.3145 114.723 84.0534C118.58 75.6379 122.489 67.2463 126.367 58.8403C127.423 56.5523 128.913 54.5798 130.684 52.7088Z" fill="#F5A3D4" fill-opacity="0.8"/>
<path d="M136.336 11.8634C139.633 12.3365 142.844 12.7688 146.051 13.2284C149.223 13.6827 152.393 14.1516 155.56 14.6371C160.871 15.4513 166.289 15.8645 171.465 17.2039C179.878 19.3807 184.888 25.1736 186.829 33.6097C187.547 36.7315 187.211 39.8351 186.717 42.9507C186.151 46.517 185.679 50.0982 185.163 53.6725C185.08 54.2496 184.982 54.8249 184.868 55.5425C184.055 55.1961 183.275 54.8866 182.514 54.5361C175.948 51.5127 169.399 48.4497 162.814 45.4668C159.294 43.8723 155.875 42.0073 152.062 41.1333C146.007 39.7456 140.14 40.3115 134.466 42.8425C127.558 45.9238 122.848 51.0769 119.898 57.9842C118.217 61.9218 116.316 65.7667 114.515 69.6533C114.254 70.2152 113.991 70.7764 113.637 71.5378C113.6 71.1193 113.56 70.8802 113.56 70.6409C113.555 53.2281 113.549 35.8154 113.553 18.4024C113.554 14.8694 116.364 11.5936 119.814 10.8719C123.336 10.135 126.821 10.4734 130.316 10.9683C132.295 11.2483 134.271 11.5454 136.336 11.8634Z" fill="#F5A3D4" fill-opacity="0.6"/>
<path d="M60.1362 121.085C57.1116 123.486 53.6956 124.845 49.9995 125.46C48.6 125.693 47.0987 125.773 45.7124 125.531C43.0633 125.068 41.7048 122.941 41.9442 120.096C42.123 117.971 44.2388 116.096 46.611 116.021C51.7782 115.856 55.5158 113.472 57.8932 108.901C58.2521 108.212 58.1035 107.863 57.3751 107.722C53.7597 107.021 50.4812 105.509 47.4799 103.436C43.5471 100.719 40.4438 97.2059 38.242 92.9753C35.9739 88.6165 34.8011 83.9623 35.0832 79.0107C35.2303 76.4259 38.1956 74.3441 40.8024 74.9565C43.0356 75.4813 44.5991 77.2569 44.6378 79.5073C44.6897 82.518 45.2719 85.3957 46.6118 88.0915C49.0382 92.9728 52.8626 96.2756 58.0637 97.9463C61.9628 99.1986 65.8773 99.1417 69.7866 97.9472C72.7617 97.038 75.3614 95.4317 77.4805 93.23C79.1906 91.4531 82.5302 91.0386 84.5329 93.1438C86.49 95.2009 86.0825 98.4296 84.168 100.262C79.8328 104.412 74.7621 106.98 68.9169 108.096C68.1301 108.246 68.1059 108.799 67.9933 109.275C67.4142 111.727 66.4231 114.027 64.9096 115.997C63.5147 117.813 61.7809 119.37 60.1362 121.085Z" fill="#F5A3D4"/>
<path d="M70.4806 181.878C70.1734 173.76 64.7041 166.585 56.9153 164.33C55.0162 163.781 52.9935 163.555 51.0114 163.42C48.4464 163.244 46.4901 161.216 46.4992 158.45C46.5074 155.99 48.594 153.855 51.0282 153.815C53.4246 153.777 53.4107 153.775 53.5959 151.577C53.9019 147.945 55.1139 144.591 56.8381 141.412C59.1524 137.145 62.3442 133.655 66.4173 131.009C70.0558 128.646 74.0269 127.106 78.3629 126.621C79.6983 126.471 81.0503 126.427 82.3955 126.415C84.9959 126.391 87.1087 128.56 87.1077 131.19C87.1068 133.697 84.8635 135.944 82.3422 135.962C74.0583 136.023 67.3967 140.758 64.3244 148.155C63.4287 150.311 63.0236 152.637 62.9543 155.006C62.9281 155.907 63.2435 156.394 64.0407 156.766C67.0838 158.184 69.7485 160.141 72.0644 162.568C76.2316 166.936 78.899 172.075 79.7939 178.047C80.0782 179.944 80.0407 181.903 80.0043 183.83C79.9791 185.165 78.0684 186.922 76.6102 187.268C73.2667 188.061 70.2856 185.646 70.4806 181.878Z" fill="#F5A3D4"/>
</svg>
