<?xml version="1.0" encoding="utf-8"?>
<svg viewBox="-1101.4606 -254.5159 3518.5885 972.2378" xmlns="http://www.w3.org/2000/svg">
  <path opacity="1.000000" stroke="none" d="M -171.15 442.099 C -232.662 530.845 -293.826 618.954 -354.678 707.278 C -359.73 714.61 -364.924 717.785 -374.104 717.721 C -438.752 717.269 -503.404 717.47 -568.054 717.352 C -573.344 717.342 -578.861 717.328 -583.877 715.914 C -597.865 711.971 -607.754 698.65 -608.415 683.985 C -608.535 681.324 -608.468 678.653 -608.467 675.988 C -608.455 558.35 -608.378 440.712 -608.556 323.074 C -608.569 314.677 -606.624 307.716 -601.759 300.809 C -575.291 263.229 -549.259 225.342 -522.906 187.679 C -505.31 162.53 -482.014 146.198 -451.011 141.834 C -423.955 138.024 -399.461 144.511 -377.084 159.641 C -362.185 169.715 -347.514 180.125 -332.753 190.403 C -284.918 223.708 -237.035 256.946 -189.279 290.365 C -165.965 306.679 -152.616 329.187 -147.948 357.262 C -143.951 381.295 -148.255 403.625 -159.993 424.679 C -163.228 430.482 -167.126 435.916 -171.15 442.099 Z" style="fill: rgb(254, 159, 165);" transform="matrix(1.0000000000000002, 0, 0, 1, 0, 0)"/>
  <path fill="#FC9DA3" opacity="1.000000" stroke="none" d="M -1086.553 300.845 C -1085.475 298.688 -1084.858 297.094 -1083.87 295.777 C -1080.429 291.186 -1080.947 287.042 -1083.764 282.078 C -1094.097 263.865 -1100.047 244.279 -1101.138 223.242 C -1102.876 189.73 -1094.856 159.034 -1074.034 132.467 C -1066.947 123.425 -1064.258 115.044 -1066.295 103.223 C -1077.314 39.281 -1039.696 -24.37 -978.411 -47.178 C -974.679 -48.567 -970.937 -49.927 -966.231 -51.656 C -966.518 -54.855 -966.571 -58.086 -967.125 -61.229 C -974.791 -104.672 -961.581 -140.821 -926.406 -166.962 C -900.809 -185.986 -873.41 -202.731 -845.994 -219.12 C -818.994 -235.261 -789.631 -246.212 -758.632 -252.193 C -739.719 -255.842 -720.887 -255.373 -702.348 -249.492 C -684.293 -243.765 -670.956 -232.569 -662.114 -215.797 C -649.601 -192.062 -643.196 -166.813 -643.06 -140.019 C -642.764 -82.026 -642.44 -24.032 -642.398 33.962 C -642.293 179.618 -642.332 325.274 -642.327 470.93 C -642.326 506.605 -642.969 542.283 -648.587 577.585 C -651.09 593.315 -654.681 608.956 -659.011 624.289 C -663.882 641.533 -673.392 656.422 -685.914 669.314 C -752.713 738.089 -863.036 731.55 -920.85 655.132 C -927.115 646.852 -934.535 641.175 -943.812 636.715 C -994.958 612.127 -1025.596 571.999 -1033.737 515.472 C -1034.871 507.599 -1034.779 499.507 -1034.733 491.519 C -1034.695 484.979 -1036.824 480.485 -1042.459 476.531 C -1073.688 454.616 -1092.766 424.586 -1099.318 387.064 C -1104.507 357.349 -1100.278 328.692 -1086.553 300.845 M -804.894 -101.504 C -808.09 -106.156 -811.291 -110.804 -814.48 -115.46 C -830.588 -138.975 -857.893 -147.508 -885.007 -137.498 C -909.896 -128.31 -925.34 -102.746 -922.41 -75.585 C -920.68 -59.538 -917.324 -56.351 -901.519 -52.83 C -846.828 -40.644 -811.839 -6.995 -795.718 46.249 C -791.582 59.909 -789.332 74.149 -791.943 88.661 C -793.093 95.056 -796.403 99.709 -801.917 102.834 C -816.849 111.297 -834.261 102.712 -836.562 85.711 C -837.5 78.78 -837.593 71.706 -838.914 64.86 C -846.335 26.393 -877.806 -2.845 -917.615 -8.597 C -955.24 -14.033 -994.376 6.019 -1011.7 40.285 C -1021.616 59.899 -1025.062 80.607 -1018.947 102.278 C -1017.411 107.722 -1016.143 113.24 -1014.609 118.684 C -1012.139 127.451 -1013.692 135.059 -1020.328 141.621 C -1024.825 146.069 -1029.265 150.642 -1033.187 155.591 C -1054.077 181.955 -1061.697 211.511 -1050.106 243.598 C -1037.945 277.263 -1014.554 299.366 -977.965 305.165 C -970.752 306.308 -963.323 306.534 -956.306 308.375 C -945.331 311.255 -938.321 321.349 -939.257 331.296 C -940.444 343.913 -948.536 352.022 -961.204 353.04 C -965.177 353.359 -969.217 353.522 -973.178 353.187 C -996.143 351.248 -1017.432 344.206 -1036.919 331.823 C -1039.879 329.942 -1042.928 328.199 -1046.378 326.126 C -1047.746 328.987 -1048.738 330.677 -1049.395 332.488 C -1064.606 374.49 -1046.879 421.613 -1007.715 443.341 C -1004.806 444.955 -1001.759 446.336 -998.925 448.068 C -989.122 454.059 -984.668 462.613 -986.565 474.208 C -987.423 479.456 -988.462 484.727 -988.685 490.019 C -990.772 539.648 -961.354 582.341 -913.477 598.335 C -903.356 601.717 -896.235 607.11 -890.812 616.308 C -869.947 651.7 -838.081 669.102 -797.55 670.368 C -745.806 671.985 -696.028 628.565 -690.267 577.361 C -689.153 567.458 -688.64 557.435 -688.634 547.466 C -688.523 378.806 -688.535 210.145 -688.523 41.485 C -688.523 38.485 -688.456 35.48 -688.6 32.487 C -689.675 10.187 -704.952 -6.36 -726.995 -9.167 C -730.297 -9.587 -733.667 -9.731 -736.885 -10.502 C -750.487 -13.761 -757.865 -27.662 -753.134 -40.82 C -749.615 -50.604 -741.35 -56.15 -729.728 -56.013 C -718.643 -55.882 -707.915 -53.694 -697.614 -49.475 C -695.001 -48.405 -692.228 -47.724 -688.52 -46.542 C -688.52 -63.531 -688.508 -79.171 -688.523 -94.811 C -688.544 -117.81 -688.259 -140.815 -688.702 -163.807 C -689.203 -189.793 -706.223 -206.99 -732.188 -207.298 C -741.702 -207.411 -751.537 -206.112 -760.707 -203.58 C -774.786 -199.691 -788.499 -194.401 -802.198 -189.256 C -808.316 -186.958 -814.023 -183.567 -821.144 -180.068 C -816.887 -177.53 -813.826 -175.652 -810.716 -173.86 C -792.616 -163.432 -778.673 -148.937 -769.169 -130.396 C -763.185 -118.722 -765.808 -107.275 -775.232 -99.864 C -782.771 -93.936 -794.815 -92.654 -804.894 -101.504 Z" transform="matrix(1.0000000000000002, 0, 0, 1, 0, 0)"/>
  <path opacity="1.000000" stroke="none" d="M -607.581 112.662 C -601.874 99.705 -596.56 87.501 -591.02 75.401 C -576.744 44.227 -562.739 12.921 -547.941 -18.004 C -528.082 -59.509 -494.408 -79.425 -448.682 -78.947 C -433.829 -78.792 -419.97 -74.006 -406.519 -67.808 C -354.524 -43.851 -302.436 -20.094 -250.41 3.796 C -233.775 11.435 -216.976 18.768 -200.683 27.086 C -151.357 52.267 -130.395 107.54 -151.643 158.583 C -164.043 188.371 -178.478 217.312 -192.027 246.621 C -192.427 247.484 -193.158 248.194 -194.371 249.839 C -197.665 247.675 -200.953 245.612 -204.14 243.405 C -249.872 211.737 -295.581 180.035 -341.323 148.379 C -348.991 143.073 -356.815 137.991 -364.52 132.737 C -422.034 93.519 -503.809 108.593 -544.716 166.578 C -563.534 193.252 -581.889 220.25 -600.486 247.079 C -602.477 249.952 -604.682 252.675 -608.45 254.883 C -608.45 252.711 -608.449 250.538 -608.451 248.366 C -608.488 206.714 -608.542 165.061 -608.534 123.409 C -608.533 120.093 -608.101 116.778 -607.581 112.662 Z" style="fill: rgb(254, 159, 165); fill-opacity: 0.8;" transform="matrix(1.0000000000000002, 0, 0, 1, 0, 0)"/>
  <path fill="#FD9CA1" opacity="1.000000" stroke="none" d="M 256.698 51.579 C 289.972 76.842 299.566 110.517 293.543 149.51 C 290.457 169.491 278.578 184.775 263.449 197.628 C 260.958 199.745 258.37 201.748 255.352 204.188 C 258.819 206.451 261.849 208.423 264.873 210.406 C 292.905 228.782 307.107 254.697 307.891 288.239 C 308.529 315.554 302.311 340.493 283.627 361.223 C 265.854 380.944 242.738 390.618 217.132 394.656 C 206.329 396.359 195.258 396.929 184.303 396.992 C 139.981 397.246 95.656 397.107 51.332 397.095 C 49.346 397.094 47.359 396.916 45.431 396.824 C 43.497 389.766 43.009 41.398 44.951 28.983 C 47.07 28.823 49.318 28.505 51.565 28.504 C 92.89 28.498 134.214 28.453 175.538 28.587 C 194.665 28.648 213.433 31.478 231.238 38.602 C 239.829 42.039 247.842 46.921 256.698 51.579 M 130.624 333.098 C 146.929 333.095 163.238 333.285 179.539 332.992 C 185.806 332.879 192.198 332.281 198.283 330.843 C 219.23 325.892 232.433 310.581 233.744 290.473 C 235.244 267.466 224.895 250.994 203.852 242.79 C 193.76 238.855 183.198 237.812 172.514 237.734 C 156.21 237.616 139.903 237.676 123.598 237.721 C 121.002 237.728 118.407 238.057 115.464 238.261 C 115.464 269.906 115.464 301.03 115.464 333.098 C 120.142 333.098 124.39 333.098 130.624 333.098 M 114.993 143.836 C 114.993 155.064 114.993 166.292 114.993 176.974 C 116.598 177.796 117.171 178.345 117.745 178.347 C 137.043 178.401 156.361 178.905 175.63 178.16 C 183.065 177.872 190.7 175.502 197.688 172.697 C 207.281 168.846 213.975 161.474 217.885 151.711 C 229.216 123.417 215.734 96.21 186.261 88.803 C 179.565 87.12 172.481 86.505 165.552 86.322 C 151.252 85.945 136.936 86.19 122.627 86.18 C 120.403 86.178 118.18 86.18 114.992 86.18 C 114.992 105.415 114.992 123.626 114.993 143.836 Z" transform="matrix(1.0000000000000002, 0, 0, 1, 0, 0)"/>
  <path fill="#FDFEFE" opacity="1.000000" stroke="none" d="M 2147.546 28.408 C 2158.17 28.408 2167.797 28.408 2177.964 28.408 C 2177.964 151.518 2177.964 273.948 2177.964 397.022 C 2157.61 397.022 2137.659 397.033 2117.708 397.002 C 2116.12 397 2114.533 396.711 2112.485 396.51 C 2111.539 385.443 2110.624 374.749 2109.544 362.11 C 2106.641 365.782 2105.078 367.804 2103.469 369.788 C 2086.571 390.625 2064.696 401.614 2037.925 403.051 C 2018.041 404.118 1998.71 401.913 1980.353 393.719 C 1951.673 380.917 1932.469 358.922 1921.91 329.97 C 1906.306 287.186 1905.944 243.635 1921.814 200.932 C 1935.846 163.169 1962.668 138.47 2002.884 129.884 C 2019.357 126.367 2035.954 125.974 2052.479 129.385 C 2072.04 133.422 2088.329 143.206 2101.375 158.346 C 2103.224 160.492 2105 162.701 2108.592 164.25 C 2108.592 119.202 2108.592 74.154 2108.592 28.408 C 2121.968 28.408 2134.258 28.408 2147.546 28.408 M 1984.858 247.559 C 1980.968 270.322 1983.452 291.956 1996.199 311.784 C 2020.299 349.274 2079.049 350.167 2100.066 305.898 C 2112.612 279.472 2112.674 252.296 2100.544 225.795 C 2090.909 204.745 2073.834 193.002 2050.365 191.929 C 2027.276 190.873 2008.5 199.572 1996.231 219.38 C 1991.257 227.412 1988.78 236.989 1984.858 247.559 Z" transform="matrix(1.0000000000000002, 0, 0, 1, 0, 0)"/>
  <path fill="#FCFDFD" opacity="1.000000" stroke="none" d="M 1138.502 273.784 C 1127.013 229.436 1126.934 186.023 1141.315 143.129 C 1165.12 72.129 1227.843 25.643 1302.641 22.302 C 1352.003 20.096 1396.079 33.197 1433.963 65.381 C 1451.961 80.671 1466.112 99.041 1476.303 120.391 C 1477.42 122.732 1478.308 125.183 1479.505 128.074 C 1457.317 136.304 1435.555 144.377 1413.174 152.679 C 1411.285 149.471 1409.479 146.423 1407.691 143.365 C 1391.977 116.495 1369.443 98.177 1339.02 90.999 C 1288.034 78.97 1239.125 102.434 1217.545 150.206 C 1198.75 191.813 1198.698 234.588 1218.005 275.951 C 1243.774 331.16 1300.469 347.65 1347.463 332.784 C 1374.068 324.368 1393.139 306.167 1407.23 282.482 C 1409.433 278.779 1411.363 274.914 1413.989 270.075 C 1435.987 278.021 1457.958 285.957 1479.862 293.869 C 1463.993 353.308 1390.691 402.095 1317.58 403.391 C 1222.57 405.076 1158.921 344.711 1138.502 273.784 Z" transform="matrix(1.0000000000000002, 0, 0, 1, 0, 0)"/>
  <path opacity="1.000000" stroke="none" d="M -467.575 -241.906 C -439.715 -237.845 -412.698 -234.116 -385.734 -230.047 C -367.99 -227.369 -350.092 -225.17 -332.66 -221.07 C -279.569 -208.581 -247.651 -160.086 -255.832 -105.882 C -258.959 -85.165 -261.692 -64.389 -264.656 -43.646 C -264.929 -41.734 -265.575 -39.875 -266.37 -36.706 C -271.943 -39.027 -277.075 -40.973 -282.046 -43.266 C -318.922 -60.271 -355.783 -77.307 -392.612 -94.414 C -411.225 -103.06 -430.55 -109.292 -451.22 -108.975 C -505.9 -108.136 -547.008 -84.027 -572.51 -35.349 C -583.31 -14.734 -592.286 6.836 -602.106 27.965 C -603.503 30.97 -604.982 33.937 -607.992 36.943 C -608.142 33.994 -608.422 31.044 -608.423 28.095 C -608.447 -50.853 -608.453 -129.801 -608.436 -208.748 C -608.43 -235.842 -593.846 -251.665 -566.478 -252.79 C -553.917 -253.307 -541.187 -252.28 -528.671 -250.793 C -508.535 -248.399 -488.512 -245.043 -467.575 -241.906 Z" style="fill: rgb(254, 159, 165); fill-opacity: 0.6;" transform="matrix(1.0000000000000002, 0, 0, 1, 0, 0)"/>
  <path fill="#FD9DA2" opacity="1.000000" stroke="none" d="M 727.706 330.839 C 727.701 353.118 727.701 374.396 727.701 396.387 C 705.454 396.387 684.312 396.387 661.694 396.387 C 661.694 387.905 661.694 379.191 661.694 369.163 C 659.306 370.784 658.314 371.117 657.876 371.803 C 646.067 390.322 628.334 399.477 607.343 402.176 C 585.721 404.956 564.115 404.026 543.088 397.258 C 507.376 385.763 488.43 359.95 488.901 322.515 C 489.009 313.927 489.927 305.138 492.014 296.828 C 497.37 275.49 510.967 260.553 530.515 250.904 C 546.597 242.967 563.777 239.083 581.584 238.614 C 603.233 238.043 624.9 238.191 646.56 238.036 C 649.826 238.012 653.092 238.033 656.281 238.033 C 658.452 213.573 639.668 190.694 616.499 188.7 C 590.996 186.506 570.968 195.86 556.239 218.144 C 536.2 211.281 516.186 204.427 495.418 197.315 C 496.582 194.45 497.308 192.013 498.499 189.83 C 518.493 153.182 549.139 132.73 590.804 128.344 C 609.922 126.332 628.848 126.868 647.39 131.372 C 691.12 141.994 716.694 170.494 725.251 214.143 C 727.731 226.793 728.448 239.938 728.565 252.869 C 728.799 278.521 728.053 304.182 727.706 330.839 M 580.848 294.611 C 578.144 295.866 575.286 296.87 572.764 298.422 C 563.739 303.978 559.222 312.269 560.175 322.753 C 561.094 332.867 567.816 339.215 577.072 341.631 C 585.32 343.784 594.07 344.984 602.591 344.944 C 628.446 344.821 651.655 326.301 658.188 301.344 C 659.081 297.934 659.267 294.339 659.873 290.193 C 642.504 290.193 626.211 289.747 609.959 290.366 C 600.726 290.717 591.56 292.81 580.848 294.611 Z" transform="matrix(1.0000000000000002, 0, 0, 1, 0, 0)"/>
  <path fill="#FDFDFD" opacity="1.000000" stroke="none" d="M 1577.964 129.012 C 1600.51 125.804 1622.123 126.264 1643.316 131.759 C 1686.104 142.851 1710.772 171.304 1719.264 214.001 C 1721.587 225.68 1722.572 237.815 1722.544 249.737 C 1722.435 297.057 1721.682 344.376 1721.157 391.695 C 1721.143 392.992 1721.008 394.288 1720.886 396.298 C 1699.555 396.298 1678.407 396.298 1655.905 396.298 C 1655.905 387.982 1655.905 379.23 1655.905 369.401 C 1653.603 370.532 1652.499 370.701 1652.109 371.32 C 1639.967 390.603 1621.518 399.736 1599.805 402.282 C 1578.851 404.74 1557.907 403.772 1537.524 397.25 C 1502.572 386.067 1484.001 362.355 1483.104 325.848 C 1482.847 315.351 1484.251 304.494 1486.882 294.315 C 1492.107 274.095 1505.727 260.27 1524.118 251.005 C 1538.583 243.718 1554.072 239.574 1570.141 238.944 C 1593.438 238.03 1616.777 238.175 1640.098 237.884 C 1643.679 237.84 1647.262 237.878 1650.797 237.878 C 1650.734 207.226 1630.119 187.098 1601.176 188.268 C 1581.657 189.058 1565.885 196.908 1554.121 212.6 C 1553.124 213.93 1552.147 215.275 1551.119 216.58 C 1550.932 216.817 1550.54 216.893 1549.071 217.638 C 1529.939 211.067 1509.939 204.199 1488.864 196.962 C 1498.37 177.437 1510.267 161.088 1527.514 148.959 C 1542.467 138.444 1559.05 131.934 1577.964 129.012 M 1554.074 323.067 C 1555.668 332.606 1561.615 338.445 1570.399 341.421 C 1602.563 352.318 1635.538 340.205 1649.684 308.752 C 1652.25 303.046 1654.481 297.092 1653.11 290.311 C 1635.079 290.311 1617.196 289.933 1599.342 290.485 C 1591.469 290.729 1583.471 292.19 1575.856 294.286 C 1562.326 298.01 1554.284 306.835 1554.074 323.067 Z" transform="matrix(1.0000000000000002, 0, 0, 1, 0, 0)"/>
  <path fill="#FC9DA1" opacity="1.000000" stroke="none" d="M 1113.2 348.839 C 1113.2 365.112 1113.2 380.386 1113.2 396.329 C 1089.806 396.329 1067.058 396.329 1043.328 396.329 C 1043.328 392.604 1043.329 389.029 1043.328 385.455 C 1043.315 343.473 1043.472 301.489 1043.155 259.51 C 1043.085 250.252 1042.036 240.867 1040.225 231.782 C 1033.822 199.668 1010.699 189.447 982.548 193.801 C 957.581 197.662 942.795 215.139 939.751 243.126 C 939.068 249.401 938.984 255.764 938.974 262.087 C 938.908 303.402 938.939 344.718 938.939 386.034 C 938.939 389.309 938.938 392.584 938.938 396.413 C 915.621 396.413 893.125 396.413 869.916 396.413 C 869.916 309.198 869.916 221.837 869.916 134.027 C 891.375 134.027 912.517 134.027 934.348 134.027 C 935.443 144.905 936.492 155.333 937.725 167.585 C 940.189 164.651 941.61 163.024 942.961 161.34 C 964.164 134.904 992.231 125.177 1025.242 127.651 C 1030.211 128.023 1035.189 128.703 1040.074 129.684 C 1076.233 136.948 1097.64 159.698 1107.237 194.442 C 1111.513 209.923 1113.099 225.849 1113.146 241.884 C 1113.25 277.202 1113.192 312.521 1113.2 348.839 Z" transform="matrix(1.0000000000000002, 0, 0, 1, 0, 0)"/>
  <path fill="#FCFDFD" opacity="1.000000" stroke="none" d="M 2361.493 394.874 C 2321.708 407.897 2283.33 406.881 2246.242 388.487 C 2224.425 377.668 2207.953 361.196 2197.877 337.893 C 2217.524 328.821 2236.794 319.923 2256.767 310.7 C 2258.99 313.322 2261.273 316.045 2263.589 318.74 C 2281.523 339.614 2304.101 345.443 2330.285 339.046 C 2333.759 338.198 2337.295 336.65 2340.191 334.574 C 2348.97 328.282 2348.913 315.013 2339.891 309.135 C 2335.516 306.284 2330.38 304.33 2325.332 302.837 C 2313.218 299.255 2300.898 296.374 2288.76 292.868 C 2268.338 286.969 2250.12 277.307 2234.315 262.681 C 2198.097 229.169 2208.008 159.846 2255.298 138.502 C 2276.518 128.925 2298.765 126.141 2321.587 127.434 C 2343.457 128.674 2364.251 134.272 2383.004 146.122 C 2397.985 155.589 2410.084 167.514 2416.395 185.919 C 2397.374 194.67 2378.554 203.328 2359.915 211.902 C 2345.621 191.972 2325.951 187.227 2303.966 189.364 C 2295.836 190.155 2288.693 194.027 2285.116 202.333 C 2281.286 211.227 2283.147 218.149 2291.569 222.669 C 2296.495 225.314 2301.912 227.28 2307.327 228.732 C 2321.136 232.435 2335.16 235.35 2348.934 239.169 C 2386.97 249.714 2410.267 274.043 2416.232 313.498 C 2420.203 339.772 2410.862 361.569 2390.462 377.997 C 2382.043 384.777 2371.708 389.179 2361.493 394.874 Z" transform="matrix(1.0000000000000002, 0, 0, 1, 0, 0)"/>
  <path fill="#FBFCFC" opacity="1.000000" stroke="none" d="M 1751.871 210.839 C 1751.871 184.859 1751.871 159.879 1751.871 135.02 C 1759.215 132.987 1807.29 132.504 1821.42 134.326 C 1821.42 148.661 1821.42 163.13 1821.42 177.599 C 1846.032 148.54 1876.486 133.493 1914.637 132.514 C 1914.637 155.489 1914.637 177.337 1914.637 199.562 C 1904.112 200.675 1893.765 200.911 1883.829 203.052 C 1872.866 205.415 1861.736 208.369 1851.646 213.12 C 1831.518 222.596 1821.29 238.728 1821.561 261.727 C 1822.049 303.045 1821.698 344.373 1821.698 385.698 C 1821.698 389.007 1821.697 392.317 1821.697 396.329 C 1798.612 396.329 1775.825 396.329 1751.871 396.329 C 1751.871 334.9 1751.871 273.37 1751.871 210.839 Z" transform="matrix(1.0000000000000002, 0, 0, 1, 0, 0)"/>
  <path fill="#FC9CA1" opacity="1.000000" stroke="none" d="M 410.415 167.736 C 433.074 144.271 460.283 133.456 492.598 132.649 C 492.598 155.378 492.598 177.21 492.598 199.641 C 482.694 200.695 472.853 201.494 463.087 202.843 C 450.831 204.536 438.969 207.787 428.04 213.793 C 409.234 224.128 399.353 239.455 399.588 261.55 C 400.033 303.178 399.715 344.814 399.715 386.446 C 399.714 389.689 399.715 392.931 399.715 396.629 C 376.262 396.629 353.737 396.629 330.538 396.629 C 330.538 309.218 330.538 221.87 330.538 133.996 C 353.441 133.996 375.932 133.996 399.433 133.996 C 399.433 148.709 399.433 163.128 399.433 177.546 C 400.016 177.788 400.598 178.029 401.18 178.27 C 404.096 174.93 407.012 171.591 410.415 167.736 Z" transform="matrix(1.0000000000000002, 0, 0, 1, 0, 0)"/>
  <path fill="#FC9CA1" opacity="1.000000" stroke="none" d="M 779.672 133.474 C 796.936 133.474 813.216 133.474 829.304 133.474 C 831.501 140.938 832.146 382.185 830.106 396.533 C 807.693 396.533 785.189 396.533 761.965 396.533 C 761.965 309.337 761.965 221.996 761.965 133.474 C 767.556 133.474 773.122 133.474 779.672 133.474 Z" transform="matrix(1.0000000000000002, 0, 0, 1, 0, 0)"/>
  <path fill="#FB9CA1" opacity="1.000000" stroke="none" d="M 831.189 31.673 C 839.827 47.395 837.287 69.085 821.603 82.051 C 805.348 95.49 782.671 94.291 767.423 78.79 C 752.618 63.738 751.845 41.152 765.599 25.491 C 780.328 8.72 803.422 5.915 820.133 19.266 C 824.215 22.527 827.285 27.056 831.189 31.673 Z" transform="matrix(1.0000000000000002, 0, 0, 1, 0, 0)"/>
  <path fill="#FC9DA3" opacity="1.000000" stroke="none" d="M -928.607 122.735 C -911.84 153.261 -886.109 169.293 -852.621 171.828 C -827.375 173.739 -804.638 165.89 -785.526 148.746 C -783.296 146.746 -781.286 144.462 -778.892 142.69 C -769.895 136.028 -757.197 136.353 -749.26 143.274 C -741.361 150.161 -739.214 162.852 -744.867 172.54 C -747.001 176.198 -750.095 179.454 -753.269 182.32 C -771.429 198.714 -792.384 209.969 -816.371 215.039 C -823.398 216.524 -827.023 219.633 -828.649 226.921 C -831.523 239.8 -838.488 250.727 -847.05 260.809 C -864.209 281.013 -884.617 295.647 -911.401 299.644 C -917.944 300.621 -924.68 301.13 -931.27 300.777 C -944.132 300.088 -952.004 291.531 -952.48 278.756 C -952.931 266.634 -944.919 256.881 -932.79 255.002 C -927.206 254.137 -921.467 254.042 -915.985 252.782 C -896.117 248.214 -882.924 235.871 -874.295 216.516 C -878.396 215.244 -881.438 214.18 -884.543 213.357 C -941.897 198.149 -984.482 144.252 -985.552 85.124 C -985.646 79.913 -985.044 74.303 -983.14 69.527 C -979.636 60.737 -968.767 55.556 -959.18 56.903 C -949.752 58.226 -942 65.395 -940.084 74.842 C -939.425 78.092 -939.09 81.441 -938.952 84.758 C -938.403 97.957 -935.024 110.366 -928.607 122.735 Z" transform="matrix(1.0000000000000002, 0, 0, 1, 0, 0)"/>
  <path fill="#FC9DA3" opacity="1.000000" stroke="none" d="M -820.503 466.843 C -794.67 488.63 -777.587 515.018 -771.626 547.825 C -769.913 557.256 -770.221 567.042 -769.366 576.644 C -768.293 588.705 -780.699 597.551 -790.037 598.318 C -801.359 599.248 -812.011 591.671 -814.376 580.407 C -815.397 575.544 -815.52 570.489 -816.011 565.517 C -820.138 523.687 -852.058 490.297 -893.442 484.596 C -898.715 483.87 -904.028 483.436 -909.315 482.801 C -922.005 481.277 -930.545 471.715 -930.48 459.155 C -930.418 446.879 -921.352 437.616 -908.429 436.623 C -897.411 435.777 -897.411 435.777 -896.431 425.261 C -891.103 368.075 -841.052 315.101 -784.232 306.78 C -776.025 305.579 -767.67 304.968 -759.376 304.882 C -745.849 304.74 -736.13 313.886 -735.507 326.565 C -734.89 339.11 -744.966 349.524 -758.401 350.859 C -767.304 351.743 -776.399 352.415 -784.951 354.812 C -822.494 365.333 -849.144 399.657 -851.154 438.487 C -851.518 445.514 -849.18 449.398 -842.978 452.596 C -835.333 456.538 -828.342 461.75 -820.503 466.843 Z" transform="matrix(1.0000000000000002, 0, 0, 1, 0, 0)"/>
</svg>