<?xml version="1.0" encoding="utf-8"?>
<svg viewBox="0 0 1920 1920" width="1920" height="1920" xmlns="http://www.w3.org/2000/svg">
  <path fill="#FFA7DA" opacity="1.000000" stroke="none" d=" M971.393433,1906.935547 C967.016968,1900.837891 963.287231,1894.652344 959.168640,1888.737549 C950.930908,1876.907593 942.444824,1865.250977 934.129883,1853.474243 C928.674622,1845.747681 923.339966,1837.935913 917.951233,1830.162231 C917.511963,1830.277344 917.072754,1830.392456 916.633484,1830.507568 C916.633484,1855.464111 916.633484,1880.420654 916.633484,1906.317871 C907.968750,1905.826172 900.184937,1905.384399 891.741333,1904.905273 C892.489746,1865.518677 893.232483,1826.435913 893.962830,1788.000000 C899.875427,1788.000000 905.454651,1788.450806 910.924072,1787.869019 C916.053467,1787.323364 919.105835,1789.442017 921.785278,1793.339966 C937.172058,1815.723389 952.627014,1838.059937 968.095154,1860.387085 C969.365906,1862.221313 970.907532,1863.868042 973.820068,1865.544556 C973.820068,1840.219116 973.820068,1814.893677 973.820068,1789.282227 C982.975708,1789.282227 990.717285,1789.282227 998.283447,1789.282227 C997.858154,1828.177856 997.432739,1867.080078 997.042542,1906.441650 C988.673218,1906.924072 980.268738,1906.947144 971.393433,1906.935547 z"/>
  <path fill="#FFA7DA" opacity="1.000000" stroke="none" d=" M927.630981,16.062305 C931.493103,16.729809 934.909912,17.330757 938.312073,18.005108 C952.623596,20.841789 961.990540,31.332813 963.062195,46.222107 C963.807190,56.572956 960.212280,64.796257 951.806763,71.456963 C961.514160,75.594170 967.290588,83.111725 968.728149,92.610519 C970.380310,103.527054 969.636108,114.771317 961.028320,123.337456 C955.523621,128.815430 948.555847,132.107483 940.800049,132.924789 C931.500854,133.904770 922.152588,134.575317 912.808472,134.929367 C904.088867,135.259781 895.346863,135.000000 886.446716,135.000000 C886.008240,129.619156 885.329285,123.443436 885.039856,117.249519 C884.561096,107.005035 884.346069,96.748383 883.997375,86.497627 C883.339600,67.160835 882.711609,47.822807 881.954041,28.489887 C881.826904,25.245468 881.109741,22.024166 880.571045,18.107344 C893.888000,17.686176 906.718689,17.280386 919.732300,16.484203 C922.336426,16.072374 924.757690,16.050934 927.630981,16.062305 M943.134277,91.630493 C941.197510,86.801994 936.608765,84.683464 932.409363,84.259102 C924.061218,83.415512 915.567810,84.009506 908.483398,84.009506 C908.483398,94.295822 908.483398,104.130936 908.483398,113.000000 C915.771667,113.000000 921.661499,112.904228 927.547119,113.020592 C938.648499,113.240074 948.733093,104.385506 943.134277,91.630493 M906.000061,54.406593 C906.287659,57.904701 906.575256,61.402813 906.788147,63.991600 C913.540771,63.991600 919.495911,64.592735 925.281189,63.857449 C935.136902,62.604824 937.855286,58.039593 938.898621,50.675007 C939.806885,44.263592 934.759766,37.359646 927.622192,36.434254 C920.220154,35.474575 912.596985,36.220566 906.000000,36.220566 C906.000000,42.310978 906.000000,47.872795 906.000061,54.406593 z"/>
  <path fill="#FFA7DA" opacity="1.000000" stroke="none" d=" M1906.938232,966.611816 C1906.603271,968.581299 1906.048462,970.077759 1906.039185,971.577637 C1905.951172,985.733521 1905.956909,999.890015 1905.925171,1014.046326 C1905.924927,1014.184021 1905.785034,1014.321472 1905.563477,1014.729492 C1898.649780,1014.729492 1891.584839,1014.729492 1884.500000,1014.729492 C1884.500000,998.011963 1884.500000,981.341003 1884.500000,964.074280 C1876.429565,963.622253 1867.970459,963.148438 1858.676270,962.627869 C1858.676270,977.699219 1858.676270,992.051270 1858.676270,1006.703796 C1851.135864,1006.703796 1844.381714,1006.703796 1837.500000,1006.703796 C1837.500000,992.335754 1837.500000,977.878052 1837.500000,962.713745 C1828.930054,962.713745 1820.257446,962.713745 1810.786987,962.713745 C1808.860474,979.243530 1810.732666,996.453247 1809.793945,1013.774719 C1802.556519,1013.774719 1795.492065,1013.774719 1788.619141,1013.774719 C1788.619141,988.592957 1788.619141,963.591187 1788.619141,938.191406 C1828.155518,938.798157 1867.068848,939.395325 1906.441650,939.957397 C1906.924438,948.661682 1906.947876,957.401062 1906.938232,966.611816 z"/>
  <path fill="#FFA7DA" opacity="1.000000" stroke="none" d=" M14.062178,957.388916 C16.733547,948.205322 19.904957,939.751892 27.540680,934.041138 C31.343496,931.197021 35.461514,928.774292 40.038223,925.765686 C42.947899,934.400574 45.475826,941.902527 48.044750,949.526123 C39.335686,953.362610 35.194992,960.321411 34.040199,969.269348 C32.721680,979.485779 39.772125,987.321228 49.853081,986.999878 C54.525730,986.850952 58.241009,983.854980 59.971264,977.980713 C62.512917,969.351562 64.288277,960.485352 67.066299,951.940002 C70.978012,939.907104 78.255280,930.187073 91.034233,927.121094 C109.867180,922.602661 124.869926,928.760132 131.854767,947.520508 C137.520004,962.736816 136.813858,978.533508 130.579788,993.382568 C126.995125,1001.921021 121.612762,1009.903992 111.674500,1013.182556 C108.672897,1014.172729 107.722992,1014.070923 106.877914,1010.911255 C105.343040,1005.172607 103.159897,999.608704 101.564827,993.883423 C101.263817,992.802979 102.066521,990.615051 102.992882,990.118164 C111.011307,985.817261 114.393875,978.419983 114.696053,970.181152 C114.943336,963.438843 113.212402,956.376099 106.638672,952.294250 C99.840851,948.073242 91.994202,951.129211 89.101059,959.591614 C85.988335,968.696289 83.853180,978.130066 80.967590,987.318604 C75.962868,1003.254822 63.745789,1012.787476 47.201065,1011.955688 C28.991220,1011.040222 17.139099,999.786499 14.460354,981.227722 C14.072407,973.342834 14.050598,965.601562 14.062178,957.388916 z"/>
  <path fill="#FFA7DA" opacity="1.000000" stroke="none" d=" M994.620117,16.062084 C999.209412,16.550745 1003.335632,17.006439 1008.389648,17.564592 C1007.950439,25.511295 1007.496704,33.693420 1007.048828,41.875866 C1007.012390,42.540714 1007.014771,43.207714 1007.000366,43.873741 C1006.666809,59.288940 1006.489868,74.709579 1005.955200,90.117790 C1005.441101,104.929932 1004.556763,119.729225 1003.810852,135.030914 C995.972290,134.578110 988.308533,134.135406 979.785889,133.643082 C980.185608,128.911591 980.820068,124.098915 980.958191,119.272034 C981.404236,103.693466 981.564514,88.106606 982.027893,72.528679 C982.578308,54.021984 983.328796,35.521240 983.957520,16.558525 C987.334045,16.075792 990.745544,16.052456 994.620117,16.062084 z"/>
  <path fill="#FFA7DA" opacity="1.000000" stroke="none" d=" M367.292969,328.799072 C357.480682,317.327454 347.967834,306.071991 338.366608,294.892456 C330.987885,286.300720 323.497833,277.804596 315.728943,268.889130 C320.604187,264.641876 325.400757,260.272095 330.401123,256.149475 C338.955231,249.096939 347.146484,241.453964 356.364410,235.387329 C377.291626,221.614395 406.392639,228.458893 414.602814,256.177521 C417.138031,264.736725 415.716125,273.174591 412.117676,281.725647 C427.569244,287.057526 442.996368,292.380981 459.213562,297.977051 C457.995361,291.810242 456.895721,286.097900 455.735626,280.397888 C451.834351,261.229492 447.921631,242.063431 443.993713,222.900482 C440.974945,208.172775 438.151276,193.398300 434.712372,178.768860 C433.978333,175.646255 435.410614,175.123978 437.094086,173.991486 C443.000549,170.018036 448.910065,166.049057 455.078888,161.903351 C489.295837,186.170273 523.627197,210.518326 558.774475,235.445053 C551.729004,240.104050 545.466675,244.504547 538.882568,248.354721 C537.727173,249.030334 534.929260,247.820160 533.393005,246.755203 C527.925476,242.964996 522.766907,238.726151 517.263062,234.993774 C516.199219,234.272369 513.761230,234.506363 512.546326,235.255341 C505.531372,239.579971 498.700195,244.202087 491.793060,248.702423 C486.258301,252.308594 480.704071,255.884872 475.150848,259.479370 C477.058960,267.827911 479.012329,276.100677 480.752411,284.418091 C480.923462,285.235596 480.017029,286.623230 479.220001,287.246765 C467.438080,296.463959 455.483948,305.465424 443.848511,314.862000 C441.566193,316.705139 440.064972,316.238281 437.945099,315.457245 C425.720490,310.953369 413.392822,306.713867 401.282990,301.922546 C397.426331,300.396606 395.161011,302.108459 392.687225,304.083862 C389.744690,306.433624 386.969635,308.993195 384.129211,311.462372 C392.991089,321.806549 401.845825,332.150238 411.009491,342.854828 C405.197296,347.877655 399.274353,352.996155 392.746643,358.637299 C386.408813,351.334076 380.182709,344.208099 374.017578,337.029724 C371.787994,334.433655 369.704529,331.712128 367.292969,328.799072 M391.956818,266.764862 C391.649963,266.189514 391.186920,265.646698 391.059479,265.034027 C388.904449,254.677765 378.384705,248.932709 369.261017,254.152695 C361.891479,258.369080 355.456818,264.219482 348.341187,269.544250 C355.806519,278.240295 362.774384,286.356873 369.644592,294.359680 C371.948761,292.566193 373.761322,291.411743 375.264618,289.941193 C381.989655,283.362640 391.476624,278.822174 391.956818,266.764862 M476.653992,205.960449 C471.755554,202.250778 466.857117,198.541092 461.108948,194.187881 C462.888611,201.984055 464.512878,208.767181 465.972473,215.585556 C467.469543,222.579010 468.805511,229.606934 470.289948,237.008438 C479.162872,231.134552 487.635620,225.525574 496.197632,219.857498 C489.645874,215.047211 483.514282,210.545425 476.653992,205.960449 z"/>
  <path fill="#FFA7DA" opacity="1.000000" stroke="none" d=" M1602.727539,351.634064 C1604.645874,343.604431 1606.340576,335.938416 1608.035278,328.272430 C1607.708862,328.024231 1607.382446,327.776031 1607.055908,327.527832 C1588.088867,344.677307 1569.121704,361.826752 1549.766602,379.326996 C1544.319336,373.270905 1538.903931,367.250183 1533.567017,361.316772 C1563.016724,334.570129 1591.898926,308.338837 1621.125610,281.794617 C1626.633789,287.908051 1632.263672,294.024872 1637.675537,300.328796 C1638.355591,301.120880 1638.208374,302.977692 1637.904175,304.207458 C1633.353882,322.602264 1628.712646,340.974518 1624.048096,359.530334 C1635.379761,357.995361 1646.439331,356.500092 1657.497925,354.998199 C1665.081177,353.968262 1672.650391,352.811920 1680.255371,351.982910 C1681.985962,351.794281 1684.422241,352.135254 1685.535645,353.239136 C1690.911377,358.569611 1695.946411,364.243835 1701.254883,369.960571 C1672.133179,396.414612 1643.170532,422.724182 1613.744507,449.454620 C1608.454224,443.704681 1603.236938,438.034027 1597.445801,431.739624 C1616.895752,414.033295 1636.312744,396.357056 1656.478882,377.998779 C1635.130859,381.049286 1614.749512,383.961700 1594.115112,386.910217 C1596.960327,375.068726 1599.732056,363.533203 1602.727539,351.634064 z"/>
  <path fill="#FFA7DA" opacity="1.000000" stroke="none" d=" M77.700027,1200.298950 C66.645317,1196.586426 55.873749,1193.265625 45.259922,1189.500244 C43.564240,1188.898682 41.973125,1186.494873 41.370190,1184.595215 C39.327927,1178.160400 37.751297,1171.577759 35.795071,1164.301514 C42.624912,1162.206787 49.419724,1160.002808 56.283859,1158.041626 C72.069366,1153.531372 87.903847,1149.192505 103.689507,1144.682861 C117.923805,1140.616577 132.102646,1136.353882 146.371841,1132.416626 C147.297409,1132.161377 149.523407,1133.709839 149.893860,1134.832031 C152.046341,1141.351929 153.824326,1147.995361 155.732239,1154.608643 C130.597488,1161.838989 105.555183,1169.042603 79.214333,1176.619873 C99.693993,1183.359375 119.100357,1189.745728 139.146423,1196.342529 C125.998932,1212.170898 113.040382,1227.771851 100.081833,1243.372803 C100.245956,1243.673828 100.410088,1243.974731 100.574211,1244.275635 C125.496765,1237.107178 150.419327,1229.938599 175.358368,1222.765381 C177.590225,1230.535034 179.716095,1237.935669 182.014450,1245.936768 C144.288742,1256.765869 106.481750,1267.618286 68.601921,1278.491699 C66.315186,1270.998291 64.263054,1264.242310 62.190735,1257.492554 C60.467434,1251.879639 65.115639,1249.138794 67.826225,1245.820557 C78.365257,1232.919312 89.224716,1220.279785 100.121582,1207.357056 C92.451309,1204.990845 85.243340,1202.767212 77.700027,1200.298950 z"/>
  <path fill="#FFA7DA" opacity="1.000000" stroke="none" d=" M1867.997437,1104.000000 C1877.872681,1106.142578 1887.314941,1108.280640 1896.809937,1110.430786 C1895.207153,1117.623657 1893.816162,1124.879028 1891.859253,1131.978394 C1891.331543,1133.892944 1889.408936,1136.122925 1887.579956,1136.870117 C1870.474609,1143.858276 1853.250366,1150.555176 1835.610352,1157.513916 C1839.208496,1161.659912 1842.470825,1165.715332 1846.042480,1169.477051 C1855.176147,1179.096313 1864.559570,1188.481323 1873.556030,1198.225098 C1875.084351,1199.880371 1876.084229,1202.973267 1875.778320,1205.187866 C1874.964722,1211.078491 1873.228271,1216.836060 1872.011719,1222.678589 C1871.353882,1225.837280 1869.406006,1226.517334 1866.667969,1225.886230 C1839.468018,1219.618286 1812.286133,1213.271118 1785.071411,1207.067993 C1775.490234,1204.884155 1765.832642,1203.035645 1755.756348,1200.939697 C1757.259277,1193.561768 1758.481689,1186.588379 1760.306519,1179.776489 C1760.547119,1178.878174 1764.021484,1178.081177 1765.730469,1178.456665 C1788.730103,1183.509521 1811.681274,1188.782715 1834.650879,1193.973145 C1835.248779,1194.108276 1835.918457,1193.926025 1837.528809,1193.839233 C1823.263794,1178.576050 1809.479248,1163.826782 1795.457764,1148.824097 C1815.245361,1140.902100 1834.426636,1133.223022 1853.709717,1125.503052 C1827.782715,1119.678711 1802.037720,1113.895264 1776.326904,1108.119507 C1778.086548,1100.131836 1779.735229,1092.647095 1781.462891,1084.803955 C1788.555908,1086.270752 1795.510254,1087.628906 1802.427612,1089.154541 C1823.233887,1093.743530 1844.026733,1098.393433 1864.819946,1103.041382 C1865.759155,1103.251221 1866.650757,1103.672729 1867.997437,1104.000000 z"/>
  <path fill="#FFA7DA" opacity="1.000000" stroke="none" d=" M1829.720825,859.777832 C1838.913330,851.286804 1847.847656,843.041565 1856.782104,834.796326 C1856.671875,834.401123 1856.561768,834.005859 1856.451538,833.610657 C1831.121216,836.403687 1805.790894,839.196716 1780.346924,842.002258 C1779.478394,833.933228 1778.645508,826.196289 1777.781616,818.170654 C1817.072998,813.844299 1855.795776,809.580505 1894.831177,805.282288 C1895.871948,812.875244 1897.011963,820.561829 1897.875732,828.279358 C1897.985962,829.265015 1896.856934,830.634216 1895.960693,831.451538 C1881.967651,844.211121 1867.907593,856.897400 1853.888184,869.628174 C1849.367065,873.733887 1844.922485,877.923706 1840.436157,882.067749 C1836.364014,885.829041 1832.283081,889.580627 1827.265869,894.202515 C1853.416260,891.319092 1878.313232,888.573914 1903.817627,885.761658 C1904.709473,893.732239 1905.574829,901.465881 1906.470337,909.470032 C1867.192749,913.772278 1828.436646,918.017395 1789.425659,922.290466 C1788.577637,916.086670 1788.036865,910.271606 1786.930298,904.566406 C1785.854370,899.018799 1789.185547,895.959534 1792.663208,892.874207 C1797.569214,888.521851 1802.618530,884.330078 1807.505005,879.956238 C1814.870239,873.363586 1822.147827,866.672668 1829.720825,859.777832 z"/>
  <path fill="#FFA7DA" opacity="1.000000" stroke="none" d=" M345.776245,1569.594238 C338.751160,1580.208130 330.690582,1589.053589 319.612610,1595.152710 C298.968994,1606.518311 278.497772,1606.331421 258.881531,1593.806519 C243.675201,1584.097534 233.140976,1569.823120 230.302536,1551.852051 C227.420212,1533.603027 231.623535,1516.599487 244.873947,1502.485840 C254.040924,1492.721802 264.262878,1485.093018 277.496338,1481.884766 C297.223328,1477.102539 314.878235,1480.880249 330.012634,1494.589966 C337.655914,1501.513794 344.184692,1509.223022 348.165375,1519.129761 C355.079376,1536.336792 354.050446,1552.875854 345.776245,1569.594238 M294.931519,1578.975952 C306.443176,1575.197144 316.174744,1569.280396 323.146759,1558.791870 C332.591034,1544.584473 330.621674,1526.383789 318.656281,1514.189819 C309.581909,1504.942383 298.716827,1502.182495 286.018250,1504.858765 C276.698425,1506.822998 269.957062,1512.349731 263.663116,1518.841919 C249.949585,1532.986938 248.607346,1553.689697 263.532684,1569.021729 C271.940094,1577.658081 282.402710,1580.141602 294.931519,1578.975952 z"/>
  <path fill="#FFA7DA" opacity="1.000000" stroke="none" d=" M165.199509,482.485474 C164.688461,476.178284 164.271118,470.269287 164.014542,464.353363 C163.481888,452.071381 168.602509,441.479980 175.174667,431.817810 C183.033264,420.264404 193.523712,411.579224 207.482361,407.928284 C227.952835,402.574188 246.355545,406.835815 263.107635,419.540283 C272.875671,426.948212 279.991241,436.263214 283.906769,447.807678 C289.542511,464.424164 287.695526,480.442169 279.033539,495.674164 C271.575867,508.788483 261.640930,519.098328 247.114365,524.466736 C228.918594,531.191101 211.538040,528.961487 195.096481,519.469543 C180.657700,511.133820 170.303009,499.116913 165.199509,482.485474 M198.502884,491.001251 C207.315155,499.348450 217.325287,504.228119 229.923080,504.133972 C248.052185,503.998413 263.445099,486.492401 263.864441,470.191101 C264.237396,455.692169 256.817688,444.894043 245.026215,437.034119 C235.134399,430.440491 224.509369,427.344208 212.578934,430.846710 C187.809097,438.118652 176.985260,470.127014 198.502884,491.001251 z"/>
  <path fill="#FFA7DA" opacity="1.000000" stroke="none" d=" M1246.741699,93.757568 C1260.203247,79.093887 1277.113403,73.510132 1295.802734,76.255119 C1322.978027,80.246475 1343.998901,95.181374 1349.728638,124.087471 C1355.748657,154.459076 1337.562378,190.437302 1302.252563,197.787033 C1284.087769,201.567993 1267.538208,196.151947 1252.559570,185.942810 C1239.577515,177.094543 1231.623169,164.364670 1229.316040,149.078583 C1227.326416,135.897064 1229.000977,122.538910 1235.346802,110.460709 C1238.408081,104.634041 1242.734009,99.471832 1246.741699,93.757568 M1317.610718,160.904724 C1318.479858,159.361435 1319.645386,157.911743 1320.167358,156.258835 C1322.521484,148.802399 1326.556641,141.273926 1326.498413,133.798508 C1326.409180,122.308235 1321.892212,111.631050 1311.378784,104.949913 C1304.288208,100.444016 1296.374023,97.143341 1288.045166,98.239563 C1275.449829,99.897362 1265.970459,106.755333 1259.327026,117.998848 C1249.802979,134.117523 1249.911377,156.611481 1267.385376,168.740646 C1275.813965,174.591232 1284.990967,177.543839 1295.807373,175.265182 C1305.018433,173.324707 1311.044800,167.632263 1317.610718,160.904724 z"/>
  <path fill="#FFA7DA" opacity="1.000000" stroke="none" d=" M1027.988281,52.105988 C1032.942993,43.966835 1038.471802,36.969715 1046.406616,31.800303 C1059.637207,23.180788 1073.680786,20.649099 1089.215698,22.815018 C1100.971802,24.454090 1111.272827,28.515978 1120.560303,35.841988 C1130.958618,44.044125 1137.345581,54.699440 1139.893066,67.423836 C1142.980469,82.845581 1141.694946,98.285103 1134.666626,112.352325 C1126.249268,129.199982 1112.496460,139.872162 1093.416626,143.039032 C1077.905518,145.613556 1063.151489,143.414047 1049.533691,135.760254 C1032.001709,125.906647 1022.596863,110.685539 1020.921204,90.489594 C1019.809204,77.087662 1021.837830,64.459488 1027.988281,52.105988 M1103.346436,113.959953 C1106.583130,109.156761 1110.418579,104.647232 1112.944702,99.495598 C1120.683105,83.714020 1118.108765,62.916016 1102.696289,51.284019 C1094.453003,45.062744 1085.070801,42.513142 1074.755981,44.703415 C1061.331543,47.554016 1052.679199,55.678326 1047.864990,68.498665 C1042.114746,83.811020 1044.309570,103.874390 1059.484009,114.976402 C1072.297119,124.350876 1090.762085,124.702438 1103.346436,113.959953 z"/>
  <path fill="#FFA7DA" opacity="1.000000" stroke="none" d=" M1728.025391,507.997101 C1743.405640,500.038544 1758.417480,492.143555 1773.398926,484.191376 C1775.850708,482.889954 1778.188477,482.298645 1779.636963,485.256165 C1786.511108,499.291809 1794.344849,512.981750 1799.797119,527.557800 C1806.531982,545.562927 1804.538940,563.519653 1793.001953,579.511658 C1783.137451,593.185608 1769.498047,601.013367 1752.936157,604.036072 C1737.166748,606.914185 1722.914429,603.421997 1710.200928,593.956726 C1703.071777,588.648987 1696.945923,582.246155 1692.701050,574.265564 C1686.183594,562.012695 1679.640625,549.773376 1672.922485,537.179565 C1691.194214,527.450867 1709.420654,517.746277 1728.025391,507.997101 M1761.413940,517.953491 C1742.592163,527.843323 1723.770264,537.733093 1704.504639,547.856140 C1706.320190,551.470764 1707.930664,554.973633 1709.794556,558.336182 C1717.446411,572.141418 1728.133789,580.803650 1744.984009,580.073120 C1763.314575,579.278381 1778.941162,564.354736 1779.983887,545.468201 C1780.650024,533.401917 1773.778076,524.045471 1768.887329,514.067017 C1766.349487,515.328735 1764.180054,516.407288 1761.413940,517.953491 z"/>
  <path fill="#FFA7DA" opacity="1.000000" stroke="none" d=" M1387.836426,164.671936 C1379.601318,172.082443 1374.272949,180.715378 1371.877808,191.286652 C1368.940430,204.252045 1372.948364,214.971756 1382.055054,223.922897 C1387.152100,228.932739 1393.282593,232.391083 1400.492920,234.101028 C1412.047485,236.841187 1420.816528,232.922592 1428.416626,223.820129 C1420.451172,219.150391 1412.729492,214.623535 1404.806641,209.978790 C1408.139526,204.271530 1411.197510,199.035019 1414.449585,193.466064 C1422.132935,197.883591 1429.395264,202.041351 1436.639893,206.229263 C1443.752686,210.340881 1450.847656,214.483109 1459.242188,219.362778 C1452.252808,228.342484 1445.938110,237.620117 1438.412842,245.781555 C1431.513184,253.264557 1422.204834,256.644531 1411.808350,257.052551 C1388.107910,257.982697 1369.868164,247.434341 1356.768188,228.873520 C1345.238403,212.537048 1343.741821,193.935303 1351.017700,175.038910 C1355.739868,162.774597 1363.009888,152.230484 1373.895386,144.703796 C1386.499390,135.988861 1400.309326,132.384445 1415.859985,134.803619 C1430.949951,137.151138 1443.573608,143.447266 1454.001953,154.483047 C1462.442383,163.414917 1467.606567,173.735886 1468.025635,186.195236 C1468.052368,186.990875 1468.380127,187.776352 1468.681763,189.045609 C1460.930542,189.456207 1453.114746,189.870239 1445.425659,190.277542 C1443.899414,175.521622 1436.746338,165.637589 1423.882080,160.005417 C1411.907227,154.762497 1400.539917,156.184219 1389.843750,163.593063 C1389.320923,163.955200 1388.673462,164.137039 1387.836426,164.671936 z"/>
  <path fill="#FFA7DA" opacity="1.000000" stroke="none" d=" M319.727966,423.979980 C298.832611,427.435028 280.527405,423.582825 265.122498,408.721558 C255.765305,399.694489 248.798752,389.648743 245.798996,376.659912 C241.659225,358.734985 245.991226,342.895142 256.231628,328.427856 C263.607269,318.007812 272.895142,309.316833 285.620667,306.005737 C292.790466,304.140228 300.393829,303.934998 307.804749,303.004608 C312.170502,302.456512 312.437836,305.244446 311.878326,308.338654 C310.842743,314.065613 309.617920,319.758362 308.670258,324.477753 C301.327789,326.351105 293.591766,326.978180 287.167755,330.211761 C266.364655,340.683319 260.940460,368.165558 277.797150,386.336029 C284.373413,393.424835 291.895874,398.671783 301.446747,401.072449 C312.551636,403.863708 322.104187,400.437775 330.482269,393.780975 C336.997498,388.604370 342.168854,382.266235 344.174316,373.501953 C346.194397,364.673950 343.332367,357.740295 338.118530,350.187469 C331.628265,357.102905 325.473328,363.661041 319.280457,370.259583 C315.162201,366.678955 311.169830,363.509277 307.622253,359.902130 C306.781281,359.047058 306.724548,356.158203 307.514496,355.170959 C311.920197,349.664825 316.621124,344.386658 321.367981,339.164032 C326.371674,333.658783 331.574127,328.334625 336.618347,322.865479 C338.325897,321.014069 339.871307,320.052338 341.921875,322.376831 C348.540955,329.880005 356.875641,335.763306 361.668488,345.013397 C368.294556,357.801514 369.266357,370.944458 364.256470,384.114044 C357.195496,402.675232 343.762512,415.254974 325.200958,422.319031 C323.551819,422.946686 321.843262,423.418304 319.727966,423.979980 z"/>
  <path fill="#FFA7DA" opacity="1.000000" stroke="none" d=" M125.290207,724.675781 C111.987457,723.873047 100.052361,719.948547 89.442368,712.700256 C77.308235,704.410767 68.952141,693.055847 66.099442,678.474426 C62.479553,659.971436 65.457054,642.369202 76.180038,626.682373 C82.948395,616.780884 92.706734,610.372498 104.042130,606.446838 C104.653305,606.235168 105.301270,606.077820 105.943314,606.020386 C106.757515,605.947510 107.583176,606.002747 108.490555,606.002747 C109.941559,611.904175 111.439224,617.658630 112.744896,623.456360 C113.343315,626.113525 113.340553,627.911377 109.673477,629.304749 C85.269966,638.577332 79.283905,670.243652 97.656303,687.254883 C110.323738,698.983887 124.666145,703.028320 141.207947,697.960632 C154.001678,694.041199 164.583664,678.604004 165.118668,665.229553 C165.569244,653.965332 161.290848,645.641602 152.051056,639.601440 C151.414948,639.185608 150.553177,639.114929 149.559662,638.811462 C146.575027,647.271667 143.649734,655.563599 140.616852,664.160522 C134.578781,662.005371 128.744308,659.922852 122.618233,657.736267 C127.058998,645.110840 131.341415,632.996826 135.579636,620.867310 C139.185394,610.547913 139.069504,610.853699 149.275421,613.891418 C158.463425,616.626160 166.953094,620.830566 173.548111,627.451782 C181.270782,635.205200 186.412491,644.670349 187.092575,656.229980 C188.029938,672.163269 184.064896,686.575134 175.019379,699.574951 C164.588043,714.566406 150.345154,723.035339 131.897232,724.027466 C129.805801,724.139954 127.734528,724.627502 125.290207,724.675781 z"/>
  <path fill="#FFA7DA" opacity="1.000000" stroke="none" d=" M1499.246826,1590.256470 C1500.841675,1589.081665 1502.180420,1588.163574 1503.794800,1587.056641 C1527.953857,1617.916016 1552.194336,1648.879272 1576.775757,1680.278320 C1562.270508,1691.179321 1548.989990,1702.891968 1534.094482,1711.948853 C1511.651001,1725.595581 1483.713989,1715.448975 1477.296631,1687.737061 C1475.467651,1679.839355 1476.070435,1671.033081 1481.161865,1663.017822 C1464.765503,1656.643921 1448.493774,1650.318359 1431.206055,1643.598022 C1438.305176,1638.074219 1444.761597,1632.942993 1451.379272,1628.028809 C1452.272339,1627.365479 1454.150635,1627.347290 1455.278442,1627.786499 C1467.415405,1632.511597 1479.825684,1636.718262 1491.458496,1642.484253 C1498.067261,1645.760010 1500.672241,1641.154663 1504.661011,1638.759155 C1506.453369,1637.682495 1507.943848,1636.103271 1509.965820,1634.424438 C1501.609741,1623.686401 1493.194702,1612.872559 1484.538696,1601.749146 C1489.532715,1597.866577 1494.261841,1594.189819 1499.246826,1590.256470 M1526.964478,1655.681152 C1525.838989,1654.469727 1524.713501,1653.258423 1523.432007,1651.879028 C1517.261841,1657.109009 1511.007935,1662.098755 1505.127197,1667.495239 C1500.580322,1671.667480 1499.522461,1678.875122 1502.042725,1684.167480 C1506.942139,1694.456055 1517.368652,1697.038086 1527.294434,1690.097900 C1532.955933,1686.139160 1538.242188,1681.643677 1543.759277,1677.341675 C1538.210571,1670.389038 1532.628052,1663.394043 1526.964478,1655.681152 z"/>
  <path fill="#FFA7DA" opacity="1.000000" stroke="none" d=" M160.000183,1451.869629 C159.924728,1423.176636 188.999344,1404.115234 217.778946,1419.255371 C225.480469,1403.510132 233.180084,1387.768921 241.061417,1371.656128 C245.846191,1378.889893 250.412125,1385.478638 254.555832,1392.322998 C255.382751,1393.688721 255.216690,1396.336914 254.456802,1397.873779 C248.658936,1409.599243 242.727997,1421.264282 236.539062,1432.787354 C234.836304,1435.957642 234.801453,1438.341675 236.971542,1441.154419 C239.337494,1444.220947 241.369217,1447.545410 243.629166,1450.879272 C254.088638,1444.061157 264.690521,1437.268188 275.139648,1430.247925 C277.464264,1428.686157 278.525940,1428.561157 280.098541,1431.155518 C283.530212,1436.816895 287.359192,1442.237305 291.535370,1448.523193 C258.597443,1470.145508 225.744629,1491.712036 192.426376,1513.584106 C183.100082,1498.969482 173.573380,1484.937256 165.105865,1470.292480 C162.084030,1465.066162 161.627701,1458.356201 160.000183,1451.869629 M213.044159,1445.377563 C211.338043,1443.723389 209.866592,1441.675049 207.879761,1440.492554 C202.871490,1437.512085 197.456909,1436.746338 192.280472,1439.990967 C187.444870,1443.022095 183.838287,1446.885254 183.932999,1453.338257 C184.105850,1465.115723 193.371857,1471.827026 197.916641,1481.025513 C207.258728,1474.836182 215.972107,1469.063354 224.973602,1463.099609 C221.211136,1457.494263 217.345291,1451.734985 213.044159,1445.377563 z"/>
  <path fill="#FFA7DA" opacity="1.000000" stroke="none" d=" M1686.759033,1452.735474 C1690.280884,1447.652588 1693.544189,1442.834351 1697.187988,1437.454468 C1683.861206,1428.197632 1670.384766,1418.836914 1656.714844,1409.341675 C1661.323242,1402.804443 1665.784180,1396.476318 1670.679077,1389.532593 C1703.176636,1412.021851 1735.553467,1434.427490 1768.066162,1456.927124 C1763.867065,1462.796387 1759.763550,1468.150635 1756.119141,1473.800903 C1754.515503,1476.286987 1753.543213,1476.454956 1751.186157,1474.784302 C1740.498779,1467.209106 1729.558350,1459.986694 1718.968872,1452.280396 C1716.124023,1450.210083 1714.739624,1451.254761 1713.326294,1453.293091 C1705.216064,1464.989258 1697.192871,1476.745972 1689.139038,1488.481323 C1688.134521,1489.945068 1687.123413,1491.404297 1685.659912,1493.525879 C1698.280151,1502.290771 1710.975586,1511.108032 1723.999390,1520.153320 C1719.353638,1526.863892 1714.830566,1533.397583 1710.229248,1540.044312 C1677.928955,1517.680542 1645.631348,1495.318604 1612.977539,1472.710083 C1617.570923,1466.046387 1622.086426,1459.495728 1626.776245,1452.692017 C1639.415771,1461.487671 1651.941040,1470.078247 1664.305786,1478.893921 C1667.539795,1481.199585 1668.574097,1479.083374 1670.007080,1476.991699 C1675.492310,1468.985840 1681.000732,1460.995972 1686.759033,1452.735474 z"/>
  <path fill="#FFA7DA" opacity="1.000000" stroke="none" d=" M522.978943,1799.997803 C518.073364,1797.832642 513.555176,1795.714355 508.919006,1793.540894 C525.891602,1757.918701 542.792236,1722.447754 559.890137,1686.562622 C566.551575,1689.817261 573.138306,1692.855835 579.473877,1696.349854 C580.298279,1696.804565 580.492371,1699.917725 579.854980,1701.270020 C574.209961,1713.247925 568.421570,1725.162354 562.420166,1736.965698 C560.614380,1740.517212 560.712097,1741.794434 564.888916,1743.635986 C578.617798,1749.689453 591.998230,1756.532959 605.516296,1763.065186 C606.363159,1763.474609 607.242859,1763.816162 608.102112,1764.187012 C615.263367,1749.299683 622.307739,1734.655396 629.429321,1719.850586 C636.716980,1723.347046 643.801086,1726.745728 651.180115,1730.286011 C634.157349,1765.980469 617.247559,1801.437988 600.300293,1836.974121 C594.353577,1834.251953 588.399475,1831.403809 582.339966,1828.801147 C579.035034,1827.381714 578.432129,1825.744019 580.119751,1822.397827 C585.935669,1810.865845 591.437683,1799.175537 597.051941,1787.541992 C597.460144,1786.696045 597.809570,1785.821655 598.377686,1784.522705 C582.636658,1776.973877 567.114746,1769.530273 551.084839,1761.842896 C547.993835,1768.118896 544.920654,1774.318115 541.884033,1780.535156 C538.909668,1786.624756 535.665100,1792.607788 533.122620,1798.874390 C531.305786,1803.352173 529.159607,1803.977539 525.517578,1801.164917 C524.887878,1800.678345 524.087769,1800.412476 522.978943,1799.997803 z"/>
  <path fill="#FFA7DA" opacity="1.000000" stroke="none" d=" M690.630371,102.744659 C694.736450,102.155090 695.178040,100.273598 694.022949,96.927650 C689.874084,84.909943 686.144348,72.744751 681.836548,60.786488 C680.620850,57.411915 681.294861,56.674408 684.453491,55.756458 C690.748169,53.927086 696.876038,51.523472 703.252502,49.294243 C711.000427,72.112053 718.503662,94.174294 725.981689,116.245064 C730.680725,130.113708 735.258606,144.024338 740.092834,157.845474 C741.025452,160.512024 740.902649,161.309494 737.921082,162.160110 C731.442261,164.008438 725.158875,166.541885 718.559326,168.878906 C713.233826,153.409744 707.863708,137.810989 702.492981,122.210587 C685.982727,127.886009 669.431152,133.575653 652.645569,139.345718 C657.575439,154.024017 662.206055,168.247482 667.202576,182.341187 C668.276550,185.370697 667.990356,186.241928 664.878296,187.133759 C658.429382,188.981857 652.134827,191.368805 645.551880,193.610794 C632.704895,155.899536 620.107605,118.921295 607.421265,81.681549 C615.213501,79.093719 622.454346,76.689041 630.401428,74.049797 C635.362244,88.737694 640.287537,103.320534 645.286133,118.120293 C660.476013,113.001350 675.382629,107.977859 690.630371,102.744659 z"/>
  <path fill="#FFA7DA" opacity="1.000000" stroke="none" d=" M1589.772217,1501.747314 C1590.681396,1502.007568 1591.643555,1502.376587 1591.935303,1503.040161 C1598.670166,1518.362305 1605.319946,1533.721924 1612.010620,1549.063477 C1621.342896,1570.461304 1630.689453,1591.852783 1640.053345,1613.236816 C1640.630615,1614.555176 1641.411743,1615.784302 1642.053833,1616.973267 C1636.011963,1622.922119 1630.098389,1628.744507 1623.868774,1634.878052 C1585.646484,1618.490967 1546.941040,1601.896851 1508.532593,1585.429932 C1514.560059,1579.417725 1520.369629,1573.622925 1526.695068,1567.313477 C1532.676514,1569.994873 1539.737671,1573.042358 1546.682983,1576.333984 C1549.317871,1577.582520 1551.070190,1577.623657 1553.331299,1575.302734 C1563.440186,1564.926514 1573.793945,1554.788818 1584.254028,1544.371094 C1580.817383,1536.961426 1577.546631,1529.631104 1574.011230,1522.430664 C1572.690918,1519.741455 1573.193970,1518.055298 1575.313232,1516.071411 C1580.176880,1511.518188 1584.795044,1506.702515 1589.772217,1501.747314 M1588.043945,1594.553955 C1595.523193,1597.720947 1603.002441,1600.887939 1611.453003,1604.466187 C1605.224854,1590.769287 1599.429199,1578.023560 1594.053955,1566.202026 C1586.982788,1573.274414 1579.755127,1580.503296 1572.661987,1587.597656 C1577.205322,1589.581787 1582.322998,1591.816772 1588.043945,1594.553955 z"/>
  <path fill="#FFA7DA" opacity="1.000000" stroke="none" d=" M1808.000000,1314.000000 C1775.743652,1314.000000 1743.987427,1314.000000 1711.744019,1314.000000 C1714.806030,1306.003174 1717.655151,1298.562134 1720.550781,1291.000000 C1728.465942,1291.000000 1736.291992,1290.828003 1744.104248,1291.083496 C1747.298218,1291.187988 1748.925171,1290.020996 1749.981445,1287.191895 C1754.703125,1274.545044 1759.549805,1261.944946 1764.215210,1249.277710 C1764.620483,1248.177490 1764.538330,1246.191528 1763.825195,1245.496826 C1757.824707,1239.651123 1751.624146,1234.010620 1745.071289,1227.925171 C1747.922363,1220.579468 1750.968872,1212.730225 1754.219482,1204.355103 C1758.563965,1208.105103 1762.486572,1211.278076 1766.169067,1214.708984 C1777.661743,1225.416382 1788.971802,1236.320557 1800.523682,1246.963013 C1814.815063,1260.129272 1829.190552,1273.207886 1843.729614,1286.098877 C1847.229614,1289.202393 1847.224609,1292.141479 1845.595825,1295.968750 C1843.090210,1301.856445 1840.846558,1307.855469 1838.415405,1314.000000 C1828.468262,1314.000000 1818.484131,1314.000000 1808.000000,1314.000000 M1773.000244,1286.478516 C1772.465332,1287.927246 1771.930542,1289.376099 1771.453369,1290.668579 C1785.631348,1290.668579 1799.615601,1290.668579 1814.347290,1290.668579 C1803.345825,1280.789917 1792.929443,1271.436646 1782.596558,1262.158447 C1779.313599,1270.245361 1776.180664,1277.962280 1773.000244,1286.478516 z"/>
  <path fill="#FFA7DA" opacity="1.000000" stroke="none" d=" M136.796478,1104.701416 C129.001602,1116.243530 118.156570,1122.067627 105.004814,1123.987427 C91.004402,1126.031128 77.000015,1128.054199 62.976780,1129.932617 C54.244404,1131.102417 45.470715,1131.961304 36.722771,1133.019287 C34.671249,1133.267334 32.648869,1133.756226 30.054876,1134.237915 C28.927698,1126.168091 27.854219,1118.482666 26.707645,1110.273926 C35.170231,1109.157349 43.349453,1108.107910 51.519680,1106.992676 C62.803898,1105.452148 74.082657,1103.871460 85.361076,1102.288940 C90.506721,1101.566895 95.625778,1100.590088 100.791931,1100.091797 C117.381752,1098.491089 124.143234,1082.901733 119.734894,1068.322876 C116.125999,1056.387695 104.049347,1049.885986 91.691856,1052.539185 C83.599266,1054.276611 75.263199,1054.876709 67.038338,1056.001953 C55.108963,1057.633911 43.187012,1059.321777 31.249960,1060.895386 C27.703735,1061.362793 24.117468,1061.526611 20.397659,1061.842529 C19.395378,1054.159302 18.389139,1046.445679 17.315456,1038.215088 C25.164076,1037.170044 33.316372,1036.113159 41.459984,1034.993286 C53.224323,1033.375366 64.946014,1031.346558 76.753403,1030.171387 C88.356163,1029.016724 99.931206,1026.089478 111.724251,1029.865601 C128.918625,1035.371094 138.449646,1047.654663 141.788879,1064.532837 C144.465485,1078.061768 144.706512,1091.858032 136.796478,1104.701416 z"/>
  <path fill="#FFA7DA" opacity="1.000000" stroke="none" d=" M1633.000122,478.002319 C1629.448608,472.630829 1625.939575,467.627289 1622.200073,462.295044 C1655.059326,439.715881 1687.326904,417.543182 1719.716431,395.286743 C1734.149414,416.294678 1748.123779,436.635193 1762.340942,457.329224 C1756.281128,461.569794 1750.366821,465.708405 1744.149048,470.059479 C1734.512695,456.063416 1724.893677,442.092560 1715.079590,427.838409 C1709.201050,431.921936 1703.296021,436.135712 1697.261719,440.155701 C1695.135132,441.572388 1694.423096,442.359680 1696.258911,444.934937 C1704.038574,455.847443 1711.463501,467.012909 1719.258789,478.438477 C1713.517578,482.409271 1707.847656,486.330688 1701.481079,490.734009 C1693.038574,478.535370 1684.796021,466.625488 1676.408691,454.506409 C1668.892212,459.654449 1661.844727,464.481262 1654.367310,469.602539 C1664.171509,483.937775 1673.727539,497.910034 1683.610840,512.360962 C1677.322998,516.606750 1671.378418,520.620605 1665.267578,524.746826 C1654.220581,508.848633 1643.631592,493.609467 1633.000122,478.002319 z"/>
  <path fill="#FFA7DA" opacity="1.000000" stroke="none" d=" M215.723328,552.699585 C216.638077,550.953369 217.322372,549.514099 218.210983,547.644958 C224.995636,551.022644 231.421631,554.221680 237.812622,557.403381 C226.482986,580.034912 215.202362,602.568481 203.792740,625.359863 C182.969849,614.979492 162.600952,604.830261 142.236511,594.672058 C128.927338,588.033142 115.649742,581.330078 102.298882,574.776245 C99.470955,573.388123 98.260498,572.143860 99.957161,568.810547 C110.583206,547.933960 121.020714,526.961426 131.767899,505.527557 C137.804077,508.468658 143.809433,511.199524 149.544495,514.412781 C150.347351,514.862610 150.475937,517.998474 149.813873,519.351379 C143.066940,533.139221 136.091385,546.815125 128.981430,560.915833 C136.295746,564.608521 143.628952,568.310669 151.350555,572.208984 C157.951660,559.074219 164.516327,546.012024 171.240417,532.632568 C176.808182,535.423645 181.889526,538.197754 187.166046,540.530334 C190.290604,541.911621 190.394867,543.522278 189.004242,546.238586 C183.036179,557.895935 177.190582,569.615967 171.006760,581.896240 C178.801895,585.850525 186.629044,589.821045 194.946289,594.040161 C201.781128,580.390259 208.636993,566.698303 215.723328,552.699585 z"/>
  <path fill="#FFA7DA" opacity="1.000000" stroke="none" d=" M92.898880,873.000000 C77.212906,873.758972 62.968353,870.857117 50.256428,862.032898 C34.481373,851.082336 26.318296,836.301147 25.860157,816.822754 C25.441647,799.029053 30.814470,783.849609 43.296032,771.282532 C49.067360,765.471558 62.396770,758.037109 68.770782,758.067566 C70.162361,764.676575 71.730621,771.384766 72.847565,778.167297 C73.030846,779.280273 71.512123,781.406189 70.301849,781.905945 C52.390411,789.301758 43.895355,805.225037 49.160030,823.665344 C52.021820,833.689087 59.288998,840.486694 68.973579,844.489319 C83.537956,850.508789 97.879478,851.549133 111.511551,842.052612 C127.336731,831.028259 131.299713,809.009277 116.852463,793.412659 C114.525856,790.901062 111.839890,788.722229 108.845741,785.950562 C112.536163,779.440918 116.393845,772.636169 120.404785,765.561157 C133.940475,773.343689 142.435654,784.810974 145.753387,799.119080 C150.918442,821.393677 146.185867,841.742859 129.299164,858.072021 C119.405769,867.638794 107.296333,872.692505 92.898880,873.000000 z"/>
  <path fill="#FFA7DA" opacity="1.000000" stroke="none" d=" M1845.194580,653.699951 C1857.983643,662.894531 1865.184570,675.389038 1868.469604,690.057190 C1872.288574,707.109192 1868.850098,722.932861 1858.400635,737.045532 C1855.985962,740.306458 1853.134888,743.244263 1850.179688,746.685791 C1845.335571,740.431152 1840.794556,734.770996 1836.585815,728.873779 C1836.066895,728.146667 1836.892334,725.704773 1837.821045,724.820679 C1844.605835,718.363098 1847.087158,709.911255 1847.834351,701.196716 C1848.922363,688.508911 1836.566772,672.828796 1823.483398,669.217224 C1806.844727,664.624390 1785.251221,672.560608 1775.506714,686.792175 C1763.310791,704.604126 1771.525513,730.896118 1795.636108,736.994446 C1797.336792,737.424622 1799.042114,737.837341 1801.294800,738.393921 C1800.832764,746.136169 1800.373047,753.841187 1799.904541,761.694153 C1784.948486,760.230896 1772.413818,754.377075 1762.598999,743.095032 C1753.692505,732.857300 1748.844727,720.920898 1748.015503,707.392700 C1747.294434,695.631592 1749.164551,684.584229 1755.227173,674.079773 C1763.650879,659.484741 1776.573242,651.198303 1792.017090,646.617310 C1808.125732,641.839111 1824.195190,642.509644 1839.532593,650.205139 C1841.404053,651.144104 1843.141113,652.350708 1845.194580,653.699951 z"/>
  <path fill="#FFA7DA" opacity="1.000000" stroke="none" d=" M1181.734253,1756.688477 C1196.611084,1751.593018 1211.150635,1751.100952 1225.463623,1757.175049 C1241.260986,1763.879028 1251.456665,1775.891357 1257.368042,1791.795776 C1262.686523,1806.104858 1264.117920,1820.639160 1259.214966,1835.298218 C1251.618042,1858.012451 1235.137939,1870.063965 1212.003540,1874.031982 C1196.266846,1876.731079 1181.996460,1873.407959 1169.225830,1863.964722 C1165.528809,1861.231079 1162.340942,1857.808716 1158.584351,1854.397461 C1165.231812,1849.381958 1171.568604,1844.600952 1178.191162,1839.604248 C1184.148193,1846.510498 1191.245483,1850.616333 1200.241333,1852.239502 C1209.957275,1853.992432 1218.078735,1850.827026 1225.017944,1845.250732 C1244.470093,1829.619263 1239.411743,1802.259521 1226.281128,1786.764893 C1214.500610,1772.863770 1195.226685,1771.479004 1181.937256,1781.029419 C1173.530518,1787.071045 1169.800415,1795.948975 1167.612671,1805.629517 C1159.824463,1805.047852 1152.056641,1804.467773 1144.100098,1803.873413 C1147.724854,1780.973633 1159.411987,1764.859375 1181.734253,1756.688477 z"/>
  <path fill="#FFA7DA" opacity="1.000000" stroke="none" d=" M818.004028,1796.005493 C808.662476,1797.225342 800.755798,1800.488281 794.394958,1807.080322 C788.839172,1812.838135 788.778503,1812.827881 781.554077,1809.145508 C779.112061,1807.900879 776.759094,1806.477051 774.395813,1805.083496 C768.458679,1801.582764 768.154114,1801.308350 772.337952,1796.348145 C783.327515,1783.319092 796.882996,1775.411987 814.520386,1774.891357 C833.010376,1774.345825 848.978210,1779.823730 861.635254,1793.302734 C870.513611,1802.757446 875.271790,1814.275635 876.062073,1827.438843 C876.838928,1840.379395 875.763611,1853.044189 869.658569,1864.578491 C860.324219,1882.213745 846.475708,1893.716675 825.734802,1896.128174 C805.798401,1898.446167 788.939819,1892.696533 774.607971,1879.047729 C768.112549,1872.861938 763.278137,1863.337280 761.047913,1853.629761 C767.919189,1852.105347 774.769165,1850.460205 781.689209,1849.199829 C782.614502,1849.031250 784.475281,1850.582397 784.919128,1851.720581 C788.930725,1862.007812 795.894043,1869.366211 806.334717,1872.937256 C826.211975,1879.735840 844.379028,1866.822510 849.852112,1847.910522 C853.624084,1834.876709 853.510132,1821.931519 845.056763,1810.161865 C839.604187,1802.570068 832.141174,1798.618408 823.182556,1796.993774 C821.594299,1796.705688 820.020691,1796.337036 818.004028,1796.005493 z"/>
  <path fill="#FFA7DA" opacity="1.000000" stroke="none" d=" M743.975159,1846.831665 C740.810120,1857.719604 737.665894,1868.190186 734.266724,1879.510010 C710.281677,1872.605225 686.214966,1865.676880 662.110901,1858.737793 C663.789978,1852.671387 665.375854,1846.804810 667.048035,1840.962891 C667.788940,1838.374146 669.109680,1837.521729 672.096863,1838.450073 C685.770447,1842.698853 699.533875,1846.660400 713.287476,1850.647583 C714.642090,1851.040161 716.150208,1850.903687 717.484436,1851.005005 C719.775330,1843.091675 721.963013,1835.534790 724.323120,1827.382568 C712.299927,1823.886719 700.564941,1820.059326 688.602478,1817.175659 C682.814392,1815.780273 681.171021,1813.937256 683.894653,1808.397217 C685.431458,1805.271362 686.275513,1801.706787 686.871033,1798.243286 C687.500488,1794.582764 689.270813,1794.674805 692.136841,1795.534424 C704.009155,1799.095093 715.925781,1802.508301 727.840149,1805.926636 C728.608215,1806.147095 729.494568,1805.955322 730.387817,1805.955322 C732.793762,1797.798584 735.196594,1789.652222 737.825439,1780.739746 C721.497620,1775.972290 704.931213,1771.135132 688.116333,1766.225464 C690.195923,1758.918579 692.153687,1752.039673 694.154602,1745.009033 C718.675842,1752.106201 742.868896,1759.108276 767.020142,1766.098389 C759.245300,1793.219604 751.620667,1819.816895 743.975159,1846.831665 z"/>
  <path fill="#FFA7DA" opacity="1.000000" stroke="none" d=" M1013.034363,1790.919678 C1013.258545,1786.010010 1017.211426,1787.404053 1019.284302,1787.163940 C1036.174927,1785.207153 1053.118286,1783.709595 1070.034668,1781.966919 C1074.556274,1781.501099 1079.033447,1780.618408 1083.544067,1780.026123 C1086.936401,1779.580566 1088.845215,1780.135864 1089.165161,1784.582031 C1089.995728,1796.125122 1091.702271,1807.603149 1092.945068,1819.119507 C1093.735474,1826.442749 1094.217773,1833.799438 1095.024536,1841.120728 C1096.221191,1851.979858 1097.656128,1862.812744 1098.849731,1873.672241 C1099.671631,1881.149780 1100.256958,1888.653320 1101.028809,1897.021118 C1076.193115,1899.751831 1051.349854,1902.483398 1026.464722,1905.219604 C1025.641235,1897.578857 1024.879150,1890.507446 1024.108154,1883.354126 C1041.016235,1881.500366 1057.719360,1879.668945 1074.974976,1877.777100 C1074.013794,1869.598877 1073.059082,1861.475220 1072.018066,1852.616699 C1057.250366,1854.185547 1042.856934,1855.714600 1028.342041,1857.256592 C1027.546021,1850.014160 1026.818604,1843.395874 1026.008301,1836.024048 C1040.594971,1834.381958 1055.219849,1832.735474 1069.898438,1831.083130 C1068.818481,1821.785156 1067.809326,1813.096558 1066.778809,1804.224121 C1049.703735,1806.072632 1032.761963,1807.906738 1015.607727,1809.763794 C1014.777466,1803.763184 1013.919800,1797.564209 1013.034363,1790.919678 z"/>
  <path fill="#FFA7DA" opacity="1.000000" stroke="none" d=" M1335.822510,1729.684937 C1330.839722,1733.999146 1326.191284,1738.152344 1321.290527,1741.983032 C1320.489746,1742.609009 1318.137451,1742.339355 1317.245483,1741.594238 C1305.871216,1732.090088 1287.754883,1738.192505 1282.105225,1749.701294 C1278.724976,1756.586914 1283.162109,1765.509521 1290.756226,1765.826904 C1298.094971,1766.133667 1305.606445,1765.703125 1312.837158,1764.431152 C1324.881348,1762.312622 1336.571533,1761.864014 1347.061646,1769.074585 C1361.962891,1779.316772 1367.026489,1804.863403 1352.256226,1819.292725 C1340.555176,1830.723999 1326.743530,1836.848511 1310.324951,1837.011108 C1300.327393,1837.110229 1288.209351,1831.692505 1282.648926,1823.600586 C1288.484619,1818.536133 1294.389160,1813.412109 1300.287720,1808.293213 C1312.869385,1816.918823 1324.110352,1816.662354 1332.962280,1807.507935 C1336.951660,1803.382080 1338.095215,1798.534424 1335.665161,1793.272095 C1333.433228,1788.439209 1329.584961,1785.499390 1324.044922,1786.049194 C1314.797241,1786.967163 1305.589966,1788.286011 1296.348633,1789.276489 C1279.816162,1791.048584 1261.909302,1783.293823 1257.088135,1764.288940 C1253.254150,1749.175293 1259.248291,1735.891357 1272.579224,1726.760010 C1283.900879,1719.005371 1296.316284,1714.703369 1309.944946,1715.143799 C1319.964844,1715.467773 1329.559692,1717.968628 1336.663574,1726.085205 C1338.085938,1727.710327 1338.675049,1728.723389 1335.822510,1729.684937 z"/>
  <path fill="#FFA7DA" opacity="1.000000" stroke="none" d=" M470.677338,1651.181519 C465.399048,1649.040161 460.244354,1645.249878 455.417969,1645.629883 C444.274475,1646.507324 441.146576,1656.724121 447.292725,1665.620483 C452.831268,1673.637329 459.671997,1680.758911 465.155792,1688.808594 C479.950897,1710.526489 467.740448,1734.795166 448.336609,1741.234741 C440.055206,1743.983032 431.849396,1743.212524 424.194733,1739.862427 C409.935577,1733.621704 397.617950,1725.012695 391.867065,1709.473511 C389.580688,1703.295776 389.197662,1689.762451 391.688354,1684.975830 C398.439819,1686.991577 405.258026,1688.886353 411.941620,1691.174194 C412.948792,1691.519043 414.069611,1693.815063 413.883118,1695.013306 C411.846527,1708.097778 422.080536,1716.937866 433.187103,1719.916382 C437.434204,1721.055542 443.157684,1717.405029 446.253448,1712.223633 C448.532867,1708.408447 447.716553,1703.191772 443.987183,1698.526855 C438.386200,1691.520264 432.207428,1684.910889 427.208313,1677.502319 C419.082703,1665.460205 416.630432,1652.418335 424.047546,1638.998779 C430.477234,1627.365967 444.145416,1619.852661 458.662628,1622.734985 C476.486938,1626.274170 489.025330,1636.663574 498.343170,1651.143066 C504.265137,1660.345581 505.989685,1671.006714 502.497223,1682.296997 C494.657013,1679.706055 487.035156,1677.187256 479.302582,1674.631836 C481.634613,1665.096680 478.118317,1657.597656 470.677338,1651.181519 z"/>
  <path fill="#FFA7DA" opacity="1.000000" stroke="none" d=" M551.269775,210.684357 C537.822937,183.063538 524.601685,155.754913 511.191071,128.055237 C519.044373,124.227348 527.037476,120.100693 535.224182,116.402557 C544.293213,112.305870 553.233582,107.375870 562.775513,104.995461 C579.580200,100.803238 596.482300,106.777184 605.294922,123.534164 C612.185303,136.636185 612.632385,149.360077 605.885315,162.399094 C601.916321,170.069550 595.453430,175.137863 587.937927,178.996628 C581.344055,182.382202 574.705200,185.679916 567.946472,189.086853 C572.989807,199.401031 577.739075,209.429474 582.805603,219.294998 C584.455383,222.507370 584.180969,224.211578 580.773865,225.742813 C575.041321,228.319214 569.472900,231.260559 563.249939,234.337860 C559.301453,226.497253 555.398376,218.746918 551.269775,210.684357 M573.287659,127.002029 C571.881714,126.678459 570.223389,125.703133 569.109863,126.134476 C560.226562,129.575516 551.446472,133.283096 542.542419,136.946991 C547.348083,147.069748 551.707153,156.223557 556.036987,165.391129 C557.180176,167.811493 558.472107,168.854614 561.313171,167.322311 C566.837524,164.342834 572.647034,161.893005 578.178040,158.924881 C582.840820,156.422699 587.775940,147.766266 586.932922,143.906097 C585.277527,136.326035 581.999451,129.894913 573.287659,127.002029 z"/>
  <path fill="#FFA7DA" opacity="1.000000" stroke="none" d=" M157.998871,1395.008301 C152.079636,1404.660767 146.218338,1413.952515 140.311920,1423.215698 C139.400146,1424.645630 138.281433,1425.943726 136.868301,1427.821045 C132.942947,1419.854980 129.301697,1412.685669 125.931274,1405.391235 C125.418289,1404.280762 125.701866,1402.298218 126.392479,1401.212158 C135.047485,1387.601074 143.845566,1374.080933 152.999115,1359.931274 C143.175888,1359.267944 133.781830,1358.702881 124.400185,1357.977539 C117.221603,1357.422607 110.052406,1356.721191 102.897270,1355.921753 C102.060089,1355.828125 101.039818,1354.850708 100.611092,1354.021118 C96.986015,1347.007080 93.478737,1339.932007 89.438721,1331.884521 C97.108101,1332.295654 104.052856,1332.522217 110.969849,1333.088135 C115.832153,1333.486084 120.641937,1334.496948 125.500885,1334.970215 C139.492264,1336.333130 153.493439,1337.600952 167.502045,1338.771118 C168.640335,1338.866089 169.906738,1338.018311 171.042526,1337.463135 C185.101212,1330.588867 199.146790,1323.687622 213.705429,1316.543213 C217.360092,1323.821167 220.885880,1330.842529 224.649582,1338.337646 C212.901428,1344.027588 201.848785,1350.071533 190.250565,1354.768188 C181.766586,1358.203735 176.935333,1364.340454 172.608566,1371.726685 C168.037231,1379.530396 162.920502,1387.014648 157.998871,1395.008301 z"/>
  <path fill="#FFA7DA" opacity="1.000000" stroke="none" d=" M1471.846191,310.337769 C1466.093872,305.793213 1460.592163,301.523529 1454.857910,297.073273 C1463.996094,285.132782 1473.322754,273.277344 1482.201782,261.095581 C1484.253906,258.280121 1485.382080,254.435715 1485.887939,250.914230 C1487.510986,239.616501 1488.728516,228.257370 1489.935547,216.904175 C1490.766846,209.085312 1491.275269,201.232651 1492.016968,193.403519 C1492.471558,188.604599 1493.093994,183.821564 1493.766602,177.930359 C1500.996460,183.446533 1507.344482,188.138062 1513.465088,193.109573 C1514.484375,193.937454 1515.050293,196.035889 1514.913574,197.459579 C1513.977051,207.203278 1512.820801,216.926315 1511.687134,226.650375 C1510.994141,232.594452 1510.215210,238.528488 1509.345459,245.505005 C1514.058350,243.794693 1518.507324,242.311417 1522.855591,240.575928 C1533.159424,236.463364 1543.369751,232.111206 1553.734619,228.162125 C1555.514526,227.483917 1558.411255,227.552628 1559.865601,228.583420 C1566.081787,232.989258 1571.950806,237.884979 1578.812500,243.283432 C1575.703369,244.665802 1573.125488,245.960999 1570.442993,246.981110 C1549.115112,255.091904 1527.720215,263.030609 1506.486816,271.380371 C1503.907959,272.394440 1501.912720,275.341431 1500.079956,277.725494 C1492.071777,288.142487 1484.276367,298.723328 1476.230469,309.110565 C1475.471436,310.090607 1473.503540,310.134247 1471.846191,310.337769 z"/>
  <path fill="#FFA7DA" opacity="1.000000" stroke="none" d=" M739.220459,63.719147 C733.539551,57.373539 728.104736,51.286648 722.240173,44.718391 C730.254578,43.032501 737.406372,41.197910 744.672852,40.191093 C746.997131,39.869045 750.301392,41.058311 751.987854,42.733437 C757.102234,47.813152 761.563843,53.542397 766.430359,58.881348 C771.988159,64.978714 777.707886,70.928444 783.789673,77.402672 C787.987549,65.489525 791.983948,54.144390 795.983398,42.800320 C797.320312,39.008282 798.313293,35.034451 800.162720,31.510708 C801.012939,29.890619 803.414917,28.562775 805.344971,28.125429 C812.276123,26.554926 819.306274,25.421028 827.425232,23.912880 C826.068848,28.165800 824.995850,32.051388 823.600586,35.817574 C816.113892,56.026356 808.280212,76.113266 801.244629,96.476616 C799.923401,100.300507 801.306213,105.254906 802.086487,109.570953 C804.245056,121.511414 806.735291,133.392105 809.132446,145.288757 C809.280396,146.023132 809.756897,146.691299 810.198730,147.645645 C802.131836,149.244644 794.393433,150.778519 786.507446,152.341660 C783.271423,136.808929 780.230957,121.786308 776.932678,106.820511 C776.406372,104.432579 775.135193,101.928825 773.501831,100.114799 C767.410645,93.349838 761.012390,86.861908 754.754028,80.246674 C749.639954,74.841026 744.561096,69.402054 739.220459,63.719147 z"/>
  <path fill="#FFA7DA" opacity="1.000000" stroke="none" d=" M317.211456,1623.709717 C323.882904,1629.797119 330.307617,1635.621826 336.732758,1641.446899 C358.192169,1617.434448 379.199310,1593.928101 400.739258,1569.825439 C406.224762,1574.790894 411.829834,1579.696533 417.133698,1584.908569 C417.704346,1585.469360 417.000122,1588.236084 416.083862,1589.262207 C405.877869,1600.693726 395.432983,1611.911987 385.214691,1623.332886 C375.139343,1634.593994 365.250244,1646.021851 355.025513,1657.665894 C363.626740,1665.429810 372.273438,1673.234741 381.049591,1681.156616 C376.018890,1686.685181 371.208862,1691.971191 366.132782,1697.549561 C342.512054,1676.439819 319.228302,1655.631348 295.887573,1634.771851 C300.872986,1629.291504 305.629578,1624.062622 310.544525,1618.659668 C312.847961,1620.377319 314.906342,1621.912109 317.211456,1623.709717 z"/>
  <path fill="#FFA7DA" opacity="1.000000" stroke="none" d=" M1394.737183,1687.325928 C1391.317627,1681.996826 1388.117310,1676.971313 1384.684814,1671.581177 C1391.607300,1667.250732 1398.387207,1663.009644 1405.371948,1658.640259 C1422.221436,1685.951660 1438.891479,1712.972290 1455.798950,1740.377808 C1465.770386,1734.262939 1475.649292,1728.204834 1485.652588,1722.070312 C1489.412354,1728.057983 1493.178467,1734.055664 1497.428101,1740.823486 C1471.001953,1757.177734 1444.574097,1773.533081 1417.372314,1790.367432 C1413.511597,1784.261230 1409.605347,1778.083130 1405.475098,1771.550903 C1415.420044,1765.392700 1425.000854,1759.460083 1435.113037,1753.198486 C1421.789917,1731.443970 1408.373169,1709.536865 1394.737183,1687.325928 z"/>
  <path fill="#FFA7DA" opacity="1.000000" stroke="none" d=" M1774.300903,1437.724365 C1769.039062,1434.815186 1764.083252,1432.136475 1758.428955,1429.080322 C1763.604614,1418.924805 1768.778320,1408.773315 1774.211548,1398.112427 C1764.180786,1392.938599 1754.118042,1387.827026 1744.127808,1382.577759 C1727.119141,1373.640747 1710.193604,1364.545044 1693.138672,1355.697998 C1690.135254,1354.140015 1689.321533,1352.621948 1691.021484,1349.654053 C1693.754028,1344.884644 1696.441284,1340.082031 1698.927002,1335.181641 C1700.125244,1332.819824 1701.245239,1332.640747 1703.538330,1333.863770 C1721.060791,1343.208984 1738.632690,1352.462280 1756.239624,1361.647705 C1765.980713,1366.729370 1775.818848,1371.625488 1785.553833,1376.575073 C1790.758545,1366.638184 1796.070435,1356.496582 1801.630615,1345.880981 C1807.987427,1349.029907 1814.410522,1352.211670 1821.585449,1355.765747 C1819.859497,1358.900269 1818.117676,1361.892090 1816.536011,1364.966431 C1809.661621,1378.328247 1802.912476,1391.754883 1795.964355,1405.077881 C1790.437500,1415.675537 1784.509888,1426.067993 1779.155884,1436.749878 C1777.712280,1439.630005 1776.381470,1438.576294 1774.300903,1437.724365 z"/>
  <path fill="#FFA7DA" opacity="1.000000" stroke="none" d=" M1186.973389,75.851471 C1183.301270,89.793144 1179.635132,103.306961 1176.008423,116.831367 C1174.181030,123.646286 1172.425293,130.480408 1170.577515,137.532898 C1187.294800,141.939224 1203.456055,146.199005 1220.135254,150.595306 C1218.318970,157.591858 1216.476562,164.688828 1214.573120,172.020874 C1191.825562,166.000702 1169.167725,159.922714 1146.452271,154.068710 C1142.420166,153.029602 1141.677856,151.718689 1142.850830,147.496796 C1150.046143,121.601059 1156.858276,95.598373 1163.721680,69.611191 C1166.390259,59.507656 1168.860474,49.351749 1171.593628,38.536827 C1178.961914,40.443630 1186.263428,42.274574 1193.500122,44.333504 C1193.999878,44.475700 1194.425049,46.418552 1194.194092,47.353409 C1191.877441,56.732067 1189.416138,66.075012 1186.973389,75.851471 z"/>
  <path fill="#FFA7DA" opacity="1.000000" stroke="none" d=" M526.745605,1711.656006 C518.847839,1724.654175 511.129791,1737.321777 503.489380,1750.036011 C498.259827,1758.738403 493.209778,1767.549805 487.861908,1776.177734 C487.311279,1777.066284 484.844025,1777.787842 483.992554,1777.305176 C477.864777,1773.832031 471.924683,1770.027832 465.625183,1766.143677 C485.834717,1732.310059 505.912506,1698.696899 526.130310,1664.849365 C533.220947,1669.062500 539.963623,1673.068848 546.932190,1677.209473 C540.222961,1688.675903 533.590698,1700.010620 526.745605,1711.656006 z"/>
  <path fill="#FFA7DA" opacity="1.000000" stroke="none" d=" M1835.729980,601.327881 C1837.038208,604.493530 1838.120239,607.333313 1839.329468,610.506958 C1826.217529,616.021484 1813.371338,621.497864 1800.466919,626.833679 C1783.235962,633.958435 1765.956543,640.965881 1748.705444,648.042114 C1743.945679,649.994507 1739.093628,651.774414 1734.504639,654.073975 C1730.672729,655.994263 1729.219604,654.278564 1728.006836,651.041565 C1725.865601,645.327026 1723.586914,639.663879 1721.166504,633.469360 C1728.290894,630.410828 1735.705811,627.141846 1743.187256,624.032593 C1761.744019,616.320312 1780.328979,608.675415 1798.907227,601.015076 C1808.265747,597.156250 1817.662476,593.387756 1826.981567,589.436340 C1829.608765,588.322327 1830.968506,589.209717 1831.879150,591.556213 C1833.099121,594.700256 1834.296509,597.853027 1835.729980,601.327881 z"/>
  <path fill="#FFA7DA" opacity="1.000000" stroke="none" d=" M1784.411621,775.253052 C1794.155273,773.220459 1803.529541,771.459351 1812.875244,769.558228 C1829.967529,766.081299 1847.048462,762.548950 1864.122192,758.982910 C1870.563843,757.637573 1876.972534,756.134094 1883.506836,754.678101 C1885.193848,762.935669 1886.769043,770.645691 1888.319092,778.232788 C1865.347168,783.159546 1842.953857,787.980225 1820.552002,792.760193 C1806.024170,795.860168 1791.495239,798.956787 1776.938354,801.915283 C1774.410400,802.429077 1772.329590,802.248047 1771.852905,798.426025 C1771.078125,792.213989 1769.360352,786.119507 1767.879395,779.224609 C1773.248657,777.973450 1778.639038,776.717407 1784.411621,775.253052 z"/>
  <path fill="#FFA7DA" opacity="1.000000" stroke="none" d=" M1116.270996,1842.615479 C1114.512451,1833.796875 1112.989868,1825.355835 1111.437622,1816.920288 C1108.957642,1803.442383 1106.458008,1789.968018 1103.909668,1776.183960 C1111.981445,1774.656006 1119.701660,1773.194702 1127.504150,1771.717773 C1134.848267,1810.559814 1142.087891,1848.849121 1149.390747,1887.473145 C1142.121704,1889.017456 1135.252563,1890.601929 1128.316895,1891.801636 C1127.385376,1891.962891 1125.331421,1890.337524 1125.124756,1889.279907 C1122.114624,1873.877808 1119.331177,1858.431396 1116.270996,1842.615479 z"/>
  <path fill="#FFA7DA" opacity="1.000000" stroke="none" d=" M82.743103,911.002319 C64.525833,909.999084 46.779900,909.044983 29.041969,907.959961 C25.155817,907.722229 21.298185,907.018311 18.017050,906.603516 C18.017050,899.572021 17.893042,892.542236 18.172569,885.528564 C18.207874,884.642761 20.401360,883.070190 21.528946,883.126892 C28.553495,883.480591 35.557549,884.228088 42.571751,884.804138 C47.805283,885.233887 53.039120,885.686951 58.281162,885.980835 C71.105591,886.699890 83.944778,887.184204 96.759384,888.041626 C109.667572,888.905457 122.553253,890.105591 136.137970,891.214600 C135.667313,899.047668 135.198776,906.845825 134.707062,915.029419 C127.588783,914.447144 120.621536,913.800964 113.642593,913.326782 C105.925789,912.802429 98.195267,912.481201 90.477196,911.973267 C88.046516,911.813232 85.636696,911.336243 82.743103,911.002319 z"/>
</svg>