<?xml version="1.0" encoding="utf-8"?>
<svg viewBox="0 0 1920 1920" width="1920" height="1920" xmlns="http://www.w3.org/2000/svg">
  <path fill="#FFA7DA" opacity="1.000000" stroke="none" d=" M1746.937744,1019.611938 C1744.297485,1029.408691 1740.381104,1038.006958 1732.400635,1044.000488 C1728.589966,1046.862427 1724.383423,1049.197144 1719.913452,1052.053711 C1719.141968,1049.552124 1718.806396,1048.031006 1718.214111,1046.617432 C1715.318237,1039.705444 1713.946899,1034.303223 1722.675049,1029.251587 C1730.481567,1024.733276 1732.676636,1015.379272 1730.641479,1006.564697 C1728.270386,996.294922 1720.480713,990.564575 1710.612305,988.097107 C1700.076904,985.462952 1690.437134,987.106689 1682.259644,995.153442 C1670.962646,1006.270081 1673.804077,1022.404663 1685.863647,1030.864258 C1688.786621,1032.914673 1689.461548,1034.488525 1687.890503,1037.545044 C1685.980225,1041.261841 1684.363892,1045.129761 1682.460205,1049.281738 C1670.101685,1042.627441 1662.118286,1033.239746 1659.910889,1019.072571 C1657.655518,1004.597778 1660.917236,991.802917 1671.186157,981.520691 C1681.554810,971.138672 1694.400513,967.804932 1709.117310,969.796631 C1720.096191,971.282471 1729.249023,975.320496 1736.881836,983.307373 C1742.134766,988.804077 1744.964478,995.295166 1746.544922,1002.780640 C1746.927612,1008.324341 1746.949463,1013.732910 1746.937744,1019.611938 z"/>
  <path fill="#FFA7DA" opacity="1.000000" stroke="none" d=" M971.373779,1748.937622 C968.184814,1748.272095 965.406372,1747.791748 962.728821,1746.978882 C954.044006,1744.343018 948.570740,1738.251343 944.390991,1729.631592 C949.808350,1727.675903 954.823364,1725.785522 959.917419,1724.139893 C960.473877,1723.960205 961.669067,1725.043945 962.256287,1725.787720 C966.406860,1731.043457 971.449646,1733.958618 978.456726,1733.060425 C983.379211,1732.429443 987.336304,1729.581665 987.990173,1725.458618 C988.839783,1720.101318 986.769531,1716.807495 980.942139,1715.004395 C974.049438,1712.871460 966.940857,1711.379395 960.159790,1708.955078 C949.423035,1705.116699 942.686096,1695.723999 944.030273,1682.509277 C945.075623,1672.232666 951.602295,1665.006348 963.356628,1662.170166 C975.035217,1659.352295 986.640503,1660.156738 997.333984,1666.727051 C1001.776428,1669.456787 1005.500854,1673.785034 1008.032471,1680.448975 C1002.614197,1682.280884 997.202209,1684.110596 991.545715,1686.023071 C987.661316,1680.191650 982.897217,1675.129395 975.064941,1676.136963 C971.515137,1676.593506 967.766846,1677.970581 964.857178,1680.002197 C963.150513,1681.193726 961.520813,1685.257812 962.304504,1686.691528 C964.057251,1689.898071 966.884399,1693.270020 970.110229,1694.743042 C975.005920,1696.978516 980.592651,1697.742310 985.920715,1698.981079 C996.422363,1701.422363 1005.108765,1709.288208 1005.953796,1717.755737 C1007.722839,1735.481567 999.971680,1747.165405 980.242798,1748.530273 C977.333130,1748.927368 974.581787,1748.948975 971.373779,1748.937622 z"/>
  <path fill="#FFA7DA" opacity="1.000000" stroke="none" d=" M173.062119,958.386719 C174.061813,954.952087 174.839813,951.908752 176.031738,949.037109 C179.018509,941.841187 184.584747,937.437012 192.595062,934.575989 C194.441696,940.282654 196.228043,945.802979 198.012466,951.317383 C189.553467,954.884338 186.366425,964.786743 189.017471,970.993958 C190.752441,975.056274 192.880630,978.156311 198.119843,978.103516 C203.284729,978.051392 205.581543,974.745422 206.859146,970.891785 C208.978668,964.498901 209.949661,957.724121 212.084534,951.337524 C218.017853,933.588135 239.465591,928.237488 251.339722,939.997498 C255.132187,943.753601 258.287842,948.985779 259.723236,954.106445 C262.309357,963.332214 261.714050,972.957947 257.895691,981.914246 C254.720978,989.360718 250.068741,995.718079 240.940659,998.175781 C239.297394,993.137695 237.533081,988.180237 236.177292,983.113464 C235.959122,982.298096 237.333328,980.645569 238.359909,979.972717 C247.028915,974.290222 247.460159,959.887268 241.064056,954.489075 C236.611923,950.731506 230.947266,951.386475 228.724716,956.914856 C225.980606,963.740662 224.162231,970.940369 221.977753,977.988953 C219.844986,984.870789 216.211639,990.824158 209.470276,993.738098 C192.782654,1000.951172 175.766556,992.795776 173.459442,973.226318 C173.072464,968.341431 173.050659,963.598816 173.062119,958.386719 z"/>
  <path fill="#FFA7DA" opacity="1.000000" stroke="none" d=" M984.615723,174.062134 C986.540466,174.538757 987.998169,174.982193 989.600403,175.469589 C988.666992,197.954422 987.720459,220.755203 986.769531,243.661575 C999.411072,244.198288 1011.422241,244.708237 1023.754272,245.231796 C1023.399902,250.365997 1023.047363,255.473312 1022.648682,261.248596 C1004.847107,260.444580 987.124084,259.644073 968.587219,258.806824 C969.067261,249.862076 969.664307,241.177200 969.969177,232.482101 C970.421509,219.579193 970.613831,206.667374 971.023132,193.762711 C971.221558,187.509995 971.661865,181.264954 971.957642,174.557800 C975.997925,174.075745 980.073303,174.052353 984.615723,174.062134 z"/>
  <path fill="#FFA7DA" opacity="1.000000" stroke="none" d=" M1317.261963,321.242859 C1330.421997,311.416718 1343.362183,301.904144 1356.202637,292.258728 C1364.619751,285.935913 1364.558228,285.844269 1373.657959,290.964539 C1375.902100,292.227295 1378.118530,293.539124 1380.667847,295.013580 C1375.342896,324.844818 1370.002563,354.762390 1364.524048,385.453766 C1359.493652,382.309509 1354.145386,379.820526 1350.070801,375.980103 C1348.540405,374.537598 1349.509033,369.864014 1350.128174,366.824371 C1352.395264,355.694092 1352.468994,355.810455 1342.957153,350.415527 C1337.627197,347.392456 1332.471558,344.056427 1327.296631,340.768250 C1324.950684,339.277588 1323.107056,338.268005 1320.454712,340.781189 C1317.312012,343.759064 1313.600952,346.208527 1309.881592,348.468109 C1308.563965,349.268646 1306.162842,349.518188 1304.829346,348.859436 C1296.618042,344.802612 1288.687256,340.167206 1280.411621,336.256714 C1277.082397,334.683594 1275.991333,332.969452 1275.875366,329.322968 C1275.583496,320.139618 1274.787476,310.963531 1273.853760,301.819214 C1273.719971,300.509949 1271.900269,299.032806 1270.511230,298.269226 C1268.282593,297.044189 1265.761963,296.350403 1263.189453,295.364899 C1259.569214,302.707184 1255.487671,310.226044 1252.178955,318.070862 C1250.864502,321.187286 1249.914795,321.415924 1247.228394,320.096069 C1243.207153,318.120514 1239.022339,316.478210 1234.258667,314.412964 C1237.949219,306.800690 1241.518555,299.601379 1244.946533,292.335419 C1252.996338,275.272369 1261.042725,258.206940 1268.928467,241.067947 C1270.328247,238.025742 1271.576782,237.276917 1274.772705,238.888275 C1283.846436,243.463104 1293.258667,247.378860 1302.252930,252.096786 C1319.680176,261.238190 1322.881470,279.913666 1312.509399,294.662292 C1307.755859,301.421478 1300.258911,304.763702 1290.752808,303.956818 C1291.868652,315.429626 1292.953125,326.581207 1294.124756,338.627411 C1302.089478,332.663910 1309.544678,327.081970 1317.261963,321.242859 M1282.016602,260.524567 C1281.187134,260.676666 1279.850952,260.559570 1279.605225,261.021912 C1276.656250,266.570831 1273.769165,272.160126 1271.160645,277.873474 C1270.819702,278.620178 1271.819824,280.663849 1272.725220,281.175446 C1276.498657,283.307739 1280.361572,285.374908 1284.399780,286.923004 C1290.576660,289.290924 1296.203491,286.919006 1298.921265,281.276245 C1301.499268,275.923767 1299.788818,270.093506 1294.234375,266.756683 C1290.544189,264.539856 1286.524170,262.872253 1282.016602,260.524567 M1344.604614,332.954773 C1348.184937,335.040375 1351.765259,337.125977 1355.544556,339.327484 C1357.418579,329.358795 1359.196289,319.902374 1361.123047,309.653381 C1352.855103,316.000671 1345.208862,321.870636 1337.070557,328.118378 C1339.931274,329.928314 1341.968384,331.217194 1344.604614,332.954773 z"/>
  <path fill="#FFA7DA" opacity="1.000000" stroke="none" d=" M469.510559,350.198303 C479.566437,347.590179 488.343140,349.362183 495.641479,356.230255 C504.250244,364.331482 505.982849,374.245636 502.301544,385.290070 C502.100311,385.893799 502.056213,386.549896 501.834595,387.744263 C513.120850,391.746429 524.390198,395.742615 536.171204,399.920227 C533.273926,386.411621 530.506226,373.337006 527.659668,360.279541 C524.290100,344.822815 520.828430,329.386169 517.509705,313.918671 C517.328186,313.072479 517.972351,311.954651 518.462891,311.094971 C518.748901,310.593872 519.452026,310.250214 520.039246,310.014313 C524.976624,308.030640 528.180237,301.021637 534.268799,303.321472 C539.271484,305.211182 543.448303,309.307281 547.962341,312.466705 C560.569031,321.290375 573.151001,330.149445 585.762268,338.966583 C592.746216,343.849396 599.769287,348.676270 607.152222,353.789825 C602.040771,357.255981 597.094177,360.610291 591.996765,364.066925 C587.372925,360.905853 582.787231,357.595245 577.993164,354.620331 C576.835449,353.901917 574.564209,353.623627 573.526367,354.281281 C565.464661,359.390045 557.442200,364.591278 549.770020,370.254883 C548.425964,371.247070 548.220947,374.608643 548.473267,376.760681 C548.959106,380.905457 550.241882,384.951080 550.976929,389.076538 C551.154236,390.071564 550.843811,391.694855 550.147034,392.221863 C541.739624,398.580566 533.292969,404.895660 524.652893,410.930573 C523.166138,411.969025 520.458923,412.416473 518.777283,411.824707 C510.290955,408.838318 502.006348,405.279419 493.524139,402.279938 C492.043671,401.756439 489.726990,402.550781 488.204041,403.436890 C485.855530,404.803406 483.858948,406.774780 481.254272,408.856232 C487.748779,416.604492 493.903076,423.946899 500.290741,431.567719 C495.694153,435.487885 491.340698,439.200714 486.960419,442.936401 C468.742950,421.200500 450.761810,399.746582 432.354980,377.784760 C438.692688,372.382843 444.541412,366.890381 450.922821,362.108856 C456.686401,357.790161 463.032440,354.248749 469.510559,350.198303 M467.070282,369.399017 C463.494751,372.471466 459.919189,375.543915 456.046631,378.871582 C460.802216,384.518829 465.694305,390.328156 470.832184,396.429382 C475.056000,392.974243 479.264832,389.927094 482.983246,386.367645 C486.105652,383.378693 487.956390,379.493591 486.466705,374.987885 C484.227234,368.214447 477.146179,362.471344 467.070282,369.399017 M539.957092,327.439514 C539.133545,326.961121 538.309937,326.482758 536.894470,325.660553 C539.236389,336.003662 541.378479,345.464203 543.642273,355.462219 C549.921143,351.327057 555.854065,347.419769 562.276123,343.190277 C554.770874,337.954285 547.627686,332.970947 539.957092,327.439514 z"/>
  <path fill="#FFA7DA" opacity="1.000000" stroke="none" d=" M851.003113,1677.962402 C840.082275,1694.966675 829.063232,1711.510498 818.427673,1728.297363 C815.828979,1732.399170 813.929810,1735.408691 808.291321,1733.144897 C804.620605,1731.671143 800.408264,1731.546387 796.366150,1730.804199 C791.032532,1700.960571 785.710999,1671.184326 780.258301,1640.674561 C786.550842,1641.885986 792.659058,1643.062012 798.725281,1644.229858 C799.517334,1649.971191 800.123596,1655.473267 801.145264,1660.897217 C801.367188,1662.075562 802.925598,1663.610718 804.128052,1663.899048 C813.232605,1666.081787 822.370117,1668.172485 831.580688,1669.827515 C833.225464,1670.123169 835.846130,1668.737915 836.989258,1667.307983 C839.485168,1664.185547 841.630188,1660.680420 843.331238,1657.056030 C844.785400,1653.957520 846.743530,1653.788208 849.657654,1654.215454 C859.155579,1655.607788 868.670837,1656.925903 878.213623,1657.955811 C889.281921,1659.150391 900.390381,1659.970337 911.467407,1661.091064 C912.340393,1661.179199 913.850281,1662.405396 913.804199,1663.006104 C913.281189,1669.828857 912.543945,1676.636108 911.801697,1683.440796 C910.899109,1691.714966 909.830444,1699.972412 909.026001,1708.255737 C907.917664,1719.667725 907.033936,1731.101318 905.946594,1742.515503 C905.728333,1744.806519 904.656799,1746.424683 901.788696,1746.035889 C897.417419,1745.443359 893.013733,1745.090454 887.863220,1744.556885 C890.101868,1722.052734 892.355591,1699.396362 894.676575,1676.064453 C888.758972,1675.400269 882.528320,1674.634766 876.282654,1674.021729 C871.709167,1673.572876 867.085693,1673.539062 862.544250,1672.896973 C860.232178,1672.570312 857.000305,1672.395142 857.317444,1668.063721 C855.227051,1671.239746 853.136597,1674.415649 851.003113,1677.962402 M822.983093,1689.525513 C823.912842,1688.085693 824.842590,1686.645996 826.101929,1684.695801 C818.922607,1683.301636 812.223389,1682.000732 804.584595,1680.517334 C806.304932,1690.600098 807.862549,1699.729126 809.692139,1710.451904 C814.414368,1702.900391 818.434875,1696.471069 822.983093,1689.525513 z"/>
  <path fill="#FFA7DA" opacity="1.000000" stroke="none" d=" M1592.000244,586.000977 C1596.043213,577.354126 1600.041016,569.088562 1604.629517,559.601807 C1587.743164,569.393494 1571.877930,578.593140 1555.664917,587.994385 C1552.768066,583.088806 1549.782593,578.033142 1546.608276,572.657471 C1571.257202,558.355713 1595.634521,544.211548 1620.396118,529.844421 C1623.313965,534.776428 1626.369019,539.651123 1629.054565,544.721497 C1629.598633,545.748657 1629.076782,547.669983 1628.488892,548.916077 C1622.843018,560.882385 1617.077515,572.792297 1611.214722,584.991821 C1625.152954,586.005676 1638.870728,586.988525 1652.583496,588.037842 C1653.407715,588.100952 1654.569702,588.469116 1654.933838,589.078308 C1657.815308,593.899414 1660.541016,598.813538 1663.580933,604.168213 C1638.939331,618.471985 1614.630371,632.582764 1589.903076,646.936340 C1586.972412,642.001526 1584.014648,637.020813 1580.861084,631.710693 C1597.078857,622.310425 1613.290161,612.913940 1630.076904,603.183899 C1615.030151,602.036377 1600.592285,600.935303 1585.227295,599.763489 C1587.647583,594.949646 1589.801270,590.665955 1592.000244,586.000977 z"/>
  <path fill="#FFA7DA" opacity="1.000000" stroke="none" d=" M1692.899170,1226.023071 C1695.739990,1227.239502 1698.184692,1228.432983 1701.461792,1230.032837 C1699.320190,1235.358032 1697.426270,1241.149414 1694.586670,1246.432617 C1693.790649,1247.913696 1690.245850,1248.074951 1687.902100,1248.540161 C1676.150513,1250.872803 1664.379028,1253.105347 1652.098999,1255.472412 C1656.907471,1262.979736 1661.737427,1270.524414 1666.578491,1278.062012 C1666.754517,1278.336182 1667.086304,1278.509155 1667.267822,1278.781250 C1676.049072,1291.944336 1676.114014,1294.628174 1667.710083,1308.926880 C1641.856445,1297.856079 1615.934082,1286.755981 1589.558716,1275.461914 C1591.839478,1270.229126 1594.009888,1265.249390 1596.556030,1259.407471 C1613.570312,1266.647217 1630.469116,1273.837891 1648.620850,1281.561768 C1640.272583,1268.483398 1632.607544,1256.475586 1624.553467,1243.858154 C1639.040283,1241.027466 1652.938354,1238.311768 1668.311768,1235.307739 C1664.462769,1233.531982 1661.749512,1232.187134 1658.964722,1231.011475 C1646.223022,1225.631226 1633.467773,1220.282959 1620.701782,1214.960449 C1617.751465,1213.730469 1615.867798,1212.344360 1617.969116,1208.740723 C1619.583008,1205.973145 1621.064087,1202.998169 1621.867554,1199.922974 C1622.758057,1196.515015 1624.105591,1196.753296 1626.801758,1197.917603 C1648.667358,1207.359131 1670.594727,1216.657837 1692.899170,1226.023071 z"/>
  <path fill="#FFA7DA" opacity="1.000000" stroke="none" d=" M681.351074,1697.720215 C680.939575,1695.848755 680.396851,1694.055420 680.867249,1692.586670 C686.852661,1673.898071 692.983887,1655.256104 699.077026,1636.602173 C701.265015,1629.903564 703.450317,1623.204224 705.739563,1616.190796 C711.002197,1617.868286 715.980896,1619.371216 720.881470,1621.096313 C721.752380,1621.402832 722.642883,1622.520874 722.943909,1623.451904 C729.845032,1644.799316 736.665527,1666.172852 743.540039,1687.662964 C748.790283,1671.510132 754.046448,1655.482788 759.186279,1639.418213 C760.375244,1635.702148 761.859192,1633.849487 766.148132,1635.880249 C769.727661,1637.575073 773.708069,1638.423218 777.813782,1639.743530 C769.049683,1666.559448 760.391296,1693.051880 751.395081,1720.578003 C746.032715,1718.938477 740.507507,1717.448853 735.171936,1715.452393 C734.080017,1715.043823 733.511536,1712.797363 733.018372,1711.294189 C726.461182,1691.305908 719.960388,1671.299194 713.191833,1650.518066 C711.033508,1656.586426 708.943726,1662.093018 707.114502,1667.684692 C703.665161,1678.228882 700.313416,1688.805908 697.042969,1699.406982 C696.266357,1701.924194 695.204651,1702.377563 692.740356,1701.412964 C689.154602,1700.009277 685.382996,1699.080444 681.351074,1697.720215 z"/>
  <path fill="#FFA7DA" opacity="1.000000" stroke="none" d=" M178.000122,1044.235107 C179.482330,1032.853882 183.332703,1023.257996 191.766022,1015.550171 C198.147018,1009.718201 205.578766,1006.632385 213.735565,1005.077454 C222.984024,1003.314453 231.988708,1004.137878 240.890335,1007.863403 C254.537552,1013.574890 262.070190,1023.959534 264.922058,1037.924805 C267.818481,1052.108521 265.793213,1065.382568 256.042694,1076.850830 C249.230484,1084.863159 240.388779,1089.236694 230.305984,1090.898804 C219.556000,1092.671021 209.051743,1091.625366 199.295609,1086.059326 C187.702454,1079.445190 181.192978,1069.403442 179.047607,1056.428955 C178.408813,1052.565796 178.333496,1048.609497 178.000122,1044.235107 M229.395737,1022.992737 C224.920044,1022.995850 220.303009,1022.280396 215.993484,1023.128113 C198.602905,1026.549194 187.428040,1045.126099 198.560455,1062.063843 C204.929565,1071.754150 217.258392,1075.956543 229.409821,1072.834839 C241.328964,1069.772705 250.072525,1058.814209 250.004257,1047.066772 C249.952591,1038.176147 243.354736,1025.793945 229.395737,1022.992737 z"/>
  <path fill="#FFA7DA" opacity="1.000000" stroke="none" d=" M214.382263,926.998657 C203.421967,925.033325 194.322052,920.675232 186.983597,912.579407 C177.763855,902.408020 175.806427,890.337158 177.338699,877.465576 C178.487732,867.813110 182.133820,858.981628 189.402939,852.139221 C200.033005,842.133118 212.456085,838.683289 227.046051,840.773682 C237.298355,842.242676 246.396027,845.618835 253.340103,853.040161 C262.952026,863.312927 266.451019,875.604553 264.224884,889.844604 C262.768799,899.158936 259.690765,907.329651 253.301376,914.164185 C245.088135,922.949463 234.962280,927.374756 222.841019,927.011658 C220.177368,926.931824 217.509277,926.999878 214.382263,926.998657 M245.972260,895.225830 C252.125137,881.530762 247.851318,872.218018 241.175964,865.943604 C232.825302,858.094543 222.225098,855.816711 211.301422,859.155518 C198.369965,863.107971 190.380585,875.766846 193.449768,888.437622 C196.520584,901.115112 203.654663,907.054260 215.588104,908.708618 C228.621780,910.515564 237.691650,909.225403 245.972260,895.225830 z"/>
  <path fill="#FFA7DA" opacity="1.000000" stroke="none" d=" M1235.791260,291.556580 C1230.653320,303.458344 1217.279907,307.843231 1204.603027,303.261993 C1193.445801,299.229919 1182.163330,295.544464 1170.761963,291.646362 C1175.770874,277.494537 1180.611816,263.711304 1185.529541,249.955505 C1189.639282,238.460037 1193.912354,227.022476 1197.948120,215.501480 C1198.989258,212.529129 1199.925781,211.239761 1203.452637,212.693573 C1214.118164,217.090073 1225.514648,220.030045 1235.599976,225.448181 C1254.334595,235.513107 1251.193359,259.567047 1233.079956,266.480164 C1238.962769,274.150787 1239.619263,282.441833 1235.791260,291.556580 M1216.420654,269.949280 C1210.854004,267.574707 1205.287231,265.200165 1199.645630,262.793671 C1198.994263,264.536255 1198.507568,266.047394 1197.876221,267.495422 C1191.383423,282.386261 1191.376953,282.383423 1206.707397,287.263214 C1212.176147,289.003937 1216.722290,287.895874 1218.960083,284.276917 C1222.305054,278.866943 1221.808960,275.409698 1216.420654,269.949280 M1206.454224,243.039017 C1205.889160,245.164581 1205.324219,247.290131 1204.746582,249.462982 C1207.077271,250.186401 1208.925903,250.684280 1210.717651,251.337555 C1212.515259,251.993027 1214.212769,252.940338 1216.030518,253.520309 C1221.522827,255.272675 1227.240967,253.116730 1228.984985,248.749298 C1231.405518,242.687241 1229.618042,238.082642 1223.483521,235.207199 C1220.299438,233.714752 1217.004639,232.385956 1213.637329,231.402435 C1212.656738,231.116043 1210.553833,231.965347 1210.170654,232.828903 C1208.813477,235.887680 1207.977783,239.177841 1206.454224,243.039017 z"/>
  <path fill="#FFA7DA" opacity="1.000000" stroke="none" d=" M1506.000000,503.223938 C1508.041870,483.882233 1519.303223,471.752838 1536.018188,465.229370 C1558.869019,456.311340 1582.243408,468.767822 1591.118774,491.211578 C1602.105225,518.994019 1582.136963,544.760498 1557.572998,550.130676 C1534.525024,555.169434 1514.135010,539.105835 1508.073608,519.580994 C1506.512939,514.553955 1506.645386,509.001190 1506.000000,503.223938 M1563.261963,528.968994 C1564.549561,527.974243 1565.841431,526.984985 1567.124023,525.983887 C1574.417969,520.291138 1578.384033,512.415039 1577.727173,503.584106 C1576.945068,493.068207 1570.803589,484.782623 1560.755371,481.162445 C1542.326904,474.522980 1520.200073,492.521698 1522.953857,511.101715 C1524.486450,521.442322 1529.765625,528.297668 1539.565552,532.288147 C1548.102417,535.764343 1555.321655,533.339478 1563.261963,528.968994 z"/>
  <path fill="#FFA7DA" opacity="1.000000" stroke="none" d=" M684.350830,1646.192383 C677.830505,1667.737427 657.761536,1681.697754 634.959412,1677.140259 C617.893860,1673.729126 606.105469,1664.729248 600.562622,1648.055664 C599.960449,1646.244141 599.808655,1644.282959 599.380859,1642.039185 C603.829468,1641.378540 608.445862,1640.468140 613.102539,1640.153564 C614.321594,1640.071289 616.477722,1641.601440 616.826721,1642.793823 C620.286316,1654.617920 628.824646,1660.443115 640.299316,1661.471558 C647.841858,1662.147827 655.048401,1659.021729 660.125244,1653.181152 C665.271790,1647.260620 669.011353,1640.171875 668.879456,1632.123657 C668.691589,1620.655396 662.891357,1611.404297 650.646118,1607.146973 C642.080261,1604.168823 633.326538,1605.159302 626.495178,1614.533325 C629.515625,1616.071777 632.406372,1617.604004 635.350281,1619.026367 C638.224548,1620.415039 641.153076,1621.691528 644.379517,1623.164062 C642.148499,1627.631104 640.152161,1631.628296 638.049866,1635.837402 C626.947388,1630.671631 616.077332,1625.613892 604.879028,1620.403442 C609.916992,1610.516846 613.563416,1599.852417 624.221863,1593.917236 C639.057251,1585.656006 653.072937,1588.609619 666.362000,1597.014648 C684.594421,1608.546387 689.006775,1625.676636 684.350830,1646.192383 z"/>
  <path fill="#FFA7DA" opacity="1.000000" stroke="none" d=" M1029.191162,210.517914 C1033.377075,199.127136 1040.389893,190.712646 1050.986450,185.510178 C1069.844116,176.251892 1096.806030,181.540924 1107.884766,201.211929 C1109.755493,204.533524 1109.008423,205.798477 1106.013428,206.977203 C1102.144531,208.499832 1098.291504,210.063004 1095.032959,211.367905 C1091.341431,207.851990 1088.177979,203.780304 1084.090088,201.139633 C1070.664551,192.467392 1054.546265,199.418655 1048.455078,211.982727 C1040.119995,229.175018 1047.214600,247.212723 1064.770996,252.337952 C1074.527466,255.186142 1085.250977,251.535324 1089.898804,243.351257 C1091.947876,239.743027 1091.166016,238.391953 1087.176270,237.961914 C1082.193359,237.424820 1077.240723,236.607330 1072.436035,235.933502 C1073.097290,231.118881 1073.710327,226.654907 1074.337891,222.084946 C1086.184326,223.803543 1097.877808,225.499985 1109.551758,227.193604 C1109.761353,246.169281 1103.008423,264.422302 1081.447021,268.463776 C1057.908325,272.875977 1033.070435,261.709747 1027.840088,234.638138 C1026.251587,226.416092 1027.888916,218.768890 1029.191162,210.517914 z"/>
  <path fill="#FFA7DA" opacity="1.000000" stroke="none" d=" M752.879883,204.000000 C764.946167,204.504730 773.182434,210.275787 777.262451,220.913452 C781.625427,232.289093 779.169006,242.668106 770.218201,251.369659 C779.281189,259.817078 788.334290,268.255280 798.083008,277.341827 C791.299072,279.434662 785.567749,281.293640 779.762756,282.883728 C778.998840,283.093018 777.697266,282.100342 776.917786,281.372040 C770.513428,275.388824 763.994995,269.510193 757.892029,263.229645 C754.963928,260.216248 752.244385,259.178833 748.390991,260.961334 C746.811584,261.691956 745.006042,261.933838 742.953674,262.493347 C745.046997,269.857269 747.056763,277.251282 749.261597,284.586639 C751.216919,291.092041 751.316956,291.076935 745.164612,293.013245 C741.797180,294.073029 738.412354,295.077515 734.553772,296.253754 C731.021667,284.823059 727.434692,273.566101 724.072021,262.242554 C719.951111,248.365433 716.064270,234.418945 711.981995,220.530151 C710.231812,214.575668 710.135254,214.647461 716.345398,212.888153 C725.784485,210.214081 735.181274,207.385849 744.651978,204.830551 C747.134583,204.160706 749.823608,204.256042 752.879883,204.000000 M759.636108,226.117462 C757.452515,224.411758 755.511108,221.875504 753.040222,221.155090 C745.429016,218.935913 738.938171,223.398895 731.863770,225.304230 C734.133728,232.798279 736.292053,239.923737 738.420593,246.950867 C742.380249,245.891602 745.958740,245.031723 749.477722,243.974075 C758.779541,241.178329 763.219727,235.081711 759.636108,226.117462 z"/>
  <path fill="#FFA7DA" opacity="1.000000" stroke="none" d=" M1691.853516,824.374390 C1688.015381,821.784302 1684.462158,819.473572 1680.560303,816.936157 C1676.805054,820.402832 1672.183838,824.636780 1667.599487,828.910156 C1663.023315,833.175903 1658.484009,837.481140 1653.439087,842.229736 C1651.889771,835.868225 1650.137085,830.124023 1649.289062,824.249268 C1649.054321,822.623535 1651.214111,820.294495 1652.781372,818.829712 C1658.784546,813.219727 1664.950073,807.780029 1671.147339,802.382812 C1673.644775,800.207764 1674.780884,798.091919 1673.115479,794.735352 C1672.146851,792.782898 1672.130493,790.357910 1671.697510,788.205200 C1661.967041,790.327393 1652.388550,792.416443 1642.539551,794.564453 C1641.211426,788.483337 1640.022217,783.038086 1638.797729,777.431458 C1666.414673,771.235291 1693.630127,765.129150 1721.702637,758.830750 C1722.795532,763.201904 1724.011230,767.580261 1724.971558,772.013977 C1726.544189,779.274780 1727.994629,786.562927 1729.417847,793.854919 C1732.175415,807.983582 1723.503296,823.154053 1707.781616,826.129211 C1702.221924,827.181335 1697.264160,826.035156 1691.853516,824.374390 M1710.563965,782.051392 C1709.308716,781.384216 1707.905884,779.962402 1706.822632,780.174316 C1700.554077,781.401306 1694.360962,783.013550 1687.303955,784.695129 C1688.880493,790.499634 1689.961670,796.363464 1692.099976,801.812561 C1694.144531,807.022888 1699.945801,809.304749 1705.166260,807.998718 C1710.073364,806.770996 1713.238403,802.584595 1712.914795,796.720215 C1712.657715,792.062317 1711.639282,787.446533 1710.563965,782.051392 z"/>
  <path fill="#FFA7DA" opacity="1.000000" stroke="none" d=" M1474.753052,363.256531 C1483.288696,372.897278 1487.159790,383.734863 1485.805908,396.420441 C1481.695068,395.946198 1477.599243,395.330658 1473.480469,395.045105 C1470.338745,394.827301 1468.886108,393.782837 1468.923706,390.289734 C1469.035889,379.898682 1463.654419,372.566681 1454.603760,368.360718 C1443.454834,363.179657 1432.754028,366.892761 1426.222656,373.163574 C1419.450195,379.665802 1414.768311,387.016815 1415.047852,396.650177 C1415.399292,408.761871 1428.136230,424.182861 1444.613892,420.874268 C1447.311768,420.332581 1449.716675,418.332367 1453.218872,416.504028 C1447.817139,411.785095 1443.200439,407.752075 1438.097656,403.294403 C1440.812256,399.931641 1443.679077,396.380463 1446.737183,392.592316 C1456.012085,400.388062 1464.997681,407.940735 1474.368896,415.817383 C1467.089233,425.870697 1459.237427,434.250397 1446.216309,437.182373 C1425.449341,441.858459 1402.168945,420.227722 1398.657104,401.914185 C1394.592896,380.720123 1409.839966,356.329407 1430.751221,350.669556 C1445.181396,346.763885 1457.955566,349.991150 1469.529297,359.038055 C1471.197998,360.342438 1472.842163,361.678314 1474.753052,363.256531 z"/>
  <path fill="#FFA7DA" opacity="1.000000" stroke="none" d=" M478.011536,1472.080444 C484.990570,1487.000244 483.194092,1501.007080 474.398804,1513.907349 C467.536835,1523.972046 458.110718,1530.693237 445.647949,1533.208618 C433.441254,1535.672485 422.631104,1532.686523 412.837067,1526.107910 C403.279724,1519.688477 396.553497,1510.640991 394.629211,1498.998291 C393.796814,1493.961792 394.489624,1488.673096 394.489624,1483.117676 C400.449310,1484.553223 405.781555,1485.837524 411.083801,1487.114624 C407.583374,1504.233887 423.528717,1520.209473 440.601410,1516.622681 C452.769409,1514.066284 460.608887,1506.067017 464.351929,1494.162720 C468.888611,1479.734131 455.408142,1461.455200 440.379303,1462.145020 C436.543488,1462.321045 432.789673,1464.284790 428.352234,1465.621826 C433.835144,1470.825928 438.517181,1475.269775 442.913300,1479.442383 C439.236053,1483.208984 436.069336,1486.452637 432.624969,1489.980713 C424.887604,1482.277710 416.853302,1474.367554 408.994537,1466.286499 C408.369537,1465.643921 408.420288,1463.336548 409.065399,1462.616577 C420.018219,1450.390015 432.803162,1442.351440 450.041870,1447.078979 C462.243042,1450.425049 470.751709,1458.662476 476.860413,1469.528809 C477.256805,1470.234009 477.597687,1470.970581 478.011536,1472.080444 z"/>
  <path fill="#FFA7DA" opacity="1.000000" stroke="none" d=" M1499.234619,1444.733398 C1493.612305,1439.581299 1488.241577,1434.688232 1482.970459,1429.885986 C1486.820312,1425.539917 1490.418701,1421.477783 1494.595581,1416.762451 C1515.290894,1436.080933 1535.911987,1455.330078 1556.599121,1474.640869 C1556.467163,1474.953125 1556.368286,1475.656250 1555.968140,1476.064697 C1546.870117,1485.354980 1538.584839,1495.698242 1528.416626,1503.623657 C1513.025146,1515.620117 1491.366089,1507.584473 1487.005005,1489.358765 C1485.829346,1484.445312 1486.268188,1479.145508 1485.914917,1473.156738 C1474.843750,1470.776978 1462.616089,1468.148682 1449.248901,1465.275391 C1454.079102,1460.440308 1458.198120,1455.192017 1463.455322,1451.618042 C1465.511108,1450.220337 1470.151367,1452.463013 1473.565308,1453.258545 C1479.995117,1454.756836 1486.373169,1456.479248 1492.806030,1457.963623 C1495.714355,1458.634644 1498.247314,1458.620361 1499.755737,1454.973755 C1500.482056,1453.217896 1502.913208,1452.167236 1505.976196,1449.637939 C1503.239502,1447.678955 1501.362915,1446.335571 1499.234619,1444.733398 M1529.520020,1480.986084 C1530.748291,1479.691650 1531.976685,1478.397217 1533.463745,1476.830200 C1527.624268,1471.473999 1522.044189,1466.355591 1516.151733,1460.950806 C1512.413574,1465.161377 1508.495483,1469.377808 1504.810913,1473.789307 C1502.037109,1477.109985 1501.977173,1483.956787 1505.309937,1487.416504 C1508.221436,1490.438965 1511.999390,1493.927856 1516.733643,1490.949097 C1521.086792,1488.210449 1524.937012,1484.672363 1529.520020,1480.986084 z"/>
  <path fill="#FFA7DA" opacity="1.000000" stroke="none" d=" M1260.263428,1613.674805 C1258.012573,1609.157959 1255.982178,1604.953491 1253.772705,1600.378296 C1258.720215,1597.592407 1263.595215,1594.847412 1269.061401,1591.769531 C1274.536255,1602.164429 1279.936401,1612.417480 1285.646729,1623.259399 C1296.702515,1617.488403 1307.764160,1611.714355 1318.833252,1605.936401 C1313.805176,1596.291504 1308.842285,1586.920410 1304.087036,1577.444824 C1303.547119,1576.368774 1303.680664,1573.829590 1304.340210,1573.458496 C1308.803711,1570.946777 1313.492676,1568.835693 1318.319092,1566.493042 C1331.601807,1591.949463 1344.641846,1616.941284 1357.705444,1641.978027 C1352.185791,1644.948364 1347.406738,1647.520142 1342.173828,1650.336182 C1336.967773,1640.419067 1331.879517,1630.726685 1326.551880,1620.578125 C1315.501343,1626.341919 1304.708008,1631.971680 1293.411377,1637.863892 C1296.964966,1644.846558 1300.390747,1651.588135 1303.830566,1658.322510 C1304.194336,1659.034912 1304.663330,1659.692871 1305.043335,1660.397583 C1309.213501,1668.131592 1309.714478,1667.307617 1301.652222,1671.095337 C1292.603027,1675.346436 1292.795898,1675.453613 1288.221924,1666.676758 C1279.048950,1649.075562 1269.737793,1631.546265 1260.263428,1613.674805 z"/>
  <path fill="#FFA7DA" opacity="1.000000" stroke="none" d=" M293.136322,1234.021240 C298.341705,1232.172485 303.202850,1230.479492 307.927399,1228.466064 C310.517975,1227.361938 311.952454,1228.115723 312.854706,1230.494507 C314.501556,1234.836792 316.091217,1239.200684 317.805573,1243.827637 C291.455200,1253.825439 265.026062,1263.853027 238.060165,1274.084351 C236.005249,1268.812500 233.923599,1263.472046 231.630981,1257.590332 C242.225830,1253.539795 252.629532,1249.562378 263.155396,1245.538086 C259.039154,1234.766724 254.908386,1224.309448 251.092941,1213.738281 C250.071640,1210.908691 249.139221,1210.687378 246.454575,1211.764526 C237.370041,1215.409424 228.142975,1218.698853 218.536362,1222.286255 C216.659592,1217.378174 214.681351,1212.680054 213.177002,1207.834961 C212.904205,1206.956299 214.308914,1204.785156 215.383957,1204.374390 C234.296814,1197.146729 253.280334,1190.104248 272.244812,1183.011475 C277.664062,1180.984741 283.164215,1179.135498 288.445587,1176.794922 C291.124786,1175.607422 292.151978,1175.852661 293.090454,1178.717896 C294.484741,1182.974854 296.398773,1187.061523 298.394012,1191.963745 C287.221832,1196.244873 276.195282,1200.470337 265.185608,1204.689209 C269.742493,1216.733765 274.096832,1228.242920 278.519867,1239.933594 C283.255737,1237.971191 287.995422,1236.007324 293.136322,1234.021240 z"/>
  <path fill="#FFA7DA" opacity="1.000000" stroke="none" d=" M258.091492,688.975586 C273.294037,693.988220 288.044495,699.113342 302.919434,703.847412 C305.844391,704.778259 305.959869,705.466553 305.106415,708.153076 C300.801147,721.705261 300.913605,721.702576 287.572266,717.237671 C281.924042,715.347473 276.113373,713.899902 270.573975,711.743958 C267.470062,710.535889 266.793915,711.234192 265.852448,714.220032 C262.528595,724.761414 258.777740,735.168152 255.046188,746.041565 C260.755432,748.046631 266.312958,750.067749 271.918030,751.947021 C277.407928,753.787598 282.946350,755.483521 288.739227,757.330872 C287.255280,761.656128 285.362762,765.891296 284.414124,770.328247 C283.602386,774.124817 281.968048,774.011292 279.022888,773.009216 C254.488144,764.661133 229.922134,756.404846 205.359680,748.138367 C204.755951,747.935181 204.084122,747.934326 202.403961,747.684509 C204.048035,742.068298 205.645554,736.611023 207.456024,730.426331 C218.236191,733.964905 228.734375,737.410950 239.767517,741.032532 C243.720230,729.254578 247.698334,717.400940 251.709808,705.447876 C241.160706,701.895691 230.554962,698.324463 219.916489,694.742188 C221.816284,689.039062 223.592316,683.707520 225.524567,677.906982 C236.218750,681.579712 246.950867,685.265381 258.091492,688.975586 z"/>
  <path fill="#FFA7DA" opacity="1.000000" stroke="none" d=" M1662.643799,1127.286865 C1657.443359,1126.343140 1652.557007,1125.884766 1647.832153,1124.752686 C1646.627197,1124.463867 1645.096313,1121.996582 1645.167847,1120.604736 C1645.357056,1116.918579 1646.355835,1113.275757 1647.004150,1109.610718 C1647.550171,1106.525024 1649.512085,1106.904297 1651.831055,1107.360840 C1661.988037,1109.360352 1672.171753,1111.225342 1682.403687,1113.150024 C1684.618042,1101.647949 1686.772705,1090.385132 1688.962646,1079.129150 C1689.530273,1076.211304 1687.714355,1075.407593 1685.440552,1075.017944 C1675.399048,1073.296997 1665.353027,1071.601929 1654.655029,1069.786621 C1655.650024,1063.840210 1656.596313,1058.184937 1657.583130,1052.287476 C1685.508423,1057.397095 1712.974609,1062.422729 1741.221558,1067.591187 C1740.434204,1072.742310 1739.678223,1078.141968 1738.660400,1083.491943 C1738.578369,1083.922729 1736.633911,1084.371338 1735.660400,1084.202759 C1726.083618,1082.544678 1716.530029,1080.751587 1706.965210,1079.023560 C1706.508301,1078.940918 1706.006470,1079.107788 1705.344116,1079.177490 C1703.232056,1090.287964 1701.115112,1101.394775 1699.012451,1112.504272 C1698.457520,1115.436523 1700.078613,1116.590454 1702.687012,1117.003174 C1711.018799,1118.321655 1719.347290,1119.660889 1727.671021,1121.029175 C1730.397705,1121.477539 1731.553345,1123.074951 1730.978516,1125.858521 C1730.292236,1129.181396 1729.948975,1132.614990 1728.858521,1135.795532 C1728.402588,1137.125488 1726.216309,1138.998779 1725.138550,1138.807983 C1709.850708,1136.100464 1694.626709,1133.035889 1679.367920,1130.160767 C1673.944824,1129.138916 1668.469482,1128.393433 1662.643799,1127.286865 z"/>
  <path fill="#FFA7DA" opacity="1.000000" stroke="none" d=" M907.908142,242.576874 C906.388184,243.897079 904.593994,244.677826 904.079285,245.968719 C902.008911,251.161194 900.334167,256.511444 898.483398,261.890381 C892.471802,261.890381 886.493835,261.890381 880.239319,261.890381 C886.652344,242.569077 893.015442,223.349503 899.415161,204.142136 C901.804321,196.971710 905.022095,189.978226 906.490173,182.629974 C907.773804,176.204224 911.807129,175.365036 916.731018,175.046661 C920.369873,174.811371 924.036133,175.000427 927.602112,175.000427 C940.214172,202.588699 952.720642,229.946091 965.301392,257.465881 C960.613403,258.016998 956.431274,258.483368 952.256287,259.007050 C948.627258,259.462189 945.867859,258.811279 944.842529,254.608276 C944.279785,252.301208 942.728516,250.248657 942.041199,247.955963 C940.342102,242.288483 936.991943,240.123825 930.913086,240.878586 C923.407410,241.810486 915.790710,241.847931 907.908142,242.576874 M920.593750,200.079529 C920.254639,199.548782 919.915527,199.018021 919.423279,198.247528 C916.240906,207.807602 913.115417,217.196960 909.915710,226.809235 C917.366821,226.430054 924.388428,226.072723 931.811096,225.694992 C928.205322,217.398438 924.586975,209.072998 920.593750,200.079529 z"/>
  <path fill="#FFA7DA" opacity="1.000000" stroke="none" d=" M603.294373,1564.792236 C612.113831,1573.668823 612.262085,1590.695190 605.703735,1601.565918 C596.370117,1617.036621 586.593079,1632.239990 576.666260,1648.099487 C571.642090,1644.959717 566.698608,1641.870483 561.563782,1638.661621 C571.103699,1623.427490 580.331055,1608.667480 589.585876,1593.924561 C594.172180,1586.618652 593.909363,1579.693115 588.733154,1573.327515 C584.325989,1567.907349 575.338989,1565.071533 568.882751,1568.187988 C565.401245,1569.868652 562.242432,1573.150024 560.073608,1576.454590 C551.216064,1589.949951 542.706421,1603.677612 534.294006,1617.457397 C532.680176,1620.100952 531.679077,1620.716553 529.089478,1618.712646 C526.293762,1616.549316 522.960693,1615.079590 520.171448,1612.909546 C519.202087,1612.155396 518.317810,1609.701172 518.813416,1608.890503 C528.154541,1593.609619 537.638428,1578.414185 547.238464,1563.293701 C557.071228,1547.806519 577.627747,1546.381836 591.289917,1554.943481 C595.539673,1557.606567 599.134766,1561.314209 603.294373,1564.792236 z"/>
  <path fill="#FFA7DA" opacity="1.000000" stroke="none" d=" M679.022583,236.899048 C677.999023,233.971634 676.997986,231.440262 675.685181,228.120331 C680.520508,226.082596 685.299866,223.951904 690.200500,222.151138 C690.810913,221.926849 692.562439,223.248932 692.945007,224.194382 C700.051880,241.761185 707.574768,259.188416 713.856323,277.050751 C718.454590,290.126678 712.139465,303.514526 700.634888,310.842407 C688.544006,318.543854 675.795471,321.139069 662.374084,314.676605 C654.692444,310.977814 650.376038,304.014221 647.208252,296.459869 C640.993469,281.639191 635.150513,266.662140 628.881592,251.865112 C627.661926,248.986267 628.026917,247.680511 630.782410,246.635025 C634.686646,245.153656 638.840454,241.939117 642.325439,242.570129 C644.715088,243.002808 646.423523,248.594879 647.960510,252.089981 C653.721313,265.189545 659.116272,278.451752 664.987976,291.500122 C668.573669,299.468323 674.788940,302.475342 682.833313,300.977936 C690.256897,299.596069 697.746399,292.717590 697.737427,285.729889 C697.731873,281.440704 695.642334,277.032532 693.964172,272.890228 C689.133911,260.967346 684.037170,249.152420 679.022583,236.899048 z"/>
  <path fill="#FFA7DA" opacity="1.000000" stroke="none" d=" M489.026917,1501.059326 C490.588135,1495.799316 492.122833,1490.954224 493.769592,1485.755493 C497.598511,1488.735718 501.174377,1491.765137 505.005096,1494.427856 C508.496368,1496.854858 507.559113,1499.815063 506.570801,1502.873169 C505.199127,1507.117798 503.734589,1511.332520 502.190460,1515.913940 C511.067993,1522.901611 519.999573,1529.931763 529.149597,1537.134033 C534.736816,1533.812256 540.398010,1530.446533 546.261047,1526.960815 C550.818604,1530.683594 555.461304,1534.475952 560.334229,1538.456299 C548.090820,1545.763428 536.374207,1552.854980 524.559937,1559.779785 C512.330750,1566.948120 499.814484,1573.648315 487.816711,1581.179443 C482.862854,1584.289062 479.801178,1583.266602 475.611206,1580.076904 C467.325714,1573.769043 467.096375,1573.716797 469.995483,1564.233521 C476.056152,1544.408081 481.997498,1524.546265 487.990204,1504.700073 C488.315918,1503.621460 488.663177,1502.549561 489.026917,1501.059326 M496.367554,1535.117432 C493.710510,1543.640137 491.053467,1552.162842 488.106873,1561.614136 C497.444885,1556.008911 506.088257,1550.820557 514.709351,1545.645508 C508.783264,1541.004761 503.132507,1536.579712 497.188141,1531.924561 C497.047607,1533.244629 496.977448,1533.903687 496.367554,1535.117432 z"/>
  <path fill="#FFA7DA" opacity="1.000000" stroke="none" d=" M1649.736572,686.702026 C1647.200806,688.308472 1645.790039,688.092285 1644.670410,685.328613 C1641.951660,678.617310 1638.722412,672.111328 1636.048828,665.383606 C1633.546875,659.087891 1633.582397,659.002014 1627.581055,661.769165 C1623.803345,663.511169 1619.898315,664.976929 1615.757324,666.687683 C1620.113770,676.628662 1624.273560,686.575134 1628.855225,696.323364 C1630.407593,699.626343 1630.177246,701.418152 1626.711548,702.736633 C1623.113647,704.105408 1619.596069,705.685059 1615.687866,707.321411 C1608.421875,690.658447 1601.244507,674.198975 1593.763672,657.043579 C1619.672485,645.767334 1645.593262,634.485901 1671.978394,623.002319 C1674.391724,628.529968 1676.843628,634.100830 1679.258667,639.687622 C1683.537842,649.586731 1687.649780,659.562012 1692.154663,669.356934 C1693.397827,672.059937 1692.970459,673.164124 1690.437866,674.222778 C1686.588989,675.831543 1682.825684,677.645020 1678.785522,679.480957 C1673.794189,668.063354 1668.984375,657.060852 1664.023926,645.713562 C1658.470093,648.214294 1653.412476,650.491577 1647.940186,652.955688 C1652.110840,662.620300 1656.145020,671.968689 1660.413696,681.860474 C1656.749878,683.482849 1653.393433,684.969177 1649.736572,686.702026 z"/>
  <path fill="#FFA7DA" opacity="1.000000" stroke="none" d=" M1020.300476,1669.193970 C1024.970093,1663.268066 1030.906006,1659.937866 1037.619751,1657.814941 C1054.313599,1652.535645 1069.563477,1655.073608 1081.963989,1667.703857 C1090.447754,1676.344727 1093.790771,1687.443359 1094.104614,1699.664551 C1094.439697,1712.709595 1090.324829,1723.730103 1080.856689,1732.556030 C1073.772339,1739.159668 1065.205933,1742.473267 1055.423096,1743.071045 C1044.030762,1743.766968 1033.697632,1741.227051 1024.909912,1733.901001 C1021.457581,1731.022827 1018.756042,1727.244019 1015.350464,1723.474731 C1020.996155,1720.347412 1026.045532,1717.550537 1031.276367,1714.653198 C1036.471924,1722.649902 1043.397339,1727.067871 1052.883789,1727.018921 C1064.220337,1726.960571 1074.374634,1718.663208 1075.890991,1706.162964 C1076.971191,1697.258423 1075.567139,1688.710571 1070.067749,1681.042725 C1062.506958,1670.500610 1045.940063,1667.555908 1036.119629,1677.528198 C1033.236206,1680.456177 1031.370850,1684.376465 1028.954224,1687.781860 C1028.363647,1688.614136 1027.277832,1689.931641 1026.693481,1689.801025 C1021.415161,1688.621216 1016.197937,1687.168701 1009.691162,1685.462769 C1013.446594,1679.647095 1016.739868,1674.546997 1020.300476,1669.193970 z"/>
  <path fill="#FFA7DA" opacity="1.000000" stroke="none" d=" M1711.725708,1197.650513 C1710.210571,1202.295166 1708.920898,1206.590698 1707.508667,1211.294312 C1702.275757,1209.724121 1697.229614,1208.209839 1692.031616,1206.650146 C1695.496216,1194.875610 1698.918945,1183.243408 1702.405029,1171.396240 C1697.751465,1170.134399 1693.517822,1169.511597 1689.765991,1167.820190 C1686.062744,1166.150879 1684.891357,1167.228516 1683.941040,1170.673218 C1681.555542,1179.319336 1678.924805,1187.897705 1676.297241,1196.826416 C1671.134155,1195.297974 1666.332031,1193.876465 1661.211182,1192.360596 C1663.887817,1182.974609 1666.300659,1173.907593 1669.132446,1164.973267 C1669.921509,1162.483398 1670.008301,1161.539307 1667.209961,1160.935791 C1663.130493,1160.055908 1659.076538,1158.927856 1655.148438,1157.523193 C1652.603638,1156.613159 1651.673340,1157.230591 1650.940308,1159.715210 C1648.076172,1169.422852 1644.869507,1179.031738 1642.144043,1188.776489 C1641.375732,1191.523560 1640.887451,1192.278687 1637.975220,1191.130493 C1634.128662,1189.614014 1629.998779,1188.815918 1625.673950,1187.621582 C1630.924072,1169.872070 1636.068481,1152.480469 1641.249512,1134.964478 C1668.732910,1143.110718 1695.919189,1151.168823 1722.877197,1159.159302 C1719.119873,1172.275879 1715.535522,1184.788574 1711.725708,1197.650513 z"/>
  <path fill="#FFA7DA" opacity="1.000000" stroke="none" d=" M1164.563599,251.698761 C1156.180908,250.159576 1148.114868,248.513809 1140.128540,246.544357 C1133.514160,244.913254 1133.540527,244.740509 1132.028320,251.196793 C1131.123779,255.058548 1130.276245,258.933624 1129.306763,263.229767 C1141.132202,266.307587 1152.929077,269.377960 1164.985840,272.516022 C1163.981934,277.014587 1163.124634,281.579712 1161.831909,286.017975 C1161.584106,286.869110 1159.440674,287.940979 1158.480469,287.696899 C1141.639648,283.416229 1124.846924,278.946655 1108.108521,274.535156 C1115.150635,246.921021 1122.153687,219.459915 1129.131714,192.097260 C1146.874512,196.620132 1164.195801,201.035568 1181.888916,205.545746 C1180.595947,210.560822 1179.260742,215.739853 1177.855225,221.191528 C1165.731323,218.173523 1154.067261,215.269943 1142.249512,212.328125 C1140.816284,217.881897 1139.370605,223.484024 1137.843506,229.401932 C1146.490601,231.626801 1154.994751,233.867828 1163.529663,235.984497 C1166.886963,236.817123 1169.394287,237.533234 1167.162354,242.041702 C1165.767700,244.858994 1165.621216,248.294174 1164.563599,251.698761 z"/>
  <path fill="#FFA7DA" opacity="1.000000" stroke="none" d=" M812.089600,222.996796 C822.176758,221.200439 831.826965,219.401886 841.458862,217.606750 C842.200012,221.890274 842.365051,225.548370 843.528259,228.855362 C844.860901,232.644012 843.053223,233.461472 840.095825,234.005630 C831.060547,235.668091 822.032471,237.369354 813.010498,239.053864 C814.414856,245.672531 815.707764,251.765808 817.005676,257.882782 C828.658569,255.524353 839.705200,253.232315 850.791016,251.149277 C851.702393,250.978027 853.632446,252.057632 853.810425,252.845047 C854.808777,257.262512 855.414551,261.768677 856.227356,266.686615 C838.274658,270.124298 820.536377,273.520874 802.465332,276.981201 C797.194458,249.256317 791.920959,221.517731 786.566223,193.351822 C804.431946,189.933853 821.844360,186.602600 839.815063,183.164536 C840.820923,188.099289 841.868164,193.237030 843.015808,198.867401 C831.044006,201.223877 819.067139,203.581329 806.850220,205.986038 C807.984131,211.605225 808.959717,216.645111 810.072021,221.654648 C810.191284,222.191788 811.106689,222.552170 812.089600,222.996796 z"/>
  <path fill="#FFA7DA" opacity="1.000000" stroke="none" d=" M1166.196045,1652.666016 C1158.781372,1648.051514 1152.168945,1649.751221 1146.111450,1654.492798 C1143.119507,1656.834961 1141.136597,1659.756226 1142.886353,1664.180176 C1144.556641,1668.403076 1147.941040,1669.618408 1151.636841,1669.897339 C1156.951538,1670.298462 1162.382690,1669.488159 1167.646362,1670.142700 C1173.004517,1670.808960 1178.356201,1672.234741 1183.465698,1674.026489 C1190.871582,1676.623535 1193.553833,1683.082520 1194.983643,1690.144775 C1198.628784,1708.150391 1185.543091,1717.557251 1171.855469,1720.822876 C1159.909180,1723.673096 1148.074585,1723.546753 1138.767822,1713.318115 C1136.653687,1710.994873 1135.988403,1709.590576 1139.433838,1707.761353 C1143.556030,1705.572388 1147.309570,1702.689209 1151.193604,1700.125977 C1158.212402,1707.703247 1165.544312,1708.659668 1173.637207,1703.018555 C1176.681030,1700.896973 1178.699585,1698.078003 1177.558838,1694.062744 C1176.324341,1689.717041 1173.657227,1687.126953 1168.876953,1686.978516 C1160.808472,1686.728027 1152.647949,1687.007568 1144.699463,1685.862183 C1131.662231,1683.983521 1125.182251,1674.722412 1124.062988,1664.750488 C1122.814087,1653.624023 1129.264404,1643.630737 1140.742798,1638.783936 C1153.095581,1633.567627 1165.632446,1631.808716 1177.869019,1639.070679 C1180.848999,1640.839111 1183.236694,1643.605469 1186.523071,1646.456665 C1180.483398,1650.312744 1175.787964,1653.310547 1171.328613,1656.157593 C1169.432739,1654.896851 1167.956421,1653.914917 1166.196045,1652.666016 z"/>
  <path fill="#FFA7DA" opacity="1.000000" stroke="none" d=" M1632.060791,1350.245239 C1635.616821,1358.465820 1634.942871,1366.489502 1631.468506,1373.813965 C1627.044922,1383.139771 1621.194092,1391.883667 1610.486206,1394.943726 C1605.405029,1396.395874 1599.870239,1396.260864 1593.894287,1396.915771 C1595.498535,1391.185669 1596.545044,1386.648560 1598.117554,1382.301636 C1598.610840,1380.938110 1600.475830,1379.205811 1601.786865,1379.141113 C1611.400146,1378.666870 1615.776733,1372.736816 1617.841797,1364.929810 C1618.922485,1360.843872 1616.205688,1358.067261 1612.647949,1355.882202 C1607.740601,1352.868286 1604.324829,1355.973511 1601.129272,1358.512451 C1596.363525,1362.298950 1592.433228,1367.166260 1587.560303,1370.782837 C1572.430298,1382.012085 1552.868164,1376.587891 1547.730835,1359.217041 C1545.420044,1351.403442 1547.514038,1344.041138 1551.049927,1337.162598 C1555.509155,1328.487915 1561.578125,1321.022583 1571.066528,1317.587158 C1575.392212,1316.021118 1580.191040,1315.652710 1584.816162,1315.060669 C1587.958740,1314.658203 1588.395386,1316.963745 1587.859253,1319.318604 C1587.038086,1322.925049 1586.220703,1326.583374 1584.824707,1329.982666 C1584.276489,1331.317383 1582.234253,1332.753174 1580.766235,1332.876221 C1572.915405,1333.534302 1565.148193,1340.066895 1564.029785,1347.538818 C1563.356445,1352.037720 1564.925903,1355.604980 1568.907349,1357.989136 C1573.680542,1360.847534 1576.988037,1357.054565 1580.261353,1354.973755 C1583.959229,1352.623535 1587.284668,1349.470581 1590.220093,1346.175171 C1602.038574,1332.906738 1622.465942,1333.626343 1632.060791,1350.245239 z"/>
  <path fill="#FFA7DA" opacity="1.000000" stroke="none" d=" M424.747986,396.247528 C426.691223,398.099701 428.385071,399.703369 430.407349,401.617981 C421.803040,410.109619 413.396454,418.406097 404.933350,426.758362 C409.357300,430.839111 413.724518,434.867554 418.548309,439.317139 C424.012299,433.443329 430.303345,426.755707 436.495880,419.978058 C438.381714,417.914001 439.789642,417.333801 442.192841,419.576721 C451.366699,428.138580 451.457092,428.067108 442.574646,436.915680 C437.988373,441.484467 433.349884,446.000824 429.023743,450.256866 C433.604614,454.906128 437.879883,459.245209 441.922119,463.347748 C450.197815,455.006592 458.841309,446.294769 467.259216,437.810272 C471.434418,442.031891 474.870972,445.506653 479.292389,449.977203 C467.408478,462.409271 454.435242,474.876770 440.782043,488.775848 C421.500031,468.132416 402.274963,447.549988 382.893280,426.799896 C393.532288,415.730377 405.898315,402.863953 418.606354,389.641693 C420.681458,391.880585 422.590057,393.939819 424.747986,396.247528 z"/>
  <path fill="#FFA7DA" opacity="1.000000" stroke="none" d=" M344.759888,1433.734863 C348.769104,1430.026245 349.627960,1430.360107 353.011383,1434.684082 C359.247742,1442.653809 365.760406,1450.407349 372.406921,1458.556152 C377.142120,1454.571533 381.468719,1450.930664 386.176483,1446.969116 C379.545288,1438.912842 372.784515,1430.699097 366.066986,1422.537964 C370.152405,1419.198608 373.934784,1416.106934 378.197876,1412.622314 C384.920776,1420.775391 391.623169,1428.903564 398.322113,1437.027588 C403.287292,1432.892212 408.066071,1428.911987 413.066284,1424.747314 C405.124298,1415.059082 397.342621,1405.566406 389.502441,1396.002441 C393.848206,1392.455078 397.708649,1389.303833 401.879944,1385.898926 C413.482605,1399.958740 424.986908,1413.899414 436.653381,1428.036621 C414.599518,1446.256714 393.086029,1464.030518 371.137848,1482.163330 C359.730438,1468.378174 348.308960,1454.576050 336.631744,1440.464844 C339.454590,1438.144653 341.978729,1436.069946 344.759888,1433.734863 z"/>
  <path fill="#FFA7DA" opacity="1.000000" stroke="none" d=" M1505.752686,442.252869 C1510.003296,446.888367 1514.004028,451.272858 1517.267090,454.848877 C1514.034180,458.884277 1510.890137,462.808685 1507.409546,467.153259 C1499.611694,458.839081 1492.615601,451.379669 1485.898560,444.217804 C1481.344238,448.756683 1476.954346,453.131622 1471.066284,458.999573 C1479.800537,466.311615 1489.087524,474.086365 1498.448486,481.923126 C1493.077637,487.158325 1489.284912,490.855164 1485.274414,494.764343 C1472.960571,482.010895 1460.461792,469.065857 1447.519165,455.661072 C1467.900635,436.045593 1488.192749,416.516144 1508.903442,396.583954 C1521.415039,409.624359 1533.831299,422.565308 1546.509155,435.778992 C1542.590454,439.330109 1538.976440,442.605133 1536.014160,445.289520 C1526.921997,437.190399 1517.816528,429.079498 1509.085083,421.301697 C1505.641602,424.698822 1501.398315,428.884979 1496.789917,433.431244 C1499.618774,436.213867 1502.560669,439.107880 1505.752686,442.252869 z"/>
  <path fill="#FFA7DA" opacity="1.000000" stroke="none" d=" M270.433289,1272.216187 C286.221283,1266.545410 300.369934,1270.878174 308.637726,1287.188354 C310.750336,1291.355835 312.814056,1295.548096 315.110107,1300.149658 C322.145233,1296.349609 328.924866,1292.758667 335.629944,1289.033325 C338.576721,1287.395996 340.326263,1287.939819 341.667694,1291.134277 C343.345367,1295.129395 345.419495,1298.958008 347.502563,1303.227661 C322.165344,1316.120361 297.179932,1328.834229 271.690308,1341.804565 C264.827637,1327.822876 256.422211,1315.318604 253.142090,1300.416504 C251.410049,1292.547729 257.732147,1279.219482 265.411194,1274.952148 C266.960510,1274.091064 268.523560,1273.254883 270.433289,1272.216187 M274.041229,1310.357788 C275.508118,1312.983032 276.975006,1315.608154 278.468048,1318.280151 C286.004944,1314.498047 293.030487,1310.972534 300.160156,1307.394653 C297.899780,1302.817505 295.822052,1298.453247 293.607605,1294.159424 C289.230042,1285.671143 278.588409,1285.084473 272.646088,1292.681396 C267.765625,1298.920776 270.866211,1304.165771 274.041229,1310.357788 z"/>
  <path fill="#FFA7DA" opacity="1.000000" stroke="none" d=" M261.911530,819.002136 C265.786560,819.842529 269.226776,820.680786 273.018280,821.604675 C271.880371,827.086304 270.717529,832.688049 269.450775,838.790344 C241.495514,832.749756 213.872025,826.780823 185.784622,820.711670 C188.881775,808.024902 191.237793,795.355652 195.129013,783.176880 C200.325882,766.911743 217.586609,761.227905 231.989670,767.016479 C247.622314,773.299133 252.589661,787.343201 248.765549,803.529724 C247.841385,807.441528 246.814026,811.328857 245.746826,815.574707 C251.152359,816.751770 256.314545,817.875854 261.911530,819.002136 M231.052750,805.707031 C231.701569,803.047974 232.563873,800.420105 232.958466,797.723816 C234.071579,790.117981 230.567978,784.162109 223.907486,783.113708 C217.877502,782.164612 211.598160,783.604553 209.030579,792.452271 C208.000916,796.000366 207.461380,799.699768 206.300323,803.197998 C205.263077,806.323242 206.796570,807.435425 209.311508,807.959473 C215.946075,809.341736 222.602585,810.618774 229.797684,812.046265 C230.197708,810.230896 230.601395,808.398804 231.052750,805.707031 z"/>
  <path fill="#FFA7DA" opacity="1.000000" stroke="none" d=" M378.243011,1349.738037 C389.812500,1362.467773 391.329071,1383.717407 382.484344,1391.826904 C378.050323,1388.222656 373.613800,1384.616455 369.232697,1381.055298 C374.269409,1371.709595 371.484528,1363.079590 363.194183,1356.730347 C359.966522,1354.258301 356.345673,1354.149292 353.180115,1356.442749 C349.809723,1358.884644 348.106781,1362.497437 349.384583,1366.752441 C351.185852,1372.750854 353.199310,1378.687744 355.221741,1384.616943 C359.456604,1397.032104 355.540405,1407.988892 345.260925,1414.195312 C335.166382,1420.290161 325.059967,1419.467651 315.765442,1411.199585 C307.611084,1403.945923 301.844269,1394.868408 301.346191,1383.944458 C301.074829,1377.992432 303.991272,1371.895020 305.812103,1364.467529 C311.593536,1368.957764 316.129150,1372.480347 320.626801,1375.973389 C316.353607,1386.665527 318.844604,1394.836426 326.878204,1399.586060 C331.069397,1402.063721 334.565918,1400.702393 336.963013,1398.136230 C338.849854,1396.116211 340.019470,1392.144043 339.496887,1389.425659 C338.446716,1383.963013 335.970978,1378.782104 334.180267,1373.452515 C331.682495,1366.018433 331.046082,1358.511963 334.366272,1351.174072 C340.060516,1338.589111 356.456238,1331.780884 370.405396,1342.036133 C373.229828,1344.112427 375.475464,1346.976196 378.243011,1349.738037 z"/>
  <path fill="#FFA7DA" opacity="1.000000" stroke="none" d=" M1378.260742,1536.761719 C1390.643677,1555.145508 1402.734985,1573.284424 1414.896851,1591.375977 C1420.535278,1599.763672 1420.622437,1599.759644 1412.093506,1605.410645 C1404.290405,1610.580444 1396.774902,1616.332031 1388.503906,1620.612427 C1376.797241,1626.670898 1364.412720,1624.117920 1356.399292,1615.663452 C1345.693237,1604.367920 1344.899292,1590.579834 1352.516479,1579.609619 C1356.632568,1573.681641 1363.758423,1569.827637 1369.593140,1565.120850 C1370.937988,1564.035889 1372.557007,1563.290771 1374.203247,1562.296753 C1369.091675,1554.627441 1364.087402,1547.119141 1358.816406,1539.210938 C1363.555908,1536.035645 1368.224365,1532.907959 1373.249268,1529.541382 C1374.952637,1532.036499 1376.475342,1534.266968 1378.260742,1536.761719 M1386.465820,1580.966064 C1385.461670,1579.318359 1384.457520,1577.670532 1383.076660,1575.404541 C1378.150757,1578.978394 1373.057007,1582.166016 1368.578369,1586.061035 C1363.711914,1590.293213 1363.790161,1596.374878 1368.026489,1602.201416 C1371.275269,1606.669434 1377.830078,1608.362549 1382.796753,1605.601685 C1387.715088,1602.867554 1392.392822,1599.700684 1397.372681,1596.601318 C1393.746582,1591.322144 1390.369873,1586.406128 1386.465820,1580.966064 z"/>
  <path fill="#FFA7DA" opacity="1.000000" stroke="none" d=" M1243.648560,1672.242920 C1240.363647,1669.854248 1237.383545,1667.669556 1234.300171,1665.408936 C1232.523682,1676.793579 1230.835327,1688.134033 1228.881958,1699.428711 C1228.655151,1700.739502 1227.184082,1702.338989 1225.901611,1702.874268 C1220.853516,1704.981323 1215.650269,1706.716431 1209.699829,1708.882446 C1210.660767,1703.358765 1211.504761,1698.223999 1212.453613,1693.108765 C1214.932129,1679.746704 1217.512695,1666.403198 1219.868286,1653.019775 C1220.084229,1651.792725 1218.993896,1650.326172 1218.480713,1648.982056 C1214.639893,1638.921753 1210.791626,1628.864136 1206.881836,1618.638794 C1211.315308,1616.906372 1215.673096,1615.349243 1219.901123,1613.496582 C1222.440552,1612.383911 1223.917114,1613.039795 1224.822021,1615.479004 C1228.232300,1624.671631 1231.578491,1633.888306 1235.077637,1643.046753 C1235.626953,1644.484253 1236.587769,1646.004761 1237.790771,1646.915527 C1251.899536,1657.597290 1266.094971,1668.164917 1280.248657,1678.787476 C1280.884888,1679.264893 1281.342529,1679.979858 1282.143188,1680.874512 C1276.211792,1683.182129 1270.576660,1685.474243 1264.848633,1687.504639 C1263.897339,1687.841919 1262.269043,1687.381104 1261.416260,1686.705322 C1255.526733,1682.039062 1249.759766,1677.218018 1243.648560,1672.242920 z"/>
  <path fill="#FFA7DA" opacity="1.000000" stroke="none" d=" M1716.228760,867.267517 C1714.401367,868.658936 1712.828613,869.792480 1710.853882,871.215820 C1721.149048,875.947876 1731.005371,880.353516 1740.716919,885.057922 C1742.448364,885.896667 1744.516479,887.811218 1744.812744,889.510681 C1745.711182,894.664429 1745.816162,899.956482 1746.291504,905.969543 C1739.047729,902.798462 1732.341187,899.976562 1725.732056,896.942505 C1715.764282,892.366516 1706.067017,887.105591 1695.834717,883.250793 C1691.852051,881.750366 1686.704346,883.029846 1682.130493,883.480957 C1674.230225,884.260132 1666.363770,885.381470 1658.364014,886.373962 C1657.804565,880.258362 1657.315796,874.916016 1656.774292,868.997070 C1664.861694,867.964722 1672.536499,866.429077 1680.256836,866.150635 C1688.521484,865.852478 1694.973511,862.717773 1701.193115,857.493347 C1712.883301,847.673828 1725.067261,838.442139 1737.323486,828.746338 C1738.238770,835.241699 1739.951172,841.466187 1739.581665,847.564575 C1739.424438,850.159912 1735.075439,852.695007 1732.342285,854.899048 C1727.166382,859.072754 1721.781616,862.987488 1716.228760,867.267517 z"/>
  <path fill="#FFA7DA" opacity="1.000000" stroke="none" d=" M269.264465,635.765991 C265.113159,629.929688 261.351776,624.261414 257.287811,618.819031 C254.863647,615.572571 254.684402,612.460876 256.471802,608.995239 C258.528107,605.008057 260.523987,600.989624 262.941803,596.201172 C267.073700,602.200439 270.943878,607.669983 274.656708,613.244385 C280.831329,622.515015 286.877228,631.871399 293.052032,641.141968 C293.950562,642.491089 295.037811,644.043091 296.417969,644.690308 C306.459869,649.398926 316.599182,653.899780 327.527252,658.836487 C325.129150,664.118225 322.711517,669.442871 320.205841,674.961487 C311.749176,671.160645 303.209351,668.406799 295.901825,663.728210 C288.827240,659.198730 281.860931,660.640686 274.741211,661.185059 C267.616821,661.729675 260.559174,663.103088 253.455841,663.979919 C246.078339,664.890808 238.681107,665.641968 230.186417,666.585876 C233.069321,660.427307 235.639404,654.795288 238.388000,649.251709 C238.716553,648.589172 239.989380,648.133179 240.870560,648.045837 C252.074051,646.934998 263.285980,645.909119 274.941528,644.819885 C273.042175,641.736084 271.284607,638.882568 269.264465,635.765991 z"/>
  <path fill="#FFA7DA" opacity="1.000000" stroke="none" d=" M1439.996582,1522.421631 C1432.248901,1513.145386 1424.516357,1504.269165 1416.416870,1494.971802 C1420.678833,1491.184326 1424.687256,1487.622070 1429.221924,1483.592285 C1434.078369,1488.863037 1439.021362,1494.086304 1443.794556,1499.460449 C1446.709595,1502.742432 1449.219971,1506.390625 1452.217407,1509.588257 C1453.172241,1510.606934 1455.096680,1510.743286 1456.597778,1511.219116 C1470.231934,1515.541016 1483.869507,1519.852539 1497.508911,1524.157959 C1500.869263,1525.218628 1504.240112,1526.246582 1508.091187,1527.439941 C1503.742798,1531.420654 1499.678589,1535.465454 1495.215210,1539.007446 C1494.048950,1539.932983 1491.491455,1539.793335 1489.828491,1539.293091 C1479.275391,1536.119263 1468.794067,1532.707031 1458.086914,1529.309326 C1460.083374,1540.934570 1462.090942,1552.363037 1463.942871,1563.816772 C1464.126587,1564.952759 1463.754395,1566.683838 1462.967896,1567.386108 C1458.962769,1570.963135 1454.736206,1574.292114 1449.911499,1578.264160 C1449.209595,1574.756958 1448.544922,1571.749268 1448.011963,1568.718384 C1445.713501,1555.642822 1443.453979,1542.560425 1441.179199,1529.480835 C1440.792969,1527.260498 1440.401001,1525.041138 1439.996582,1522.421631 z"/>
  <path fill="#FFA7DA" opacity="1.000000" stroke="none" d=" M629.982178,343.002441 C626.651062,344.687683 623.698059,346.328217 620.372498,348.175720 C609.408936,327.876007 598.461914,307.607117 587.574280,287.447998 C580.478088,291.267059 573.259766,295.151855 565.529541,299.312134 C562.982422,294.823914 560.475464,290.406342 557.496582,285.157196 C577.388977,274.377289 597.181580,263.651459 617.612122,252.579910 C620.026245,257.234436 622.371643,261.756531 625.100891,267.018646 C618.171997,270.851013 611.213318,274.699860 603.366394,279.039978 C614.182678,299.151978 625.049316,319.357452 636.012695,339.742950 C633.995361,340.890289 632.177795,341.924011 629.982178,343.002441 z"/>
  <path fill="#FFA7DA" opacity="1.000000" stroke="none" d=" M1706.727783,709.346069 C1710.850342,722.044800 1714.749268,734.400391 1718.783813,747.185791 C1713.764648,748.874268 1708.786865,750.548828 1703.588745,752.297485 C1700.864136,744.108276 1698.235352,736.207031 1695.613037,728.325134 C1673.986328,735.505066 1652.354614,742.686707 1630.306641,750.006592 C1628.449585,744.625854 1626.639038,739.379700 1624.561890,733.361206 C1646.478638,726.031311 1668.184204,718.772095 1689.898193,711.510010 C1687.466064,703.539795 1685.044800,695.605530 1682.612549,687.634888 C1687.769897,685.909241 1692.320557,684.386597 1697.612793,682.615845 C1700.612183,691.517090 1703.558228,700.260010 1706.727783,709.346069 z"/>
  <path fill="#FFA7DA" opacity="1.000000" stroke="none" d=" M414.201538,502.707306 C417.171814,505.339264 419.892548,507.709412 423.024841,510.438049 C419.357025,514.947815 415.721832,519.417542 412.043365,523.940430 C394.005798,509.169922 376.265198,494.642578 358.592621,480.170898 C353.785919,486.227386 349.099640,492.254883 344.206604,498.109589 C343.710968,498.702637 341.793579,498.630707 340.850372,498.191772 C339.715027,497.663391 339.007751,496.291534 337.957031,495.492859 C329.581421,489.126221 329.891266,489.421783 336.524872,481.821625 C344.991821,472.121002 352.863525,461.901428 361.014008,451.923706 C365.044830,446.989166 369.125305,442.095184 373.340240,436.992889 C376.735870,439.971405 379.770233,443.230621 383.386902,445.601532 C385.922394,447.263672 385.102417,448.159760 383.791779,449.729309 C379.190002,455.240295 374.629974,460.786133 369.802795,466.622559 C376.559937,472.258850 383.176361,477.823822 389.843811,483.326904 C397.142273,489.350708 404.480743,495.326172 411.825836,501.293060 C412.440826,501.792633 413.238983,502.066650 414.201538,502.707306 z"/>
  <path fill="#FFA7DA" opacity="1.000000" stroke="none" d=" M1592.263184,1404.241089 C1593.355347,1403.831665 1594.517822,1403.244263 1594.968750,1403.588623 C1598.595215,1406.357788 1602.087402,1409.302612 1605.999756,1412.503906 C1592.305542,1430.341675 1578.602295,1448.191284 1564.841431,1466.116089 C1560.565186,1462.803955 1556.608032,1459.738770 1552.224976,1456.343872 C1557.055054,1450.024414 1561.999023,1443.556152 1567.378784,1436.517578 C1549.171021,1422.505493 1530.947021,1408.480957 1512.557739,1394.329224 C1516.349243,1389.596436 1519.803345,1385.284790 1523.456299,1380.725098 C1541.728638,1394.740112 1559.746338,1408.559814 1577.980469,1422.545532 C1582.875244,1416.244873 1587.439453,1410.369995 1592.263184,1404.241089 z"/>
  <path fill="#FFA7DA" opacity="1.000000" stroke="none" d=" M343.670349,604.260803 C322.671539,591.200806 301.977905,578.358765 280.717987,565.165283 C283.728241,560.220703 286.783997,555.201355 290.021790,549.882996 C309.590332,562.117493 328.802612,574.129211 348.506958,586.448547 C354.953400,576.199402 361.281158,566.138916 368.037384,555.397217 C372.694519,558.128235 377.344055,560.854736 382.123444,563.657410 C372.373840,579.208069 362.700714,594.636719 352.942657,610.200806 C349.644165,608.096008 346.809845,606.287415 343.670349,604.260803 z"/>
  <path fill="#FFA7DA" opacity="1.000000" stroke="none" d=" M232.396057,1147.260010 C221.015564,1149.966064 210.010666,1152.458618 198.547440,1155.054932 C197.376587,1150.320801 195.992310,1145.603882 195.185211,1140.790161 C195.002472,1139.700317 196.623856,1137.391479 197.754379,1137.133911 C217.575745,1132.616943 237.451996,1128.340820 257.308777,1123.978149 C258.867401,1123.635742 260.370605,1123.041138 261.929718,1122.554199 C259.339417,1111.496826 256.688110,1100.552002 254.349808,1089.540649 C254.147018,1088.585693 255.800156,1086.463501 256.950104,1086.133301 C261.092468,1084.943970 265.388550,1084.290039 269.671906,1083.424683 C273.556030,1100.973755 277.457947,1118.603149 281.401886,1136.422607 C265.873688,1140.013672 250.822891,1143.505859 235.761383,1146.951050 C234.807434,1147.169312 233.770142,1147.023071 232.396057,1147.260010 z"/>
  <path fill="#FFA7DA" opacity="1.000000" stroke="none" d=" M1640.769287,1336.269043 C1618.774658,1324.329834 1597.049438,1312.659668 1574.908813,1300.766357 C1577.328735,1296.452881 1579.770996,1292.367188 1581.934448,1288.138794 C1583.145508,1285.771729 1584.300415,1285.647949 1586.565308,1286.884399 C1601.563354,1295.071045 1616.627808,1303.136597 1631.701416,1311.183838 C1639.239258,1315.207886 1646.839600,1319.114746 1654.416626,1323.065186 C1657.311279,1324.574463 1659.446167,1325.741577 1656.321045,1329.583008 C1653.745239,1332.749390 1652.498169,1336.996582 1650.474121,1341.151123 C1647.295410,1339.597168 1644.166992,1338.067749 1640.769287,1336.269043 z"/>
  <path fill="#FFA7DA" opacity="1.000000" stroke="none" d=" M276.083862,1150.025879 C278.977264,1149.308838 281.452606,1148.617798 284.375580,1147.801758 C285.920990,1152.538940 287.648102,1157.140503 288.796051,1161.882324 C289.053894,1162.947510 287.541656,1165.375488 286.415588,1165.703247 C263.868439,1172.265991 241.257111,1178.608276 218.662369,1185.007812 C215.107147,1186.014771 211.569824,1187.084961 207.539703,1188.268188 C205.956345,1182.776489 204.422043,1177.454956 202.712418,1171.525391 C210.888535,1169.001465 218.897812,1166.396240 226.985123,1164.061279 C241.511322,1159.867920 256.086731,1155.844971 270.634735,1151.726685 C272.333649,1151.245728 273.989807,1150.613770 276.083862,1150.025879 z"/>
  <path fill="#FFA7DA" opacity="1.000000" stroke="none" d=" M1097.002197,1661.936768 C1096.246094,1657.551636 1095.492065,1653.604736 1094.717163,1649.548218 C1100.507690,1648.388184 1105.854492,1647.317139 1111.731201,1646.140015 C1117.421753,1673.700195 1123.146118,1701.424683 1128.915405,1729.366089 C1124.063843,1730.549194 1119.162476,1731.914307 1114.176025,1732.800171 C1113.301514,1732.955444 1111.338989,1731.250244 1111.110962,1730.149170 C1106.593018,1708.334351 1102.260620,1686.481079 1097.865845,1664.640747 C1097.708618,1663.859253 1097.297241,1663.129028 1097.002197,1661.936768 z"/>
  <path fill="#FFA7DA" opacity="1.000000" stroke="none" d=" M393.143127,546.025146 C391.953308,549.233826 390.544464,552.478943 388.770020,555.509949 C387.633118,557.451965 385.956879,559.078125 384.265656,561.162231 C375.747162,555.170227 367.159027,549.217102 358.664185,543.133728 C345.236847,533.518127 331.951294,523.701721 318.411713,514.248108 C315.799866,512.424500 315.391388,511.492615 317.372284,509.001862 C320.180237,505.471252 322.573151,501.610596 325.269653,497.708313 C338.049377,506.768280 350.463379,515.528992 362.832947,524.351868 C371.402344,530.464172 379.911102,536.661560 388.445404,542.823059 C389.890808,543.866638 391.328156,544.921326 393.143127,546.025146 z"/>
</svg>