<svg width="251" height="224" viewBox="0 0 251 224" fill="none" xmlns="http://www.w3.org/2000/svg">
<path d="M33.8436 138.024C33.8436 97.8836 33.8429 57.9174 33.8439 17.9516C33.8442 7.32418 40.9212 0.000576569 51.1869 0.000228025C111.787 -0.000120519 172.387 -0.000118051 232.988 0.000579037C243.141 0.000579037 250.25 7.35242 250.251 17.8579C250.252 80.4208 250.252 142.984 250.251 205.547C250.25 216.055 243.147 223.415 232.994 223.416C172.338 223.418 111.682 223.419 51.0252 223.415C40.9972 223.415 33.8456 216.01 33.8446 205.64C33.8415 183.159 33.8436 160.679 33.8436 138.024ZM219.166 55.9537C208.984 51.8005 198.46 50.9689 187.763 52.9008C167.869 56.4933 154.152 68.2619 146.574 87.4088C141.327 100.667 141.016 114.492 144.096 128.36C146.974 141.325 153.482 152.059 163.708 160.21C176.868 170.701 191.962 173.659 208.034 171.046C224.729 168.331 237.378 159.039 245.963 143.973C247.133 141.919 248.053 139.712 249.144 137.461C242.065 134.817 235.314 132.296 228.489 129.747C227.91 130.892 227.436 131.929 226.879 132.916C220.609 144.039 211.689 150.981 198.826 151.055C186.363 151.127 176.641 145.494 170.483 134.345C163.421 121.555 163.018 107.897 168.108 94.3643C177.285 69.9704 207.506 65.2895 223.486 85.6026C225.305 87.9145 226.712 90.5715 228.393 93.1991C235.08 90.6408 241.892 88.0348 248.784 85.3977C242.685 71.3785 232.896 61.7368 219.166 55.9537Z" fill="black"/>
<path d="M25.4032 46.3569C25.4032 100.723 25.4265 154.915 25.3671 209.106C25.3614 214.531 26.6865 219.263 30.6 223.326C29.9336 223.364 29.466 223.421 28.9994 223.413C23.8873 223.318 18.7243 223.648 13.6757 223.011C5.94073 222.035 0.0950204 214.681 0.0923195 206.616C0.0740886 154.399 0.0717223 102.182 0.0933292 49.9647C0.0973805 40.8154 7.44814 33.2269 16.2864 33.1185C19.2607 33.0819 22.2354 33.1126 25.4032 33.1126C25.4032 37.5179 25.4032 41.8503 25.4032 46.3569Z" fill="black"/>
</svg>
