<?xml version="1.0" encoding="utf-8"?>
<svg viewBox="-728.5298 -152.2337 1832.5782 641.0031" width="1832.578" height="641.003" xmlns="http://www.w3.org/2000/svg">
  <path fill="#000000" opacity="1.000000" stroke="none" d="M -628.516 243.767 C -628.516 128.602 -628.518 13.936 -628.515 -100.729 C -628.514 -131.22 -607.552 -152.232 -577.145 -152.233 C -397.647 -152.234 -218.149 -152.234 -38.65 -152.232 C -8.576 -152.232 12.482 -131.139 12.483 -100.998 C 12.487 78.5 12.487 257.998 12.483 437.496 C 12.482 467.646 -8.558 488.762 -38.63 488.764 C -218.294 488.771 -397.959 488.772 -577.624 488.762 C -607.327 488.761 -628.51 467.515 -628.513 437.765 C -628.522 373.265 -628.516 308.766 -628.516 243.767 M -79.59 8.302 C -109.748 -3.614 -140.922 -6 -172.607 -0.457 C -231.533 9.85 -272.161 43.615 -294.607 98.549 C -310.149 136.587 -311.07 176.253 -301.949 216.041 C -293.422 253.239 -274.146 284.036 -243.858 307.422 C -204.878 337.52 -160.167 346.007 -112.564 338.51 C -63.113 330.722 -25.646 304.061 -0.218 260.836 C 3.249 254.942 5.973 248.61 9.205 242.153 C -11.762 234.568 -31.761 227.333 -51.974 220.021 C -53.689 223.306 -55.095 226.28 -56.744 229.114 C -75.315 261.025 -101.738 280.942 -139.837 281.155 C -176.754 281.362 -205.55 265.201 -223.788 233.212 C -244.708 196.518 -245.902 157.332 -230.823 118.505 C -203.642 48.517 -114.128 35.087 -66.793 93.367 C -61.407 100 -57.24 107.623 -52.259 115.162 C -32.452 107.822 -12.276 100.345 8.139 92.779 C -9.926 52.557 -38.921 24.894 -79.59 8.302 Z"/>
  <path fill="#010101" opacity="1.000000" stroke="none" d="M 884.519 241.767 C 884.519 272.91 884.519 303.552 884.519 334.499 C 864.758 334.499 845.189 334.499 825.249 334.499 C 824.455 324.27 823.66 314.035 822.788 302.812 C 820.666 305.536 819.177 307.456 817.679 309.37 C 798.758 333.531 773.277 341.916 743.572 340.312 C 686.076 337.207 654.87 296.118 646.582 249.238 C 640.951 217.391 642.227 185.814 654.597 155.485 C 672.287 112.114 712.59 88.257 759.158 92.352 C 784.808 94.607 805.109 105.646 820.184 126.433 C 820.451 126.802 820.529 127.309 821.714 127.205 C 821.714 86.006 821.714 44.807 821.714 3.238 C 842.726 3.238 863.276 3.238 884.519 3.238 C 884.519 82.463 884.519 161.865 884.519 241.767 M 815.8 249.503 C 824.39 228.568 824.686 207.198 817.012 186.227 C 809.012 164.365 793.15 151.186 769.251 150.063 C 745.488 148.947 727.548 159.434 717.012 180.63 C 705.019 204.758 705.273 229.515 717.785 253.457 C 729.751 276.352 753.657 287.215 778.701 281.72 C 796.452 277.825 808.011 266.285 815.8 249.503 Z"/>
  <path fill="#000000" opacity="1.000000" stroke="none" d="M -653.516 -19.233 C -653.516 136.748 -653.447 292.228 -653.623 447.708 C -653.64 463.271 -649.715 476.847 -638.123 488.504 C -640.097 488.613 -641.482 488.778 -642.864 488.754 C -658.006 488.483 -673.299 489.429 -688.253 487.601 C -711.164 484.801 -728.479 463.701 -728.487 440.562 C -728.541 290.747 -728.548 140.933 -728.484 -8.882 C -728.472 -35.132 -706.699 -56.904 -680.52 -57.215 C -671.71 -57.32 -662.899 -57.232 -653.516 -57.232 C -653.516 -44.593 -653.516 -32.163 -653.516 -19.233 Z"/>
  <path fill="#010101" opacity="1.000000" stroke="none" d="M 230.01 333.301 C 229.448 334.104 228.938 334.743 228.427 334.744 C 209.628 334.795 190.828 334.787 171.746 334.787 C 171.318 325.944 170.904 317.394 170.423 307.461 C 161.995 322.544 150.362 332.133 135.027 336.249 C 126.113 338.642 116.734 339.959 107.503 340.367 C 92.994 341.008 78.588 339.345 64.633 334.861 C 28.899 323.379 13.389 296.244 15.889 260.729 C 18.823 219.054 46.441 201.191 78.445 194.977 C 90.448 192.647 102.897 192.145 115.171 191.783 C 132.634 191.268 150.124 191.652 167.987 191.652 C 166.242 179.39 163.011 168.174 154.964 158.919 C 144.501 146.883 130.645 145.474 116.09 147.294 C 99.994 149.307 87.535 157.482 78.232 170.732 C 77.416 171.894 74.937 173.014 73.741 172.616 C 56.735 166.959 39.816 161.039 22.882 155.166 C 22.433 155.01 22.048 154.669 21.424 154.287 C 37.614 120.53 63.509 99.605 100.803 93.837 C 121.934 90.568 143.095 91.005 163.687 97.064 C 200.122 107.785 220.778 133.002 228.489 169.595 C 232.902 190.537 231.308 211.739 231.155 232.865 C 230.912 266.191 230.438 299.515 230.01 333.301 M 90.069 282.799 C 109.391 291.206 128.34 290.813 146.088 279.046 C 160.376 269.573 168.836 256.213 169.76 237.458 C 150.264 238.111 131.34 238.505 112.445 239.489 C 104.126 239.923 96.065 242.079 89.083 247.154 C 77.808 255.349 75.265 274.263 90.069 282.799 Z"/>
  <path fill="#010101" opacity="1.000000" stroke="none" d="M 255.82 154.521 C 273.668 116.123 303.799 95.715 345.832 92.597 C 363.589 91.279 381.17 92.098 398.255 97.246 C 434.451 108.149 454.827 133.315 462.503 169.661 C 466.398 188.106 465.451 206.78 465.258 225.418 C 464.898 260.233 464.489 295.048 464.09 329.863 C 464.074 331.336 463.959 332.808 463.879 334.535 C 444.425 334.535 425.202 334.535 405.733 334.535 C 405.314 325.9 404.9 317.363 404.416 307.385 C 394.361 325.587 379.411 334.817 360.814 338.527 C 346.965 341.29 332.944 341.279 319.049 339.162 C 310.716 337.893 302.249 336.265 294.394 333.324 C 260.656 320.693 247.588 294.15 249.902 260.724 C 252.787 219.06 280.419 201.207 312.422 194.98 C 324.421 192.646 336.866 192.145 349.137 191.783 C 366.6 191.268 384.09 191.652 401.592 191.652 C 399.821 169.915 388.571 151.273 370.506 147.96 C 347.298 143.705 327.718 150.064 313.256 169.52 C 312.368 170.715 311.474 171.905 310.567 173.086 C 310.476 173.203 310.275 173.234 309.718 173.499 C 292.035 167.34 274.049 161.075 255.82 154.521 M 361.238 287.122 C 384.98 282.313 406.068 257.749 403.013 238.235 C 388.763 238.235 374.476 237.985 360.202 238.316 C 349.407 238.567 338.565 239.364 328.513 243.917 C 318.597 248.409 312.895 257.597 313.712 267.215 C 314.481 276.27 320.351 282.565 331.267 285.849 C 340.846 288.732 350.603 288.72 361.238 287.122 Z"/>
  <path fill="#010101" opacity="1.000000" stroke="none" d="M 999.127 92.491 C 1029.409 90.551 1057.19 96.27 1081.434 114.732 C 1091.55 122.435 1099.184 132.099 1103.44 144.739 C 1086.374 152.575 1069.367 160.384 1052.614 168.077 C 1039.967 150.336 1022.274 145.685 1002.12 147.881 C 993.733 148.794 986.965 152.881 984.381 161.721 C 982.146 169.364 983.744 174.739 991.081 177.846 C 999.877 181.571 1009.247 183.97 1018.429 186.743 C 1032.074 190.864 1046.375 193.43 1059.33 199.096 C 1093.776 214.163 1112.3 255.674 1100.481 289.201 C 1093.455 309.128 1078.988 322.637 1059.875 330.073 C 1014.042 347.903 970.289 344.729 930.503 313.671 C 919.888 305.385 912.398 294.414 906.737 281.641 C 924.605 273.406 942.195 265.299 959.104 257.506 C 965.345 263.481 970.845 269.809 977.375 274.785 C 993.119 286.781 1010.843 287.286 1029.087 281.76 C 1034.718 280.055 1039.264 276.637 1040.452 270.348 C 1041.855 262.922 1039.288 256.896 1032.064 254.095 C 1022.509 250.391 1012.609 247.449 1002.676 244.875 C 984.745 240.228 967.279 234.719 951.872 223.94 C 925.83 205.723 915.29 181.158 921.665 149.902 C 927.765 119.994 947.495 103.296 976.021 95.959 C 983.377 94.067 991.108 93.633 999.127 92.491 Z"/>
  <path fill="#010101" opacity="1.000000" stroke="none" d="M 550.4 334.803 C 531.95 334.803 513.986 334.803 495.753 334.803 C 495.753 255.841 495.753 177.129 495.753 98.091 C 516.319 98.091 537.017 98.091 558.057 98.091 C 558.057 111.783 558.057 125.391 558.057 140.615 C 579.165 111.236 607.263 98.015 641.801 96.614 C 641.801 117.13 641.801 137.19 641.801 156.176 C 627.936 158.422 614.402 159.988 601.198 162.999 C 593.905 164.661 586.774 168.073 580.255 171.872 C 565.254 180.614 557.98 193.895 558.111 211.544 C 558.38 247.688 558.192 283.836 558.192 319.982 C 558.192 324.773 558.192 329.565 558.192 334.803 C 555.461 334.803 553.175 334.803 550.4 334.803 Z"/>
</svg>